<ttFont>
    <TTGlyph name=".notdef" xMin="120" yMin="0" xMax="480" yMax="582">
      <contour>
        <pt x="170" y="536" on="1"/>
        <pt x="170" y="46" on="1"/>
        <pt x="430" y="46" on="1"/>
        <pt x="430" y="536" on="1"/>
      </contour>
      <contour>
        <pt x="120" y="0" on="1"/>
        <pt x="120" y="582" on="1"/>
        <pt x="480" y="582" on="1"/>
        <pt x="480" y="0" on="1"/>
      </contour>
    </TTGlyph>
    <TTGlyph name="A" xMin="30" yMin="0" xMax="503" yMax="643">
      <contour>
        <pt x="68" y="0" on="1"/>
        <pt x="37" y="0" on="1"/>
        <pt x="26" y="0" on="0"/>
        <pt x="30" y="12" on="1"/>
        <pt x="229" y="631" on="1"/>
        <pt x="232" y="643" on="0"/>
        <pt x="243" y="643" on="1"/>
        <pt x="290" y="643" on="1"/>
        <pt x="300" y="643" on="0"/>
        <pt x="304" y="631" on="1"/>
        <pt x="503" y="12" on="1"/>
        <pt x="506" y="0" on="0"/>
        <pt x="496" y="0" on="1"/>
        <pt x="464" y="0" on="1"/>
        <pt x="454" y="0" on="0"/>
        <pt x="451" y="12" on="1"/>
        <pt x="397" y="172" on="1"/>
        <pt x="135" y="172" on="1"/>
        <pt x="81" y="12" on="1"/>
        <pt x="77" y="0" on="0"/>
      </contour>
      <contour>
        <pt x="264" y="588" on="1"/>
        <pt x="149" y="217" on="1"/>
        <pt x="384" y="217" on="1"/>
        <pt x="268" y="588" on="1"/>
      </contour>
    </TTGlyph>
    <TTGlyph name="AE" xMin="2" yMin="0" xMax="708" yMax="643">
      <contour>
        <pt x="42" y="0" on="1"/>
        <pt x="8" y="0" on="1"/>
        <pt x="-2" y="0" on="0"/>
        <pt x="2" y="12" on="1"/>
        <pt x="341" y="631" on="1"/>
        <pt x="348" y="643" on="0"/>
        <pt x="359" y="643" on="1"/>
        <pt x="697" y="643" on="1"/>
        <pt x="708" y="643" on="0"/>
        <pt x="708" y="632" on="1"/>
        <pt x="708" y="609" on="1"/>
        <pt x="708" y="598" on="0"/>
        <pt x="697" y="598" on="1"/>
        <pt x="437" y="598" on="1"/>
        <pt x="428" y="598" on="0"/>
        <pt x="428" y="589" on="1"/>
        <pt x="428" y="359" on="1"/>
        <pt x="428" y="350" on="0"/>
        <pt x="437" y="350" on="1"/>
        <pt x="669" y="350" on="1"/>
        <pt x="680" y="350" on="0"/>
        <pt x="680" y="339" on="1"/>
        <pt x="680" y="316" on="1"/>
        <pt x="680" y="305" on="0"/>
        <pt x="669" y="305" on="1"/>
        <pt x="437" y="305" on="1"/>
        <pt x="428" y="305" on="0"/>
        <pt x="428" y="296" on="1"/>
        <pt x="428" y="54" on="1"/>
        <pt x="428" y="45" on="0"/>
        <pt x="437" y="45" on="1"/>
        <pt x="697" y="45" on="1"/>
        <pt x="708" y="45" on="0"/>
        <pt x="708" y="34" on="1"/>
        <pt x="708" y="11" on="1"/>
        <pt x="708" y="0" on="0"/>
        <pt x="697" y="0" on="1"/>
        <pt x="388" y="0" on="1"/>
        <pt x="377" y="0" on="0"/>
        <pt x="377" y="12" on="1"/>
        <pt x="377" y="172" on="1"/>
        <pt x="147" y="172" on="1"/>
        <pt x="58" y="12" on="1"/>
        <pt x="51" y="0" on="0"/>
      </contour>
      <contour>
        <pt x="377" y="219" on="1"/>
        <pt x="377" y="589" on="1"/>
        <pt x="373" y="589" on="1"/>
        <pt x="170" y="219" on="1"/>
      </contour>
    </TTGlyph>
    <TTGlyph name="AEacute" xMin="2" yMin="0" xMax="708" yMax="836">
      <contour>
        <pt x="485" y="836" on="1"/>
        <pt x="530" y="836" on="1"/>
        <pt x="535" y="836" on="0"/>
        <pt x="539" y="830" on="0"/>
        <pt x="535" y="825" on="1"/>
        <pt x="445" y="716" on="1"/>
        <pt x="439" y="707" on="0"/>
        <pt x="429" y="707" on="1"/>
        <pt x="409" y="707" on="1"/>
        <pt x="398" y="707" on="0"/>
        <pt x="404" y="719" on="1"/>
        <pt x="467" y="825" on="1"/>
        <pt x="472" y="836" on="0"/>
      </contour>
      <contour>
        <pt x="42" y="0" on="1"/>
        <pt x="8" y="0" on="1"/>
        <pt x="-2" y="0" on="0"/>
        <pt x="2" y="12" on="1"/>
        <pt x="341" y="631" on="1"/>
        <pt x="348" y="643" on="0"/>
        <pt x="359" y="643" on="1"/>
        <pt x="697" y="643" on="1"/>
        <pt x="708" y="643" on="0"/>
        <pt x="708" y="632" on="1"/>
        <pt x="708" y="609" on="1"/>
        <pt x="708" y="598" on="0"/>
        <pt x="697" y="598" on="1"/>
        <pt x="437" y="598" on="1"/>
        <pt x="428" y="598" on="0"/>
        <pt x="428" y="589" on="1"/>
        <pt x="428" y="359" on="1"/>
        <pt x="428" y="350" on="0"/>
        <pt x="437" y="350" on="1"/>
        <pt x="669" y="350" on="1"/>
        <pt x="680" y="350" on="0"/>
        <pt x="680" y="339" on="1"/>
        <pt x="680" y="316" on="1"/>
        <pt x="680" y="305" on="0"/>
        <pt x="669" y="305" on="1"/>
        <pt x="437" y="305" on="1"/>
        <pt x="428" y="305" on="0"/>
        <pt x="428" y="296" on="1"/>
        <pt x="428" y="54" on="1"/>
        <pt x="428" y="45" on="0"/>
        <pt x="437" y="45" on="1"/>
        <pt x="697" y="45" on="1"/>
        <pt x="708" y="45" on="0"/>
        <pt x="708" y="34" on="1"/>
        <pt x="708" y="11" on="1"/>
        <pt x="708" y="0" on="0"/>
        <pt x="697" y="0" on="1"/>
        <pt x="388" y="0" on="1"/>
        <pt x="377" y="0" on="0"/>
        <pt x="377" y="12" on="1"/>
        <pt x="377" y="172" on="1"/>
        <pt x="147" y="172" on="1"/>
        <pt x="58" y="12" on="1"/>
        <pt x="51" y="0" on="0"/>
      </contour>
      <contour>
        <pt x="377" y="219" on="1"/>
        <pt x="377" y="589" on="1"/>
        <pt x="373" y="589" on="1"/>
        <pt x="170" y="219" on="1"/>
      </contour>
    </TTGlyph>
    <TTGlyph name="Aacute" xMin="30" yMin="0" xMax="503" yMax="836">
      <contour>
        <pt x="336" y="836" on="1"/>
        <pt x="381" y="836" on="1"/>
        <pt x="386" y="836" on="0"/>
        <pt x="390" y="830" on="0"/>
        <pt x="386" y="825" on="1"/>
        <pt x="296" y="716" on="1"/>
        <pt x="290" y="707" on="0"/>
        <pt x="280" y="707" on="1"/>
        <pt x="260" y="707" on="1"/>
        <pt x="249" y="707" on="0"/>
        <pt x="255" y="719" on="1"/>
        <pt x="318" y="825" on="1"/>
        <pt x="324" y="836" on="0"/>
      </contour>
      <contour>
        <pt x="68" y="0" on="1"/>
        <pt x="37" y="0" on="1"/>
        <pt x="26" y="0" on="0"/>
        <pt x="30" y="12" on="1"/>
        <pt x="229" y="631" on="1"/>
        <pt x="232" y="643" on="0"/>
        <pt x="243" y="643" on="1"/>
        <pt x="290" y="643" on="1"/>
        <pt x="300" y="643" on="0"/>
        <pt x="304" y="631" on="1"/>
        <pt x="503" y="12" on="1"/>
        <pt x="506" y="0" on="0"/>
        <pt x="496" y="0" on="1"/>
        <pt x="464" y="0" on="1"/>
        <pt x="454" y="0" on="0"/>
        <pt x="451" y="12" on="1"/>
        <pt x="397" y="172" on="1"/>
        <pt x="135" y="172" on="1"/>
        <pt x="81" y="12" on="1"/>
        <pt x="77" y="0" on="0"/>
      </contour>
      <contour>
        <pt x="264" y="588" on="1"/>
        <pt x="149" y="217" on="1"/>
        <pt x="384" y="217" on="1"/>
        <pt x="268" y="588" on="1"/>
      </contour>
    </TTGlyph>
    <TTGlyph name="Abreve" xMin="30" yMin="0" xMax="503" yMax="836">
      <contour>
        <pt x="166" y="826" on="1"/>
        <pt x="166" y="836" on="0"/>
        <pt x="175" y="836" on="1"/>
        <pt x="194" y="836" on="1"/>
        <pt x="203" y="836" on="0"/>
        <pt x="203" y="826" on="1"/>
        <pt x="203" y="815" on="1"/>
        <pt x="203" y="772" on="0"/>
        <pt x="230" y="738" on="0"/>
        <pt x="263" y="738" on="1"/>
        <pt x="268" y="738" on="1"/>
        <pt x="302" y="738" on="0"/>
        <pt x="330" y="773" on="0"/>
        <pt x="330" y="815" on="1"/>
        <pt x="330" y="825" on="1"/>
        <pt x="330" y="835" on="0"/>
        <pt x="339" y="835" on="1"/>
        <pt x="356" y="835" on="1"/>
        <pt x="366" y="835" on="0"/>
        <pt x="366" y="825" on="1"/>
        <pt x="366" y="814" on="1"/>
        <pt x="366" y="707" on="0"/>
        <pt x="271" y="707" on="1"/>
        <pt x="260" y="707" on="1"/>
        <pt x="166" y="707" on="0"/>
        <pt x="166" y="814" on="1"/>
      </contour>
      <contour>
        <pt x="68" y="0" on="1"/>
        <pt x="37" y="0" on="1"/>
        <pt x="26" y="0" on="0"/>
        <pt x="30" y="12" on="1"/>
        <pt x="229" y="631" on="1"/>
        <pt x="232" y="643" on="0"/>
        <pt x="243" y="643" on="1"/>
        <pt x="290" y="643" on="1"/>
        <pt x="300" y="643" on="0"/>
        <pt x="304" y="631" on="1"/>
        <pt x="503" y="12" on="1"/>
        <pt x="506" y="0" on="0"/>
        <pt x="496" y="0" on="1"/>
        <pt x="464" y="0" on="1"/>
        <pt x="454" y="0" on="0"/>
        <pt x="451" y="12" on="1"/>
        <pt x="397" y="172" on="1"/>
        <pt x="135" y="172" on="1"/>
        <pt x="81" y="12" on="1"/>
        <pt x="77" y="0" on="0"/>
      </contour>
      <contour>
        <pt x="264" y="588" on="1"/>
        <pt x="149" y="217" on="1"/>
        <pt x="384" y="217" on="1"/>
        <pt x="268" y="588" on="1"/>
      </contour>
    </TTGlyph>
    <TTGlyph name="Acircumflex" xMin="30" yMin="0" xMax="503" yMax="836">
      <contour>
        <pt x="356" y="707" on="1"/>
        <pt x="332" y="707" on="1"/>
        <pt x="322" y="707" on="0"/>
        <pt x="320" y="713" on="1"/>
        <pt x="266" y="810" on="1"/>
        <pt x="213" y="713" on="1"/>
        <pt x="211" y="707" on="0"/>
        <pt x="201" y="707" on="1"/>
        <pt x="177" y="707" on="1"/>
        <pt x="165" y="707" on="0"/>
        <pt x="172" y="718" on="1"/>
        <pt x="236" y="827" on="1"/>
        <pt x="242" y="836" on="0"/>
        <pt x="255" y="836" on="1"/>
        <pt x="277" y="836" on="1"/>
        <pt x="291" y="836" on="0"/>
        <pt x="297" y="827" on="1"/>
        <pt x="360" y="718" on="1"/>
        <pt x="367" y="707" on="0"/>
      </contour>
      <contour>
        <pt x="68" y="0" on="1"/>
        <pt x="37" y="0" on="1"/>
        <pt x="26" y="0" on="0"/>
        <pt x="30" y="12" on="1"/>
        <pt x="229" y="631" on="1"/>
        <pt x="232" y="643" on="0"/>
        <pt x="243" y="643" on="1"/>
        <pt x="290" y="643" on="1"/>
        <pt x="300" y="643" on="0"/>
        <pt x="304" y="631" on="1"/>
        <pt x="503" y="12" on="1"/>
        <pt x="506" y="0" on="0"/>
        <pt x="496" y="0" on="1"/>
        <pt x="464" y="0" on="1"/>
        <pt x="454" y="0" on="0"/>
        <pt x="451" y="12" on="1"/>
        <pt x="397" y="172" on="1"/>
        <pt x="135" y="172" on="1"/>
        <pt x="81" y="12" on="1"/>
        <pt x="77" y="0" on="0"/>
      </contour>
      <contour>
        <pt x="264" y="588" on="1"/>
        <pt x="149" y="217" on="1"/>
        <pt x="384" y="217" on="1"/>
        <pt x="268" y="588" on="1"/>
      </contour>
    </TTGlyph>
    <TTGlyph name="Adieresis" xMin="30" yMin="0" xMax="503" yMax="836">
      <contour>
        <pt x="160" y="719" on="1"/>
        <pt x="160" y="825" on="1"/>
        <pt x="160" y="836" on="0"/>
        <pt x="171" y="836" on="1"/>
        <pt x="199" y="836" on="1"/>
        <pt x="209" y="836" on="0"/>
        <pt x="209" y="825" on="1"/>
        <pt x="209" y="719" on="1"/>
        <pt x="209" y="707" on="0"/>
        <pt x="199" y="707" on="1"/>
        <pt x="171" y="707" on="1"/>
        <pt x="160" y="707" on="0"/>
      </contour>
      <contour>
        <pt x="323" y="719" on="1"/>
        <pt x="323" y="825" on="1"/>
        <pt x="323" y="836" on="0"/>
        <pt x="334" y="836" on="1"/>
        <pt x="362" y="836" on="1"/>
        <pt x="372" y="836" on="0"/>
        <pt x="372" y="825" on="1"/>
        <pt x="372" y="719" on="1"/>
        <pt x="372" y="707" on="0"/>
        <pt x="362" y="707" on="1"/>
        <pt x="334" y="707" on="1"/>
        <pt x="323" y="707" on="0"/>
      </contour>
      <contour>
        <pt x="68" y="0" on="1"/>
        <pt x="37" y="0" on="1"/>
        <pt x="26" y="0" on="0"/>
        <pt x="30" y="12" on="1"/>
        <pt x="229" y="631" on="1"/>
        <pt x="232" y="643" on="0"/>
        <pt x="243" y="643" on="1"/>
        <pt x="290" y="643" on="1"/>
        <pt x="300" y="643" on="0"/>
        <pt x="304" y="631" on="1"/>
        <pt x="503" y="12" on="1"/>
        <pt x="506" y="0" on="0"/>
        <pt x="496" y="0" on="1"/>
        <pt x="464" y="0" on="1"/>
        <pt x="454" y="0" on="0"/>
        <pt x="451" y="12" on="1"/>
        <pt x="397" y="172" on="1"/>
        <pt x="135" y="172" on="1"/>
        <pt x="81" y="12" on="1"/>
        <pt x="77" y="0" on="0"/>
      </contour>
      <contour>
        <pt x="264" y="588" on="1"/>
        <pt x="149" y="217" on="1"/>
        <pt x="384" y="217" on="1"/>
        <pt x="268" y="588" on="1"/>
      </contour>
    </TTGlyph>
    <TTGlyph name="Agrave" xMin="30" yMin="0" xMax="503" yMax="836">
      <contour>
        <pt x="273" y="707" on="1"/>
        <pt x="252" y="707" on="1"/>
        <pt x="242" y="707" on="0"/>
        <pt x="236" y="716" on="1"/>
        <pt x="146" y="825" on="1"/>
        <pt x="142" y="830" on="0"/>
        <pt x="147" y="836" on="0"/>
        <pt x="152" y="836" on="1"/>
        <pt x="196" y="836" on="1"/>
        <pt x="208" y="836" on="0"/>
        <pt x="214" y="825" on="1"/>
        <pt x="277" y="719" on="1"/>
        <pt x="283" y="707" on="0"/>
      </contour>
      <contour>
        <pt x="68" y="0" on="1"/>
        <pt x="37" y="0" on="1"/>
        <pt x="26" y="0" on="0"/>
        <pt x="30" y="12" on="1"/>
        <pt x="229" y="631" on="1"/>
        <pt x="232" y="643" on="0"/>
        <pt x="243" y="643" on="1"/>
        <pt x="290" y="643" on="1"/>
        <pt x="300" y="643" on="0"/>
        <pt x="304" y="631" on="1"/>
        <pt x="503" y="12" on="1"/>
        <pt x="506" y="0" on="0"/>
        <pt x="496" y="0" on="1"/>
        <pt x="464" y="0" on="1"/>
        <pt x="454" y="0" on="0"/>
        <pt x="451" y="12" on="1"/>
        <pt x="397" y="172" on="1"/>
        <pt x="135" y="172" on="1"/>
        <pt x="81" y="12" on="1"/>
        <pt x="77" y="0" on="0"/>
      </contour>
      <contour>
        <pt x="264" y="588" on="1"/>
        <pt x="149" y="217" on="1"/>
        <pt x="384" y="217" on="1"/>
        <pt x="268" y="588" on="1"/>
      </contour>
    </TTGlyph>
    <TTGlyph name="Amacron" xMin="30" yMin="0" xMax="503" yMax="792">
      <contour>
        <pt x="368" y="752" on="1"/>
        <pt x="165" y="752" on="1"/>
        <pt x="153" y="752" on="0"/>
        <pt x="153" y="762" on="1"/>
        <pt x="153" y="781" on="1"/>
        <pt x="153" y="792" on="0"/>
        <pt x="165" y="792" on="1"/>
        <pt x="368" y="792" on="1"/>
        <pt x="379" y="792" on="0"/>
        <pt x="379" y="781" on="1"/>
        <pt x="379" y="762" on="1"/>
        <pt x="379" y="752" on="0"/>
      </contour>
      <contour>
        <pt x="68" y="0" on="1"/>
        <pt x="37" y="0" on="1"/>
        <pt x="26" y="0" on="0"/>
        <pt x="30" y="12" on="1"/>
        <pt x="229" y="631" on="1"/>
        <pt x="232" y="643" on="0"/>
        <pt x="243" y="643" on="1"/>
        <pt x="290" y="643" on="1"/>
        <pt x="300" y="643" on="0"/>
        <pt x="304" y="631" on="1"/>
        <pt x="503" y="12" on="1"/>
        <pt x="506" y="0" on="0"/>
        <pt x="496" y="0" on="1"/>
        <pt x="464" y="0" on="1"/>
        <pt x="454" y="0" on="0"/>
        <pt x="451" y="12" on="1"/>
        <pt x="397" y="172" on="1"/>
        <pt x="135" y="172" on="1"/>
        <pt x="81" y="12" on="1"/>
        <pt x="77" y="0" on="0"/>
      </contour>
      <contour>
        <pt x="264" y="588" on="1"/>
        <pt x="149" y="217" on="1"/>
        <pt x="384" y="217" on="1"/>
        <pt x="268" y="588" on="1"/>
      </contour>
    </TTGlyph>
    <TTGlyph name="Aogonek" xMin="30" yMin="-106" xMax="503" yMax="643">
      <contour>
        <pt x="496" y="0" on="1"/>
        <pt x="470" y="0" on="1"/>
        <pt x="418" y="-70" on="1"/>
        <pt x="456" y="-70" on="1"/>
        <pt x="473" y="-70" on="0"/>
        <pt x="484" y="-75" on="0"/>
        <pt x="484" y="-93" on="0"/>
        <pt x="440" y="-106" on="0"/>
        <pt x="386" y="-106" on="0"/>
        <pt x="373" y="-81" on="0"/>
        <pt x="385" y="-66" on="1"/>
        <pt x="449" y="18" on="1"/>
        <pt x="397" y="172" on="1"/>
        <pt x="135" y="172" on="1"/>
        <pt x="81" y="12" on="1"/>
        <pt x="77" y="0" on="0"/>
        <pt x="68" y="0" on="1"/>
        <pt x="37" y="0" on="1"/>
        <pt x="26" y="0" on="0"/>
        <pt x="30" y="12" on="1"/>
        <pt x="229" y="631" on="1"/>
        <pt x="232" y="643" on="0"/>
        <pt x="243" y="643" on="1"/>
        <pt x="290" y="643" on="1"/>
        <pt x="300" y="643" on="0"/>
        <pt x="304" y="631" on="1"/>
        <pt x="503" y="12" on="1"/>
        <pt x="506" y="0" on="0"/>
      </contour>
      <contour>
        <pt x="149" y="217" on="1"/>
        <pt x="384" y="217" on="1"/>
        <pt x="268" y="588" on="1"/>
        <pt x="264" y="588" on="1"/>
      </contour>
    </TTGlyph>
    <TTGlyph name="Aring" xMin="30" yMin="0" xMax="503" yMax="872">
      <contour>
        <pt x="274" y="695" on="1"/>
        <pt x="255" y="695" on="1"/>
        <pt x="183" y="695" on="0"/>
        <pt x="183" y="768" on="1"/>
        <pt x="183" y="799" on="1"/>
        <pt x="183" y="872" on="0"/>
        <pt x="255" y="872" on="1"/>
        <pt x="274" y="872" on="1"/>
        <pt x="309" y="872" on="0"/>
        <pt x="348" y="834" on="0"/>
        <pt x="348" y="799" on="1"/>
        <pt x="348" y="768" on="1"/>
        <pt x="348" y="733" on="0"/>
        <pt x="309" y="695" on="0"/>
      </contour>
      <contour>
        <pt x="259" y="722" on="1"/>
        <pt x="270" y="722" on="1"/>
        <pt x="317" y="722" on="0"/>
        <pt x="317" y="773" on="1"/>
        <pt x="317" y="794" on="1"/>
        <pt x="317" y="844" on="0"/>
        <pt x="270" y="844" on="1"/>
        <pt x="259" y="844" on="1"/>
        <pt x="213" y="844" on="0"/>
        <pt x="213" y="794" on="1"/>
        <pt x="213" y="773" on="1"/>
        <pt x="213" y="722" on="0"/>
      </contour>
      <contour>
        <pt x="68" y="0" on="1"/>
        <pt x="37" y="0" on="1"/>
        <pt x="26" y="0" on="0"/>
        <pt x="30" y="12" on="1"/>
        <pt x="229" y="631" on="1"/>
        <pt x="232" y="643" on="0"/>
        <pt x="243" y="643" on="1"/>
        <pt x="290" y="643" on="1"/>
        <pt x="300" y="643" on="0"/>
        <pt x="304" y="631" on="1"/>
        <pt x="503" y="12" on="1"/>
        <pt x="506" y="0" on="0"/>
        <pt x="496" y="0" on="1"/>
        <pt x="464" y="0" on="1"/>
        <pt x="454" y="0" on="0"/>
        <pt x="451" y="12" on="1"/>
        <pt x="397" y="172" on="1"/>
        <pt x="135" y="172" on="1"/>
        <pt x="81" y="12" on="1"/>
        <pt x="77" y="0" on="0"/>
      </contour>
      <contour>
        <pt x="264" y="588" on="1"/>
        <pt x="149" y="217" on="1"/>
        <pt x="384" y="217" on="1"/>
        <pt x="268" y="588" on="1"/>
      </contour>
    </TTGlyph>
    <TTGlyph name="Atilde" xMin="30" yMin="0" xMax="503" yMax="831">
      <contour>
        <pt x="268" y="724" on="0"/>
        <pt x="241" y="702" on="0"/>
        <pt x="185" y="702" on="0"/>
        <pt x="160" y="739" on="0"/>
        <pt x="160" y="780" on="1"/>
        <pt x="160" y="819" on="1"/>
        <pt x="160" y="828" on="0"/>
        <pt x="168" y="828" on="1"/>
        <pt x="182" y="828" on="1"/>
        <pt x="191" y="828" on="0"/>
        <pt x="191" y="819" on="1"/>
        <pt x="191" y="786" on="1"/>
        <pt x="191" y="755" on="0"/>
        <pt x="202" y="733" on="0"/>
        <pt x="232" y="733" on="0"/>
        <pt x="245" y="751" on="0"/>
        <pt x="268" y="812" on="0"/>
        <pt x="291" y="831" on="0"/>
        <pt x="348" y="831" on="0"/>
        <pt x="373" y="794" on="0"/>
        <pt x="373" y="754" on="1"/>
        <pt x="373" y="713" on="1"/>
        <pt x="373" y="703" on="0"/>
        <pt x="365" y="703" on="1"/>
        <pt x="351" y="703" on="1"/>
        <pt x="342" y="703" on="0"/>
        <pt x="342" y="713" on="1"/>
        <pt x="342" y="747" on="1"/>
        <pt x="342" y="779" on="0"/>
        <pt x="331" y="801" on="0"/>
        <pt x="300" y="801" on="0"/>
        <pt x="289" y="786" on="0"/>
      </contour>
      <contour>
        <pt x="68" y="0" on="1"/>
        <pt x="37" y="0" on="1"/>
        <pt x="26" y="0" on="0"/>
        <pt x="30" y="12" on="1"/>
        <pt x="229" y="631" on="1"/>
        <pt x="232" y="643" on="0"/>
        <pt x="243" y="643" on="1"/>
        <pt x="290" y="643" on="1"/>
        <pt x="300" y="643" on="0"/>
        <pt x="304" y="631" on="1"/>
        <pt x="503" y="12" on="1"/>
        <pt x="506" y="0" on="0"/>
        <pt x="496" y="0" on="1"/>
        <pt x="464" y="0" on="1"/>
        <pt x="454" y="0" on="0"/>
        <pt x="451" y="12" on="1"/>
        <pt x="397" y="172" on="1"/>
        <pt x="135" y="172" on="1"/>
        <pt x="81" y="12" on="1"/>
        <pt x="77" y="0" on="0"/>
      </contour>
      <contour>
        <pt x="264" y="588" on="1"/>
        <pt x="149" y="217" on="1"/>
        <pt x="384" y="217" on="1"/>
        <pt x="268" y="588" on="1"/>
      </contour>
    </TTGlyph>
    <TTGlyph name="B" xMin="85" yMin="0" xMax="476" yMax="643">
      <contour>
        <pt x="145" y="44" on="1"/>
        <pt x="331" y="44" on="1"/>
        <pt x="426" y="44" on="0"/>
        <pt x="426" y="140" on="1"/>
        <pt x="426" y="209" on="1"/>
        <pt x="426" y="304" on="0"/>
        <pt x="322" y="304" on="1"/>
        <pt x="145" y="304" on="1"/>
        <pt x="135" y="304" on="0"/>
        <pt x="135" y="296" on="1"/>
        <pt x="135" y="53" on="1"/>
        <pt x="135" y="44" on="0"/>
      </contour>
      <contour>
        <pt x="145" y="348" on="1"/>
        <pt x="321" y="348" on="1"/>
        <pt x="368" y="348" on="0"/>
        <pt x="419" y="398" on="0"/>
        <pt x="419" y="444" on="1"/>
        <pt x="419" y="503" on="1"/>
        <pt x="419" y="599" on="0"/>
        <pt x="324" y="599" on="1"/>
        <pt x="145" y="599" on="1"/>
        <pt x="135" y="599" on="0"/>
        <pt x="135" y="590" on="1"/>
        <pt x="135" y="357" on="1"/>
        <pt x="135" y="348" on="0"/>
      </contour>
      <contour>
        <pt x="85" y="12" on="1"/>
        <pt x="85" y="631" on="1"/>
        <pt x="85" y="643" on="0"/>
        <pt x="95" y="643" on="1"/>
        <pt x="328" y="643" on="1"/>
        <pt x="393" y="643" on="0"/>
        <pt x="469" y="569" on="0"/>
        <pt x="469" y="504" on="1"/>
        <pt x="469" y="443" on="1"/>
        <pt x="469" y="352" on="0"/>
        <pt x="383" y="326" on="1"/>
        <pt x="420" y="324" on="0"/>
        <pt x="476" y="260" on="0"/>
        <pt x="476" y="209" on="1"/>
        <pt x="476" y="139" on="1"/>
        <pt x="476" y="74" on="0"/>
        <pt x="400" y="0" on="0"/>
        <pt x="335" y="0" on="1"/>
        <pt x="95" y="0" on="1"/>
        <pt x="85" y="0" on="0"/>
      </contour>
    </TTGlyph>
    <TTGlyph name="C" xMin="75" yMin="0" xMax="481" yMax="643">
      <contour>
        <pt x="341" y="0" on="1"/>
        <pt x="215" y="0" on="1"/>
        <pt x="150" y="0" on="0"/>
        <pt x="75" y="76" on="0"/>
        <pt x="75" y="142" on="1"/>
        <pt x="75" y="501" on="1"/>
        <pt x="75" y="567" on="0"/>
        <pt x="150" y="643" on="0"/>
        <pt x="215" y="643" on="1"/>
        <pt x="341" y="643" on="1"/>
        <pt x="406" y="643" on="0"/>
        <pt x="481" y="567" on="0"/>
        <pt x="481" y="501" on="1"/>
        <pt x="481" y="452" on="1"/>
        <pt x="481" y="440" on="0"/>
        <pt x="470" y="440" on="1"/>
        <pt x="442" y="440" on="1"/>
        <pt x="431" y="440" on="0"/>
        <pt x="431" y="452" on="1"/>
        <pt x="431" y="499" on="1"/>
        <pt x="431" y="547" on="0"/>
        <pt x="382" y="598" on="0"/>
        <pt x="336" y="598" on="1"/>
        <pt x="219" y="598" on="1"/>
        <pt x="173" y="598" on="0"/>
        <pt x="125" y="546" on="0"/>
        <pt x="125" y="499" on="1"/>
        <pt x="125" y="144" on="1"/>
        <pt x="125" y="97" on="0"/>
        <pt x="173" y="45" on="0"/>
        <pt x="219" y="45" on="1"/>
        <pt x="336" y="45" on="1"/>
        <pt x="382" y="45" on="0"/>
        <pt x="431" y="96" on="0"/>
        <pt x="431" y="144" on="1"/>
        <pt x="431" y="191" on="1"/>
        <pt x="431" y="203" on="0"/>
        <pt x="442" y="203" on="1"/>
        <pt x="470" y="203" on="1"/>
        <pt x="481" y="203" on="0"/>
        <pt x="481" y="191" on="1"/>
        <pt x="481" y="142" on="1"/>
        <pt x="481" y="76" on="0"/>
        <pt x="406" y="0" on="0"/>
      </contour>
    </TTGlyph>
    <TTGlyph name="Cacute" xMin="75" yMin="0" xMax="481" yMax="836">
      <contour>
        <pt x="341" y="0" on="1"/>
        <pt x="215" y="0" on="1"/>
        <pt x="150" y="0" on="0"/>
        <pt x="75" y="76" on="0"/>
        <pt x="75" y="142" on="1"/>
        <pt x="75" y="501" on="1"/>
        <pt x="75" y="567" on="0"/>
        <pt x="150" y="643" on="0"/>
        <pt x="215" y="643" on="1"/>
        <pt x="341" y="643" on="1"/>
        <pt x="406" y="643" on="0"/>
        <pt x="481" y="567" on="0"/>
        <pt x="481" y="501" on="1"/>
        <pt x="481" y="452" on="1"/>
        <pt x="481" y="440" on="0"/>
        <pt x="470" y="440" on="1"/>
        <pt x="442" y="440" on="1"/>
        <pt x="431" y="440" on="0"/>
        <pt x="431" y="452" on="1"/>
        <pt x="431" y="499" on="1"/>
        <pt x="431" y="547" on="0"/>
        <pt x="382" y="598" on="0"/>
        <pt x="336" y="598" on="1"/>
        <pt x="219" y="598" on="1"/>
        <pt x="173" y="598" on="0"/>
        <pt x="125" y="546" on="0"/>
        <pt x="125" y="499" on="1"/>
        <pt x="125" y="144" on="1"/>
        <pt x="125" y="97" on="0"/>
        <pt x="173" y="45" on="0"/>
        <pt x="219" y="45" on="1"/>
        <pt x="336" y="45" on="1"/>
        <pt x="382" y="45" on="0"/>
        <pt x="431" y="96" on="0"/>
        <pt x="431" y="144" on="1"/>
        <pt x="431" y="191" on="1"/>
        <pt x="431" y="203" on="0"/>
        <pt x="442" y="203" on="1"/>
        <pt x="470" y="203" on="1"/>
        <pt x="481" y="203" on="0"/>
        <pt x="481" y="191" on="1"/>
        <pt x="481" y="142" on="1"/>
        <pt x="481" y="76" on="0"/>
        <pt x="406" y="0" on="0"/>
      </contour>
      <contour>
        <pt x="337" y="836" on="1"/>
        <pt x="381" y="836" on="1"/>
        <pt x="386" y="836" on="0"/>
        <pt x="390" y="830" on="0"/>
        <pt x="386" y="825" on="1"/>
        <pt x="297" y="716" on="1"/>
        <pt x="290" y="707" on="0"/>
        <pt x="280" y="707" on="1"/>
        <pt x="260" y="707" on="1"/>
        <pt x="249" y="707" on="0"/>
        <pt x="255" y="719" on="1"/>
        <pt x="318" y="825" on="1"/>
        <pt x="324" y="836" on="0"/>
      </contour>
    </TTGlyph>
    <TTGlyph name="Ccaron" xMin="75" yMin="0" xMax="481" yMax="836">
      <contour>
        <pt x="341" y="0" on="1"/>
        <pt x="215" y="0" on="1"/>
        <pt x="150" y="0" on="0"/>
        <pt x="75" y="76" on="0"/>
        <pt x="75" y="142" on="1"/>
        <pt x="75" y="501" on="1"/>
        <pt x="75" y="567" on="0"/>
        <pt x="150" y="643" on="0"/>
        <pt x="215" y="643" on="1"/>
        <pt x="341" y="643" on="1"/>
        <pt x="406" y="643" on="0"/>
        <pt x="481" y="567" on="0"/>
        <pt x="481" y="501" on="1"/>
        <pt x="481" y="452" on="1"/>
        <pt x="481" y="440" on="0"/>
        <pt x="470" y="440" on="1"/>
        <pt x="442" y="440" on="1"/>
        <pt x="431" y="440" on="0"/>
        <pt x="431" y="452" on="1"/>
        <pt x="431" y="499" on="1"/>
        <pt x="431" y="547" on="0"/>
        <pt x="382" y="598" on="0"/>
        <pt x="336" y="598" on="1"/>
        <pt x="219" y="598" on="1"/>
        <pt x="173" y="598" on="0"/>
        <pt x="125" y="546" on="0"/>
        <pt x="125" y="499" on="1"/>
        <pt x="125" y="144" on="1"/>
        <pt x="125" y="97" on="0"/>
        <pt x="173" y="45" on="0"/>
        <pt x="219" y="45" on="1"/>
        <pt x="336" y="45" on="1"/>
        <pt x="382" y="45" on="0"/>
        <pt x="431" y="96" on="0"/>
        <pt x="431" y="144" on="1"/>
        <pt x="431" y="191" on="1"/>
        <pt x="431" y="203" on="0"/>
        <pt x="442" y="203" on="1"/>
        <pt x="470" y="203" on="1"/>
        <pt x="481" y="203" on="0"/>
        <pt x="481" y="191" on="1"/>
        <pt x="481" y="142" on="1"/>
        <pt x="481" y="76" on="0"/>
        <pt x="406" y="0" on="0"/>
      </contour>
      <contour>
        <pt x="289" y="707" on="1"/>
        <pt x="268" y="707" on="1"/>
        <pt x="254" y="707" on="0"/>
        <pt x="248" y="716" on="1"/>
        <pt x="185" y="825" on="1"/>
        <pt x="178" y="836" on="0"/>
        <pt x="190" y="836" on="1"/>
        <pt x="213" y="836" on="1"/>
        <pt x="223" y="836" on="0"/>
        <pt x="225" y="830" on="1"/>
        <pt x="279" y="733" on="1"/>
        <pt x="332" y="830" on="1"/>
        <pt x="336" y="836" on="0"/>
        <pt x="345" y="836" on="1"/>
        <pt x="368" y="836" on="1"/>
        <pt x="380" y="836" on="0"/>
        <pt x="373" y="825" on="1"/>
        <pt x="309" y="716" on="1"/>
        <pt x="303" y="707" on="0"/>
      </contour>
    </TTGlyph>
    <TTGlyph name="Ccedilla" xMin="75" yMin="-185" xMax="481" yMax="643">
      <contour>
        <pt x="470" y="440" on="1"/>
        <pt x="442" y="440" on="1"/>
        <pt x="431" y="440" on="0"/>
        <pt x="431" y="452" on="1"/>
        <pt x="431" y="499" on="1"/>
        <pt x="431" y="547" on="0"/>
        <pt x="382" y="598" on="0"/>
        <pt x="336" y="598" on="1"/>
        <pt x="219" y="598" on="1"/>
        <pt x="173" y="598" on="0"/>
        <pt x="125" y="546" on="0"/>
        <pt x="125" y="499" on="1"/>
        <pt x="125" y="144" on="1"/>
        <pt x="125" y="97" on="0"/>
        <pt x="173" y="45" on="0"/>
        <pt x="219" y="45" on="1"/>
        <pt x="336" y="45" on="1"/>
        <pt x="382" y="45" on="0"/>
        <pt x="431" y="96" on="0"/>
        <pt x="431" y="144" on="1"/>
        <pt x="431" y="191" on="1"/>
        <pt x="431" y="203" on="0"/>
        <pt x="442" y="203" on="1"/>
        <pt x="470" y="203" on="1"/>
        <pt x="481" y="203" on="0"/>
        <pt x="481" y="191" on="1"/>
        <pt x="481" y="142" on="1"/>
        <pt x="481" y="76" on="0"/>
        <pt x="406" y="0" on="0"/>
        <pt x="341" y="0" on="1"/>
        <pt x="321" y="0" on="1"/>
        <pt x="275" y="-48" on="1"/>
        <pt x="275" y="-52" on="1"/>
        <pt x="315" y="-52" on="0"/>
        <pt x="353" y="-80" on="0"/>
        <pt x="353" y="-113" on="1"/>
        <pt x="353" y="-125" on="1"/>
        <pt x="353" y="-185" on="0"/>
        <pt x="271" y="-185" on="1"/>
        <pt x="246" y="-185" on="1"/>
        <pt x="236" y="-185" on="0"/>
        <pt x="236" y="-174" on="1"/>
        <pt x="236" y="-162" on="1"/>
        <pt x="236" y="-152" on="0"/>
        <pt x="246" y="-152" on="1"/>
        <pt x="266" y="-152" on="1"/>
        <pt x="295" y="-152" on="0"/>
        <pt x="319" y="-138" on="0"/>
        <pt x="319" y="-120" on="1"/>
        <pt x="319" y="-118" on="1"/>
        <pt x="319" y="-99" on="0"/>
        <pt x="296" y="-85" on="0"/>
        <pt x="266" y="-85" on="1"/>
        <pt x="254" y="-85" on="1"/>
        <pt x="236" y="-85" on="0"/>
        <pt x="225" y="-58" on="0"/>
        <pt x="237" y="-45" on="1"/>
        <pt x="278" y="0" on="1"/>
        <pt x="215" y="0" on="1"/>
        <pt x="150" y="0" on="0"/>
        <pt x="75" y="76" on="0"/>
        <pt x="75" y="142" on="1"/>
        <pt x="75" y="501" on="1"/>
        <pt x="75" y="567" on="0"/>
        <pt x="150" y="643" on="0"/>
        <pt x="215" y="643" on="1"/>
        <pt x="341" y="643" on="1"/>
        <pt x="406" y="643" on="0"/>
        <pt x="481" y="567" on="0"/>
        <pt x="481" y="501" on="1"/>
        <pt x="481" y="452" on="1"/>
        <pt x="481" y="440" on="0"/>
      </contour>
    </TTGlyph>
    <TTGlyph name="Cdotaccent" xMin="75" yMin="0" xMax="481" yMax="833">
      <contour>
        <pt x="341" y="0" on="1"/>
        <pt x="215" y="0" on="1"/>
        <pt x="150" y="0" on="0"/>
        <pt x="75" y="76" on="0"/>
        <pt x="75" y="142" on="1"/>
        <pt x="75" y="501" on="1"/>
        <pt x="75" y="567" on="0"/>
        <pt x="150" y="643" on="0"/>
        <pt x="215" y="643" on="1"/>
        <pt x="341" y="643" on="1"/>
        <pt x="406" y="643" on="0"/>
        <pt x="481" y="567" on="0"/>
        <pt x="481" y="501" on="1"/>
        <pt x="481" y="452" on="1"/>
        <pt x="481" y="440" on="0"/>
        <pt x="470" y="440" on="1"/>
        <pt x="442" y="440" on="1"/>
        <pt x="431" y="440" on="0"/>
        <pt x="431" y="452" on="1"/>
        <pt x="431" y="499" on="1"/>
        <pt x="431" y="547" on="0"/>
        <pt x="382" y="598" on="0"/>
        <pt x="336" y="598" on="1"/>
        <pt x="219" y="598" on="1"/>
        <pt x="173" y="598" on="0"/>
        <pt x="125" y="546" on="0"/>
        <pt x="125" y="499" on="1"/>
        <pt x="125" y="144" on="1"/>
        <pt x="125" y="97" on="0"/>
        <pt x="173" y="45" on="0"/>
        <pt x="219" y="45" on="1"/>
        <pt x="336" y="45" on="1"/>
        <pt x="382" y="45" on="0"/>
        <pt x="431" y="96" on="0"/>
        <pt x="431" y="144" on="1"/>
        <pt x="431" y="191" on="1"/>
        <pt x="431" y="203" on="0"/>
        <pt x="442" y="203" on="1"/>
        <pt x="470" y="203" on="1"/>
        <pt x="481" y="203" on="0"/>
        <pt x="481" y="191" on="1"/>
        <pt x="481" y="142" on="1"/>
        <pt x="481" y="76" on="0"/>
        <pt x="406" y="0" on="0"/>
      </contour>
      <contour>
        <pt x="253" y="723" on="1"/>
        <pt x="253" y="821" on="1"/>
        <pt x="253" y="833" on="0"/>
        <pt x="263" y="833" on="1"/>
        <pt x="293" y="833" on="1"/>
        <pt x="303" y="833" on="0"/>
        <pt x="303" y="822" on="1"/>
        <pt x="303" y="723" on="1"/>
        <pt x="303" y="712" on="0"/>
        <pt x="293" y="712" on="1"/>
        <pt x="263" y="712" on="1"/>
        <pt x="253" y="712" on="0"/>
      </contour>
    </TTGlyph>
    <TTGlyph name="D" xMin="85" yMin="0" xMax="482" yMax="643">
      <contour>
        <pt x="145" y="45" on="1"/>
        <pt x="337" y="45" on="1"/>
        <pt x="383" y="45" on="0"/>
        <pt x="432" y="96" on="0"/>
        <pt x="432" y="144" on="1"/>
        <pt x="432" y="499" on="1"/>
        <pt x="432" y="547" on="0"/>
        <pt x="383" y="598" on="0"/>
        <pt x="337" y="598" on="1"/>
        <pt x="145" y="598" on="1"/>
        <pt x="135" y="598" on="0"/>
        <pt x="135" y="589" on="1"/>
        <pt x="135" y="54" on="1"/>
        <pt x="135" y="45" on="0"/>
      </contour>
      <contour>
        <pt x="85" y="12" on="1"/>
        <pt x="85" y="631" on="1"/>
        <pt x="85" y="643" on="0"/>
        <pt x="95" y="643" on="1"/>
        <pt x="342" y="643" on="1"/>
        <pt x="407" y="643" on="0"/>
        <pt x="482" y="567" on="0"/>
        <pt x="482" y="501" on="1"/>
        <pt x="482" y="142" on="1"/>
        <pt x="482" y="76" on="0"/>
        <pt x="407" y="0" on="0"/>
        <pt x="342" y="0" on="1"/>
        <pt x="95" y="0" on="1"/>
        <pt x="85" y="0" on="0"/>
      </contour>
    </TTGlyph>
    <TTGlyph name="Dcaron" xMin="85" yMin="0" xMax="482" yMax="836">
      <contour>
        <pt x="264" y="707" on="1"/>
        <pt x="250" y="707" on="0"/>
        <pt x="244" y="716" on="1"/>
        <pt x="180" y="825" on="1"/>
        <pt x="173" y="836" on="0"/>
        <pt x="185" y="836" on="1"/>
        <pt x="208" y="836" on="1"/>
        <pt x="217" y="836" on="0"/>
        <pt x="221" y="830" on="1"/>
        <pt x="274" y="733" on="1"/>
        <pt x="328" y="830" on="1"/>
        <pt x="330" y="836" on="0"/>
        <pt x="340" y="836" on="1"/>
        <pt x="364" y="836" on="1"/>
        <pt x="375" y="836" on="0"/>
        <pt x="368" y="825" on="1"/>
        <pt x="305" y="716" on="1"/>
        <pt x="299" y="707" on="0"/>
        <pt x="285" y="707" on="1"/>
      </contour>
      <contour>
        <pt x="145" y="45" on="1"/>
        <pt x="337" y="45" on="1"/>
        <pt x="383" y="45" on="0"/>
        <pt x="432" y="96" on="0"/>
        <pt x="432" y="144" on="1"/>
        <pt x="432" y="499" on="1"/>
        <pt x="432" y="547" on="0"/>
        <pt x="383" y="598" on="0"/>
        <pt x="337" y="598" on="1"/>
        <pt x="145" y="598" on="1"/>
        <pt x="135" y="598" on="0"/>
        <pt x="135" y="589" on="1"/>
        <pt x="135" y="54" on="1"/>
        <pt x="135" y="45" on="0"/>
      </contour>
      <contour>
        <pt x="85" y="12" on="1"/>
        <pt x="85" y="631" on="1"/>
        <pt x="85" y="643" on="0"/>
        <pt x="95" y="643" on="1"/>
        <pt x="342" y="643" on="1"/>
        <pt x="407" y="643" on="0"/>
        <pt x="482" y="567" on="0"/>
        <pt x="482" y="501" on="1"/>
        <pt x="482" y="142" on="1"/>
        <pt x="482" y="76" on="0"/>
        <pt x="407" y="0" on="0"/>
        <pt x="342" y="0" on="1"/>
        <pt x="95" y="0" on="1"/>
        <pt x="85" y="0" on="0"/>
      </contour>
    </TTGlyph>
    <TTGlyph name="Dcroat" xMin="25" yMin="0" xMax="485" yMax="643">
      <contour>
        <pt x="147" y="45" on="1"/>
        <pt x="340" y="45" on="1"/>
        <pt x="386" y="45" on="0"/>
        <pt x="435" y="96" on="0"/>
        <pt x="435" y="144" on="1"/>
        <pt x="435" y="499" on="1"/>
        <pt x="435" y="547" on="0"/>
        <pt x="386" y="598" on="0"/>
        <pt x="340" y="598" on="1"/>
        <pt x="147" y="598" on="1"/>
        <pt x="138" y="598" on="0"/>
        <pt x="138" y="589" on="1"/>
        <pt x="138" y="401" on="1"/>
        <pt x="138" y="393" on="0"/>
        <pt x="147" y="393" on="1"/>
        <pt x="295" y="393" on="1"/>
        <pt x="306" y="393" on="0"/>
        <pt x="306" y="382" on="1"/>
        <pt x="306" y="361" on="1"/>
        <pt x="306" y="351" on="0"/>
        <pt x="295" y="351" on="1"/>
        <pt x="147" y="351" on="1"/>
        <pt x="138" y="351" on="0"/>
        <pt x="138" y="342" on="1"/>
        <pt x="138" y="54" on="1"/>
        <pt x="138" y="45" on="0"/>
      </contour>
      <contour>
        <pt x="345" y="0" on="1"/>
        <pt x="98" y="0" on="1"/>
        <pt x="88" y="0" on="0"/>
        <pt x="88" y="12" on="1"/>
        <pt x="88" y="342" on="1"/>
        <pt x="88" y="351" on="0"/>
        <pt x="78" y="351" on="1"/>
        <pt x="36" y="351" on="1"/>
        <pt x="25" y="351" on="0"/>
        <pt x="25" y="361" on="1"/>
        <pt x="25" y="382" on="1"/>
        <pt x="25" y="393" on="0"/>
        <pt x="36" y="393" on="1"/>
        <pt x="78" y="393" on="1"/>
        <pt x="88" y="393" on="0"/>
        <pt x="88" y="401" on="1"/>
        <pt x="88" y="631" on="1"/>
        <pt x="88" y="643" on="0"/>
        <pt x="98" y="643" on="1"/>
        <pt x="345" y="643" on="1"/>
        <pt x="410" y="643" on="0"/>
        <pt x="485" y="567" on="0"/>
        <pt x="485" y="501" on="1"/>
        <pt x="485" y="142" on="1"/>
        <pt x="485" y="76" on="0"/>
        <pt x="410" y="0" on="0"/>
      </contour>
    </TTGlyph>
    <TTGlyph name="E" xMin="85" yMin="0" xMax="416" yMax="643">
      <contour>
        <pt x="404" y="0" on="1"/>
        <pt x="95" y="0" on="1"/>
        <pt x="85" y="0" on="0"/>
        <pt x="85" y="12" on="1"/>
        <pt x="85" y="631" on="1"/>
        <pt x="85" y="643" on="0"/>
        <pt x="95" y="643" on="1"/>
        <pt x="404" y="643" on="1"/>
        <pt x="416" y="643" on="0"/>
        <pt x="416" y="632" on="1"/>
        <pt x="416" y="609" on="1"/>
        <pt x="416" y="598" on="0"/>
        <pt x="404" y="598" on="1"/>
        <pt x="145" y="598" on="1"/>
        <pt x="135" y="598" on="0"/>
        <pt x="135" y="589" on="1"/>
        <pt x="135" y="359" on="1"/>
        <pt x="135" y="350" on="0"/>
        <pt x="145" y="350" on="1"/>
        <pt x="376" y="350" on="1"/>
        <pt x="387" y="350" on="0"/>
        <pt x="387" y="339" on="1"/>
        <pt x="387" y="316" on="1"/>
        <pt x="387" y="305" on="0"/>
        <pt x="376" y="305" on="1"/>
        <pt x="145" y="305" on="1"/>
        <pt x="135" y="305" on="0"/>
        <pt x="135" y="296" on="1"/>
        <pt x="135" y="54" on="1"/>
        <pt x="135" y="45" on="0"/>
        <pt x="145" y="45" on="1"/>
        <pt x="404" y="45" on="1"/>
        <pt x="416" y="45" on="0"/>
        <pt x="416" y="34" on="1"/>
        <pt x="416" y="11" on="1"/>
        <pt x="416" y="0" on="0"/>
      </contour>
    </TTGlyph>
    <TTGlyph name="Eacute" xMin="85" yMin="0" xMax="416" yMax="836">
      <contour>
        <pt x="308" y="836" on="1"/>
        <pt x="353" y="836" on="1"/>
        <pt x="358" y="836" on="0"/>
        <pt x="362" y="830" on="0"/>
        <pt x="358" y="825" on="1"/>
        <pt x="268" y="716" on="1"/>
        <pt x="262" y="707" on="0"/>
        <pt x="252" y="707" on="1"/>
        <pt x="232" y="707" on="1"/>
        <pt x="221" y="707" on="0"/>
        <pt x="227" y="719" on="1"/>
        <pt x="290" y="825" on="1"/>
        <pt x="296" y="836" on="0"/>
      </contour>
      <contour>
        <pt x="404" y="0" on="1"/>
        <pt x="95" y="0" on="1"/>
        <pt x="85" y="0" on="0"/>
        <pt x="85" y="12" on="1"/>
        <pt x="85" y="631" on="1"/>
        <pt x="85" y="643" on="0"/>
        <pt x="95" y="643" on="1"/>
        <pt x="404" y="643" on="1"/>
        <pt x="416" y="643" on="0"/>
        <pt x="416" y="632" on="1"/>
        <pt x="416" y="609" on="1"/>
        <pt x="416" y="598" on="0"/>
        <pt x="404" y="598" on="1"/>
        <pt x="145" y="598" on="1"/>
        <pt x="135" y="598" on="0"/>
        <pt x="135" y="589" on="1"/>
        <pt x="135" y="359" on="1"/>
        <pt x="135" y="350" on="0"/>
        <pt x="145" y="350" on="1"/>
        <pt x="376" y="350" on="1"/>
        <pt x="387" y="350" on="0"/>
        <pt x="387" y="339" on="1"/>
        <pt x="387" y="316" on="1"/>
        <pt x="387" y="305" on="0"/>
        <pt x="376" y="305" on="1"/>
        <pt x="145" y="305" on="1"/>
        <pt x="135" y="305" on="0"/>
        <pt x="135" y="296" on="1"/>
        <pt x="135" y="54" on="1"/>
        <pt x="135" y="45" on="0"/>
        <pt x="145" y="45" on="1"/>
        <pt x="404" y="45" on="1"/>
        <pt x="416" y="45" on="0"/>
        <pt x="416" y="34" on="1"/>
        <pt x="416" y="11" on="1"/>
        <pt x="416" y="0" on="0"/>
      </contour>
    </TTGlyph>
    <TTGlyph name="Ebreve" xMin="85" yMin="0" xMax="416" yMax="836">
      <contour>
        <pt x="145" y="826" on="1"/>
        <pt x="145" y="836" on="0"/>
        <pt x="154" y="836" on="1"/>
        <pt x="173" y="836" on="1"/>
        <pt x="182" y="836" on="0"/>
        <pt x="182" y="826" on="1"/>
        <pt x="182" y="815" on="1"/>
        <pt x="182" y="772" on="0"/>
        <pt x="209" y="738" on="0"/>
        <pt x="242" y="738" on="1"/>
        <pt x="246" y="738" on="1"/>
        <pt x="281" y="738" on="0"/>
        <pt x="309" y="773" on="0"/>
        <pt x="309" y="815" on="1"/>
        <pt x="309" y="825" on="1"/>
        <pt x="309" y="835" on="0"/>
        <pt x="318" y="835" on="1"/>
        <pt x="335" y="835" on="1"/>
        <pt x="344" y="835" on="0"/>
        <pt x="344" y="825" on="1"/>
        <pt x="344" y="814" on="1"/>
        <pt x="344" y="707" on="0"/>
        <pt x="249" y="707" on="1"/>
        <pt x="239" y="707" on="1"/>
        <pt x="145" y="707" on="0"/>
        <pt x="145" y="814" on="1"/>
      </contour>
      <contour>
        <pt x="404" y="0" on="1"/>
        <pt x="95" y="0" on="1"/>
        <pt x="85" y="0" on="0"/>
        <pt x="85" y="12" on="1"/>
        <pt x="85" y="631" on="1"/>
        <pt x="85" y="643" on="0"/>
        <pt x="95" y="643" on="1"/>
        <pt x="404" y="643" on="1"/>
        <pt x="416" y="643" on="0"/>
        <pt x="416" y="632" on="1"/>
        <pt x="416" y="609" on="1"/>
        <pt x="416" y="598" on="0"/>
        <pt x="404" y="598" on="1"/>
        <pt x="145" y="598" on="1"/>
        <pt x="135" y="598" on="0"/>
        <pt x="135" y="589" on="1"/>
        <pt x="135" y="359" on="1"/>
        <pt x="135" y="350" on="0"/>
        <pt x="145" y="350" on="1"/>
        <pt x="376" y="350" on="1"/>
        <pt x="387" y="350" on="0"/>
        <pt x="387" y="339" on="1"/>
        <pt x="387" y="316" on="1"/>
        <pt x="387" y="305" on="0"/>
        <pt x="376" y="305" on="1"/>
        <pt x="145" y="305" on="1"/>
        <pt x="135" y="305" on="0"/>
        <pt x="135" y="296" on="1"/>
        <pt x="135" y="54" on="1"/>
        <pt x="135" y="45" on="0"/>
        <pt x="145" y="45" on="1"/>
        <pt x="404" y="45" on="1"/>
        <pt x="416" y="45" on="0"/>
        <pt x="416" y="34" on="1"/>
        <pt x="416" y="11" on="1"/>
        <pt x="416" y="0" on="0"/>
      </contour>
    </TTGlyph>
    <TTGlyph name="Ecaron" xMin="85" yMin="0" xMax="416" yMax="836">
      <contour>
        <pt x="240" y="707" on="1"/>
        <pt x="227" y="707" on="0"/>
        <pt x="221" y="716" on="1"/>
        <pt x="157" y="825" on="1"/>
        <pt x="150" y="836" on="0"/>
        <pt x="162" y="836" on="1"/>
        <pt x="185" y="836" on="1"/>
        <pt x="194" y="836" on="0"/>
        <pt x="198" y="830" on="1"/>
        <pt x="251" y="733" on="1"/>
        <pt x="305" y="830" on="1"/>
        <pt x="307" y="836" on="0"/>
        <pt x="317" y="836" on="1"/>
        <pt x="341" y="836" on="1"/>
        <pt x="352" y="836" on="0"/>
        <pt x="345" y="825" on="1"/>
        <pt x="282" y="716" on="1"/>
        <pt x="276" y="707" on="0"/>
        <pt x="262" y="707" on="1"/>
      </contour>
      <contour>
        <pt x="404" y="0" on="1"/>
        <pt x="95" y="0" on="1"/>
        <pt x="85" y="0" on="0"/>
        <pt x="85" y="12" on="1"/>
        <pt x="85" y="631" on="1"/>
        <pt x="85" y="643" on="0"/>
        <pt x="95" y="643" on="1"/>
        <pt x="404" y="643" on="1"/>
        <pt x="416" y="643" on="0"/>
        <pt x="416" y="632" on="1"/>
        <pt x="416" y="609" on="1"/>
        <pt x="416" y="598" on="0"/>
        <pt x="404" y="598" on="1"/>
        <pt x="145" y="598" on="1"/>
        <pt x="135" y="598" on="0"/>
        <pt x="135" y="589" on="1"/>
        <pt x="135" y="359" on="1"/>
        <pt x="135" y="350" on="0"/>
        <pt x="145" y="350" on="1"/>
        <pt x="376" y="350" on="1"/>
        <pt x="387" y="350" on="0"/>
        <pt x="387" y="339" on="1"/>
        <pt x="387" y="316" on="1"/>
        <pt x="387" y="305" on="0"/>
        <pt x="376" y="305" on="1"/>
        <pt x="145" y="305" on="1"/>
        <pt x="135" y="305" on="0"/>
        <pt x="135" y="296" on="1"/>
        <pt x="135" y="54" on="1"/>
        <pt x="135" y="45" on="0"/>
        <pt x="145" y="45" on="1"/>
        <pt x="404" y="45" on="1"/>
        <pt x="416" y="45" on="0"/>
        <pt x="416" y="34" on="1"/>
        <pt x="416" y="11" on="1"/>
        <pt x="416" y="0" on="0"/>
      </contour>
    </TTGlyph>
    <TTGlyph name="Ecircumflex" xMin="85" yMin="0" xMax="416" yMax="836">
      <contour>
        <pt x="339" y="707" on="1"/>
        <pt x="315" y="707" on="1"/>
        <pt x="305" y="707" on="0"/>
        <pt x="303" y="713" on="1"/>
        <pt x="250" y="810" on="1"/>
        <pt x="196" y="713" on="1"/>
        <pt x="194" y="707" on="0"/>
        <pt x="184" y="707" on="1"/>
        <pt x="160" y="707" on="1"/>
        <pt x="148" y="707" on="0"/>
        <pt x="155" y="718" on="1"/>
        <pt x="219" y="827" on="1"/>
        <pt x="225" y="836" on="0"/>
        <pt x="239" y="836" on="1"/>
        <pt x="260" y="836" on="1"/>
        <pt x="274" y="836" on="0"/>
        <pt x="280" y="827" on="1"/>
        <pt x="344" y="718" on="1"/>
        <pt x="351" y="707" on="0"/>
      </contour>
      <contour>
        <pt x="404" y="0" on="1"/>
        <pt x="95" y="0" on="1"/>
        <pt x="85" y="0" on="0"/>
        <pt x="85" y="12" on="1"/>
        <pt x="85" y="631" on="1"/>
        <pt x="85" y="643" on="0"/>
        <pt x="95" y="643" on="1"/>
        <pt x="404" y="643" on="1"/>
        <pt x="416" y="643" on="0"/>
        <pt x="416" y="632" on="1"/>
        <pt x="416" y="609" on="1"/>
        <pt x="416" y="598" on="0"/>
        <pt x="404" y="598" on="1"/>
        <pt x="145" y="598" on="1"/>
        <pt x="135" y="598" on="0"/>
        <pt x="135" y="589" on="1"/>
        <pt x="135" y="359" on="1"/>
        <pt x="135" y="350" on="0"/>
        <pt x="145" y="350" on="1"/>
        <pt x="376" y="350" on="1"/>
        <pt x="387" y="350" on="0"/>
        <pt x="387" y="339" on="1"/>
        <pt x="387" y="316" on="1"/>
        <pt x="387" y="305" on="0"/>
        <pt x="376" y="305" on="1"/>
        <pt x="145" y="305" on="1"/>
        <pt x="135" y="305" on="0"/>
        <pt x="135" y="296" on="1"/>
        <pt x="135" y="54" on="1"/>
        <pt x="135" y="45" on="0"/>
        <pt x="145" y="45" on="1"/>
        <pt x="404" y="45" on="1"/>
        <pt x="416" y="45" on="0"/>
        <pt x="416" y="34" on="1"/>
        <pt x="416" y="11" on="1"/>
        <pt x="416" y="0" on="0"/>
      </contour>
    </TTGlyph>
    <TTGlyph name="Edieresis" xMin="85" yMin="0" xMax="416" yMax="836">
      <contour>
        <pt x="144" y="719" on="1"/>
        <pt x="144" y="825" on="1"/>
        <pt x="144" y="836" on="0"/>
        <pt x="154" y="836" on="1"/>
        <pt x="182" y="836" on="1"/>
        <pt x="193" y="836" on="0"/>
        <pt x="193" y="825" on="1"/>
        <pt x="193" y="719" on="1"/>
        <pt x="193" y="707" on="0"/>
        <pt x="182" y="707" on="1"/>
        <pt x="154" y="707" on="1"/>
        <pt x="144" y="707" on="0"/>
      </contour>
      <contour>
        <pt x="307" y="719" on="1"/>
        <pt x="307" y="825" on="1"/>
        <pt x="307" y="836" on="0"/>
        <pt x="317" y="836" on="1"/>
        <pt x="345" y="836" on="1"/>
        <pt x="356" y="836" on="0"/>
        <pt x="356" y="825" on="1"/>
        <pt x="356" y="719" on="1"/>
        <pt x="356" y="707" on="0"/>
        <pt x="345" y="707" on="1"/>
        <pt x="317" y="707" on="1"/>
        <pt x="307" y="707" on="0"/>
      </contour>
      <contour>
        <pt x="404" y="0" on="1"/>
        <pt x="95" y="0" on="1"/>
        <pt x="85" y="0" on="0"/>
        <pt x="85" y="12" on="1"/>
        <pt x="85" y="631" on="1"/>
        <pt x="85" y="643" on="0"/>
        <pt x="95" y="643" on="1"/>
        <pt x="404" y="643" on="1"/>
        <pt x="416" y="643" on="0"/>
        <pt x="416" y="632" on="1"/>
        <pt x="416" y="609" on="1"/>
        <pt x="416" y="598" on="0"/>
        <pt x="404" y="598" on="1"/>
        <pt x="145" y="598" on="1"/>
        <pt x="135" y="598" on="0"/>
        <pt x="135" y="589" on="1"/>
        <pt x="135" y="359" on="1"/>
        <pt x="135" y="350" on="0"/>
        <pt x="145" y="350" on="1"/>
        <pt x="376" y="350" on="1"/>
        <pt x="387" y="350" on="0"/>
        <pt x="387" y="339" on="1"/>
        <pt x="387" y="316" on="1"/>
        <pt x="387" y="305" on="0"/>
        <pt x="376" y="305" on="1"/>
        <pt x="145" y="305" on="1"/>
        <pt x="135" y="305" on="0"/>
        <pt x="135" y="296" on="1"/>
        <pt x="135" y="54" on="1"/>
        <pt x="135" y="45" on="0"/>
        <pt x="145" y="45" on="1"/>
        <pt x="404" y="45" on="1"/>
        <pt x="416" y="45" on="0"/>
        <pt x="416" y="34" on="1"/>
        <pt x="416" y="11" on="1"/>
        <pt x="416" y="0" on="0"/>
      </contour>
    </TTGlyph>
    <TTGlyph name="Edotaccent" xMin="85" yMin="0" xMax="416" yMax="833">
      <contour>
        <pt x="225" y="723" on="1"/>
        <pt x="225" y="821" on="1"/>
        <pt x="225" y="833" on="0"/>
        <pt x="235" y="833" on="1"/>
        <pt x="265" y="833" on="1"/>
        <pt x="275" y="833" on="0"/>
        <pt x="275" y="822" on="1"/>
        <pt x="275" y="723" on="1"/>
        <pt x="275" y="712" on="0"/>
        <pt x="265" y="712" on="1"/>
        <pt x="235" y="712" on="1"/>
        <pt x="225" y="712" on="0"/>
      </contour>
      <contour>
        <pt x="404" y="0" on="1"/>
        <pt x="95" y="0" on="1"/>
        <pt x="85" y="0" on="0"/>
        <pt x="85" y="12" on="1"/>
        <pt x="85" y="631" on="1"/>
        <pt x="85" y="643" on="0"/>
        <pt x="95" y="643" on="1"/>
        <pt x="404" y="643" on="1"/>
        <pt x="416" y="643" on="0"/>
        <pt x="416" y="632" on="1"/>
        <pt x="416" y="609" on="1"/>
        <pt x="416" y="598" on="0"/>
        <pt x="404" y="598" on="1"/>
        <pt x="145" y="598" on="1"/>
        <pt x="135" y="598" on="0"/>
        <pt x="135" y="589" on="1"/>
        <pt x="135" y="359" on="1"/>
        <pt x="135" y="350" on="0"/>
        <pt x="145" y="350" on="1"/>
        <pt x="376" y="350" on="1"/>
        <pt x="387" y="350" on="0"/>
        <pt x="387" y="339" on="1"/>
        <pt x="387" y="316" on="1"/>
        <pt x="387" y="305" on="0"/>
        <pt x="376" y="305" on="1"/>
        <pt x="145" y="305" on="1"/>
        <pt x="135" y="305" on="0"/>
        <pt x="135" y="296" on="1"/>
        <pt x="135" y="54" on="1"/>
        <pt x="135" y="45" on="0"/>
        <pt x="145" y="45" on="1"/>
        <pt x="404" y="45" on="1"/>
        <pt x="416" y="45" on="0"/>
        <pt x="416" y="34" on="1"/>
        <pt x="416" y="11" on="1"/>
        <pt x="416" y="0" on="0"/>
      </contour>
    </TTGlyph>
    <TTGlyph name="Egrave" xMin="85" yMin="0" xMax="416" yMax="836">
      <contour>
        <pt x="271" y="707" on="1"/>
        <pt x="250" y="707" on="1"/>
        <pt x="240" y="707" on="0"/>
        <pt x="234" y="716" on="1"/>
        <pt x="144" y="825" on="1"/>
        <pt x="137" y="836" on="0"/>
        <pt x="149" y="836" on="1"/>
        <pt x="194" y="836" on="1"/>
        <pt x="206" y="836" on="0"/>
        <pt x="212" y="825" on="1"/>
        <pt x="275" y="719" on="1"/>
        <pt x="281" y="707" on="0"/>
      </contour>
      <contour>
        <pt x="404" y="0" on="1"/>
        <pt x="95" y="0" on="1"/>
        <pt x="85" y="0" on="0"/>
        <pt x="85" y="12" on="1"/>
        <pt x="85" y="631" on="1"/>
        <pt x="85" y="643" on="0"/>
        <pt x="95" y="643" on="1"/>
        <pt x="404" y="643" on="1"/>
        <pt x="416" y="643" on="0"/>
        <pt x="416" y="632" on="1"/>
        <pt x="416" y="609" on="1"/>
        <pt x="416" y="598" on="0"/>
        <pt x="404" y="598" on="1"/>
        <pt x="145" y="598" on="1"/>
        <pt x="135" y="598" on="0"/>
        <pt x="135" y="589" on="1"/>
        <pt x="135" y="359" on="1"/>
        <pt x="135" y="350" on="0"/>
        <pt x="145" y="350" on="1"/>
        <pt x="376" y="350" on="1"/>
        <pt x="387" y="350" on="0"/>
        <pt x="387" y="339" on="1"/>
        <pt x="387" y="316" on="1"/>
        <pt x="387" y="305" on="0"/>
        <pt x="376" y="305" on="1"/>
        <pt x="145" y="305" on="1"/>
        <pt x="135" y="305" on="0"/>
        <pt x="135" y="296" on="1"/>
        <pt x="135" y="54" on="1"/>
        <pt x="135" y="45" on="0"/>
        <pt x="145" y="45" on="1"/>
        <pt x="404" y="45" on="1"/>
        <pt x="416" y="45" on="0"/>
        <pt x="416" y="34" on="1"/>
        <pt x="416" y="11" on="1"/>
        <pt x="416" y="0" on="0"/>
      </contour>
    </TTGlyph>
    <TTGlyph name="Emacron" xMin="85" yMin="0" xMax="416" yMax="792">
      <contour>
        <pt x="351" y="752" on="1"/>
        <pt x="148" y="752" on="1"/>
        <pt x="137" y="752" on="0"/>
        <pt x="137" y="762" on="1"/>
        <pt x="137" y="781" on="1"/>
        <pt x="137" y="792" on="0"/>
        <pt x="148" y="792" on="1"/>
        <pt x="351" y="792" on="1"/>
        <pt x="362" y="792" on="0"/>
        <pt x="362" y="781" on="1"/>
        <pt x="362" y="762" on="1"/>
        <pt x="362" y="752" on="0"/>
      </contour>
      <contour>
        <pt x="404" y="0" on="1"/>
        <pt x="95" y="0" on="1"/>
        <pt x="85" y="0" on="0"/>
        <pt x="85" y="12" on="1"/>
        <pt x="85" y="631" on="1"/>
        <pt x="85" y="643" on="0"/>
        <pt x="95" y="643" on="1"/>
        <pt x="404" y="643" on="1"/>
        <pt x="416" y="643" on="0"/>
        <pt x="416" y="632" on="1"/>
        <pt x="416" y="609" on="1"/>
        <pt x="416" y="598" on="0"/>
        <pt x="404" y="598" on="1"/>
        <pt x="145" y="598" on="1"/>
        <pt x="135" y="598" on="0"/>
        <pt x="135" y="589" on="1"/>
        <pt x="135" y="359" on="1"/>
        <pt x="135" y="350" on="0"/>
        <pt x="145" y="350" on="1"/>
        <pt x="376" y="350" on="1"/>
        <pt x="387" y="350" on="0"/>
        <pt x="387" y="339" on="1"/>
        <pt x="387" y="316" on="1"/>
        <pt x="387" y="305" on="0"/>
        <pt x="376" y="305" on="1"/>
        <pt x="145" y="305" on="1"/>
        <pt x="135" y="305" on="0"/>
        <pt x="135" y="296" on="1"/>
        <pt x="135" y="54" on="1"/>
        <pt x="135" y="45" on="0"/>
        <pt x="145" y="45" on="1"/>
        <pt x="404" y="45" on="1"/>
        <pt x="416" y="45" on="0"/>
        <pt x="416" y="34" on="1"/>
        <pt x="416" y="11" on="1"/>
        <pt x="416" y="0" on="0"/>
      </contour>
    </TTGlyph>
    <TTGlyph name="Eng" xMin="86" yMin="-141" xMax="496" yMax="643">
      <contour>
        <pt x="446" y="11" on="1"/>
        <pt x="141" y="535" on="1"/>
        <pt x="137" y="535" on="1"/>
        <pt x="137" y="12" on="1"/>
        <pt x="137" y="0" on="0"/>
        <pt x="126" y="0" on="1"/>
        <pt x="97" y="0" on="1"/>
        <pt x="86" y="0" on="0"/>
        <pt x="86" y="12" on="1"/>
        <pt x="86" y="631" on="1"/>
        <pt x="86" y="643" on="0"/>
        <pt x="97" y="643" on="1"/>
        <pt x="124" y="643" on="1"/>
        <pt x="133" y="643" on="0"/>
        <pt x="136" y="637" on="1"/>
        <pt x="442" y="109" on="1"/>
        <pt x="446" y="109" on="1"/>
        <pt x="446" y="631" on="1"/>
        <pt x="446" y="643" on="0"/>
        <pt x="457" y="643" on="1"/>
        <pt x="486" y="643" on="1"/>
        <pt x="496" y="643" on="0"/>
        <pt x="496" y="631" on="1"/>
        <pt x="496" y="1" on="1"/>
        <pt x="496" y="-65" on="0"/>
        <pt x="421" y="-141" on="0"/>
        <pt x="356" y="-141" on="1"/>
        <pt x="326" y="-141" on="1"/>
        <pt x="315" y="-141" on="0"/>
        <pt x="315" y="-130" on="1"/>
        <pt x="315" y="-107" on="1"/>
        <pt x="315" y="-96" on="0"/>
        <pt x="326" y="-96" on="1"/>
        <pt x="347" y="-96" on="1"/>
        <pt x="446" y="-96" on="0"/>
        <pt x="446" y="6" on="1"/>
      </contour>
    </TTGlyph>
    <TTGlyph name="Eogonek" xMin="85" yMin="-106" xMax="416" yMax="643">
      <contour>
        <pt x="404" y="598" on="1"/>
        <pt x="145" y="598" on="1"/>
        <pt x="135" y="598" on="0"/>
        <pt x="135" y="589" on="1"/>
        <pt x="135" y="359" on="1"/>
        <pt x="135" y="350" on="0"/>
        <pt x="145" y="350" on="1"/>
        <pt x="376" y="350" on="1"/>
        <pt x="387" y="350" on="0"/>
        <pt x="387" y="339" on="1"/>
        <pt x="387" y="316" on="1"/>
        <pt x="387" y="305" on="0"/>
        <pt x="376" y="305" on="1"/>
        <pt x="145" y="305" on="1"/>
        <pt x="135" y="305" on="0"/>
        <pt x="135" y="296" on="1"/>
        <pt x="135" y="54" on="1"/>
        <pt x="135" y="45" on="0"/>
        <pt x="145" y="45" on="1"/>
        <pt x="404" y="45" on="1"/>
        <pt x="416" y="45" on="0"/>
        <pt x="416" y="34" on="1"/>
        <pt x="416" y="11" on="1"/>
        <pt x="416" y="0" on="0"/>
        <pt x="404" y="0" on="1"/>
        <pt x="353" y="0" on="1"/>
        <pt x="300" y="-70" on="1"/>
        <pt x="339" y="-70" on="1"/>
        <pt x="355" y="-70" on="0"/>
        <pt x="366" y="-75" on="0"/>
        <pt x="366" y="-93" on="0"/>
        <pt x="323" y="-106" on="0"/>
        <pt x="269" y="-106" on="0"/>
        <pt x="256" y="-81" on="0"/>
        <pt x="268" y="-66" on="1"/>
        <pt x="318" y="0" on="1"/>
        <pt x="95" y="0" on="1"/>
        <pt x="85" y="0" on="0"/>
        <pt x="85" y="12" on="1"/>
        <pt x="85" y="631" on="1"/>
        <pt x="85" y="643" on="0"/>
        <pt x="95" y="643" on="1"/>
        <pt x="404" y="643" on="1"/>
        <pt x="416" y="643" on="0"/>
        <pt x="416" y="632" on="1"/>
        <pt x="416" y="609" on="1"/>
        <pt x="416" y="598" on="0"/>
      </contour>
    </TTGlyph>
    <TTGlyph name="Eth" xMin="25" yMin="0" xMax="485" yMax="643">
      <contour>
        <pt x="147" y="45" on="1"/>
        <pt x="340" y="45" on="1"/>
        <pt x="386" y="45" on="0"/>
        <pt x="435" y="96" on="0"/>
        <pt x="435" y="144" on="1"/>
        <pt x="435" y="499" on="1"/>
        <pt x="435" y="547" on="0"/>
        <pt x="386" y="598" on="0"/>
        <pt x="340" y="598" on="1"/>
        <pt x="147" y="598" on="1"/>
        <pt x="138" y="598" on="0"/>
        <pt x="138" y="589" on="1"/>
        <pt x="138" y="355" on="1"/>
        <pt x="138" y="346" on="0"/>
        <pt x="147" y="346" on="1"/>
        <pt x="295" y="346" on="1"/>
        <pt x="306" y="346" on="0"/>
        <pt x="306" y="335" on="1"/>
        <pt x="306" y="315" on="1"/>
        <pt x="306" y="304" on="0"/>
        <pt x="295" y="304" on="1"/>
        <pt x="147" y="304" on="1"/>
        <pt x="138" y="304" on="0"/>
        <pt x="138" y="296" on="1"/>
        <pt x="138" y="54" on="1"/>
        <pt x="138" y="45" on="0"/>
      </contour>
      <contour>
        <pt x="345" y="0" on="1"/>
        <pt x="98" y="0" on="1"/>
        <pt x="88" y="0" on="0"/>
        <pt x="88" y="12" on="1"/>
        <pt x="88" y="296" on="1"/>
        <pt x="88" y="304" on="0"/>
        <pt x="78" y="304" on="1"/>
        <pt x="36" y="304" on="1"/>
        <pt x="25" y="304" on="0"/>
        <pt x="25" y="315" on="1"/>
        <pt x="25" y="335" on="1"/>
        <pt x="25" y="346" on="0"/>
        <pt x="36" y="346" on="1"/>
        <pt x="78" y="346" on="1"/>
        <pt x="88" y="346" on="0"/>
        <pt x="88" y="355" on="1"/>
        <pt x="88" y="631" on="1"/>
        <pt x="88" y="643" on="0"/>
        <pt x="98" y="643" on="1"/>
        <pt x="345" y="643" on="1"/>
        <pt x="410" y="643" on="0"/>
        <pt x="485" y="567" on="0"/>
        <pt x="485" y="501" on="1"/>
        <pt x="485" y="142" on="1"/>
        <pt x="485" y="76" on="0"/>
        <pt x="410" y="0" on="0"/>
      </contour>
    </TTGlyph>
    <TTGlyph name="Euro" xMin="36" yMin="0" xMax="455" yMax="643">
      <contour>
        <pt x="314" y="0" on="1"/>
        <pt x="249" y="0" on="1"/>
        <pt x="185" y="0" on="0"/>
        <pt x="109" y="74" on="0"/>
        <pt x="109" y="139" on="1"/>
        <pt x="109" y="239" on="1"/>
        <pt x="48" y="239" on="1"/>
        <pt x="36" y="239" on="0"/>
        <pt x="36" y="251" on="1"/>
        <pt x="36" y="268" on="1"/>
        <pt x="36" y="279" on="0"/>
        <pt x="48" y="279" on="1"/>
        <pt x="109" y="279" on="1"/>
        <pt x="109" y="361" on="1"/>
        <pt x="48" y="361" on="1"/>
        <pt x="36" y="361" on="0"/>
        <pt x="36" y="372" on="1"/>
        <pt x="36" y="390" on="1"/>
        <pt x="36" y="401" on="0"/>
        <pt x="48" y="401" on="1"/>
        <pt x="109" y="401" on="1"/>
        <pt x="109" y="504" on="1"/>
        <pt x="109" y="569" on="0"/>
        <pt x="185" y="643" on="0"/>
        <pt x="249" y="643" on="1"/>
        <pt x="314" y="643" on="1"/>
        <pt x="379" y="643" on="0"/>
        <pt x="455" y="569" on="0"/>
        <pt x="455" y="504" on="1"/>
        <pt x="455" y="477" on="1"/>
        <pt x="455" y="465" on="0"/>
        <pt x="444" y="465" on="1"/>
        <pt x="415" y="465" on="1"/>
        <pt x="405" y="465" on="0"/>
        <pt x="405" y="477" on="1"/>
        <pt x="405" y="503" on="1"/>
        <pt x="405" y="599" on="0"/>
        <pt x="310" y="599" on="1"/>
        <pt x="254" y="599" on="1"/>
        <pt x="159" y="599" on="0"/>
        <pt x="159" y="503" on="1"/>
        <pt x="159" y="401" on="1"/>
        <pt x="317" y="401" on="1"/>
        <pt x="329" y="401" on="0"/>
        <pt x="329" y="390" on="1"/>
        <pt x="329" y="372" on="1"/>
        <pt x="329" y="361" on="0"/>
        <pt x="317" y="361" on="1"/>
        <pt x="159" y="361" on="1"/>
        <pt x="159" y="279" on="1"/>
        <pt x="317" y="279" on="1"/>
        <pt x="329" y="279" on="0"/>
        <pt x="329" y="268" on="1"/>
        <pt x="329" y="251" on="1"/>
        <pt x="329" y="239" on="0"/>
        <pt x="317" y="239" on="1"/>
        <pt x="159" y="239" on="1"/>
        <pt x="159" y="140" on="1"/>
        <pt x="159" y="44" on="0"/>
        <pt x="254" y="44" on="1"/>
        <pt x="310" y="44" on="1"/>
        <pt x="405" y="44" on="0"/>
        <pt x="405" y="140" on="1"/>
        <pt x="405" y="166" on="1"/>
        <pt x="405" y="178" on="0"/>
        <pt x="415" y="178" on="1"/>
        <pt x="444" y="178" on="1"/>
        <pt x="455" y="178" on="0"/>
        <pt x="455" y="166" on="1"/>
        <pt x="455" y="139" on="1"/>
        <pt x="455" y="74" on="0"/>
        <pt x="379" y="0" on="0"/>
      </contour>
    </TTGlyph>
    <TTGlyph name="F" xMin="85" yMin="0" xMax="415" yMax="643">
      <contour>
        <pt x="124" y="0" on="1"/>
        <pt x="95" y="0" on="1"/>
        <pt x="85" y="0" on="0"/>
        <pt x="85" y="12" on="1"/>
        <pt x="85" y="631" on="1"/>
        <pt x="85" y="643" on="0"/>
        <pt x="95" y="643" on="1"/>
        <pt x="403" y="643" on="1"/>
        <pt x="415" y="643" on="0"/>
        <pt x="415" y="632" on="1"/>
        <pt x="415" y="609" on="1"/>
        <pt x="415" y="598" on="0"/>
        <pt x="403" y="598" on="1"/>
        <pt x="145" y="598" on="1"/>
        <pt x="135" y="598" on="0"/>
        <pt x="135" y="589" on="1"/>
        <pt x="135" y="346" on="1"/>
        <pt x="135" y="338" on="0"/>
        <pt x="145" y="338" on="1"/>
        <pt x="376" y="338" on="1"/>
        <pt x="387" y="338" on="0"/>
        <pt x="387" y="327" on="1"/>
        <pt x="387" y="303" on="1"/>
        <pt x="387" y="292" on="0"/>
        <pt x="376" y="292" on="1"/>
        <pt x="145" y="292" on="1"/>
        <pt x="135" y="292" on="0"/>
        <pt x="135" y="284" on="1"/>
        <pt x="135" y="12" on="1"/>
        <pt x="135" y="0" on="0"/>
      </contour>
    </TTGlyph>
    <TTGlyph name="G" xMin="75" yMin="0" xMax="465" yMax="643">
      <contour>
        <pt x="324" y="0" on="1"/>
        <pt x="215" y="0" on="1"/>
        <pt x="150" y="0" on="0"/>
        <pt x="75" y="76" on="0"/>
        <pt x="75" y="142" on="1"/>
        <pt x="75" y="501" on="1"/>
        <pt x="75" y="567" on="0"/>
        <pt x="150" y="643" on="0"/>
        <pt x="215" y="643" on="1"/>
        <pt x="324" y="643" on="1"/>
        <pt x="389" y="643" on="0"/>
        <pt x="465" y="567" on="0"/>
        <pt x="465" y="501" on="1"/>
        <pt x="465" y="456" on="1"/>
        <pt x="465" y="444" on="0"/>
        <pt x="454" y="444" on="1"/>
        <pt x="425" y="444" on="1"/>
        <pt x="414" y="444" on="0"/>
        <pt x="414" y="456" on="1"/>
        <pt x="414" y="499" on="1"/>
        <pt x="414" y="547" on="0"/>
        <pt x="366" y="598" on="0"/>
        <pt x="320" y="598" on="1"/>
        <pt x="219" y="598" on="1"/>
        <pt x="173" y="598" on="0"/>
        <pt x="125" y="546" on="0"/>
        <pt x="125" y="499" on="1"/>
        <pt x="125" y="144" on="1"/>
        <pt x="125" y="97" on="0"/>
        <pt x="173" y="45" on="0"/>
        <pt x="219" y="45" on="1"/>
        <pt x="320" y="45" on="1"/>
        <pt x="366" y="45" on="0"/>
        <pt x="414" y="96" on="0"/>
        <pt x="414" y="144" on="1"/>
        <pt x="414" y="276" on="1"/>
        <pt x="414" y="285" on="0"/>
        <pt x="405" y="285" on="1"/>
        <pt x="290" y="285" on="1"/>
        <pt x="279" y="285" on="0"/>
        <pt x="279" y="296" on="1"/>
        <pt x="279" y="319" on="1"/>
        <pt x="279" y="330" on="0"/>
        <pt x="290" y="330" on="1"/>
        <pt x="446" y="330" on="1"/>
        <pt x="465" y="330" on="0"/>
        <pt x="465" y="310" on="1"/>
        <pt x="465" y="142" on="1"/>
        <pt x="465" y="76" on="0"/>
        <pt x="389" y="0" on="0"/>
      </contour>
    </TTGlyph>
    <TTGlyph name="Gbreve" xMin="75" yMin="0" xMax="465" yMax="836">
      <contour>
        <pt x="170" y="826" on="1"/>
        <pt x="170" y="836" on="0"/>
        <pt x="180" y="836" on="1"/>
        <pt x="198" y="836" on="1"/>
        <pt x="207" y="836" on="0"/>
        <pt x="207" y="826" on="1"/>
        <pt x="207" y="815" on="1"/>
        <pt x="207" y="773" on="0"/>
        <pt x="234" y="738" on="0"/>
        <pt x="267" y="738" on="1"/>
        <pt x="272" y="738" on="1"/>
        <pt x="306" y="738" on="0"/>
        <pt x="335" y="773" on="0"/>
        <pt x="335" y="815" on="1"/>
        <pt x="335" y="825" on="1"/>
        <pt x="335" y="835" on="0"/>
        <pt x="344" y="835" on="1"/>
        <pt x="361" y="835" on="1"/>
        <pt x="370" y="835" on="0"/>
        <pt x="370" y="825" on="1"/>
        <pt x="370" y="814" on="1"/>
        <pt x="370" y="707" on="0"/>
        <pt x="275" y="707" on="1"/>
        <pt x="264" y="707" on="1"/>
        <pt x="170" y="707" on="0"/>
        <pt x="170" y="814" on="1"/>
      </contour>
      <contour>
        <pt x="324" y="0" on="1"/>
        <pt x="215" y="0" on="1"/>
        <pt x="150" y="0" on="0"/>
        <pt x="75" y="76" on="0"/>
        <pt x="75" y="142" on="1"/>
        <pt x="75" y="501" on="1"/>
        <pt x="75" y="567" on="0"/>
        <pt x="150" y="643" on="0"/>
        <pt x="215" y="643" on="1"/>
        <pt x="324" y="643" on="1"/>
        <pt x="389" y="643" on="0"/>
        <pt x="465" y="567" on="0"/>
        <pt x="465" y="501" on="1"/>
        <pt x="465" y="456" on="1"/>
        <pt x="465" y="444" on="0"/>
        <pt x="454" y="444" on="1"/>
        <pt x="425" y="444" on="1"/>
        <pt x="414" y="444" on="0"/>
        <pt x="414" y="456" on="1"/>
        <pt x="414" y="499" on="1"/>
        <pt x="414" y="547" on="0"/>
        <pt x="366" y="598" on="0"/>
        <pt x="320" y="598" on="1"/>
        <pt x="219" y="598" on="1"/>
        <pt x="173" y="598" on="0"/>
        <pt x="125" y="546" on="0"/>
        <pt x="125" y="499" on="1"/>
        <pt x="125" y="144" on="1"/>
        <pt x="125" y="97" on="0"/>
        <pt x="173" y="45" on="0"/>
        <pt x="219" y="45" on="1"/>
        <pt x="320" y="45" on="1"/>
        <pt x="366" y="45" on="0"/>
        <pt x="414" y="96" on="0"/>
        <pt x="414" y="144" on="1"/>
        <pt x="414" y="276" on="1"/>
        <pt x="414" y="285" on="0"/>
        <pt x="405" y="285" on="1"/>
        <pt x="290" y="285" on="1"/>
        <pt x="279" y="285" on="0"/>
        <pt x="279" y="296" on="1"/>
        <pt x="279" y="319" on="1"/>
        <pt x="279" y="330" on="0"/>
        <pt x="290" y="330" on="1"/>
        <pt x="446" y="330" on="1"/>
        <pt x="465" y="330" on="0"/>
        <pt x="465" y="310" on="1"/>
        <pt x="465" y="142" on="1"/>
        <pt x="465" y="76" on="0"/>
        <pt x="389" y="0" on="0"/>
      </contour>
    </TTGlyph>
    <TTGlyph name="Gcircumflex" xMin="75" yMin="0" xMax="465" yMax="836">
      <contour>
        <pt x="360" y="707" on="1"/>
        <pt x="336" y="707" on="1"/>
        <pt x="326" y="707" on="0"/>
        <pt x="324" y="713" on="1"/>
        <pt x="270" y="810" on="1"/>
        <pt x="217" y="713" on="1"/>
        <pt x="215" y="707" on="0"/>
        <pt x="204" y="707" on="1"/>
        <pt x="181" y="707" on="1"/>
        <pt x="169" y="707" on="0"/>
        <pt x="176" y="718" on="1"/>
        <pt x="240" y="827" on="1"/>
        <pt x="246" y="836" on="0"/>
        <pt x="259" y="836" on="1"/>
        <pt x="281" y="836" on="1"/>
        <pt x="295" y="836" on="0"/>
        <pt x="301" y="827" on="1"/>
        <pt x="364" y="718" on="1"/>
        <pt x="371" y="707" on="0"/>
      </contour>
      <contour>
        <pt x="324" y="0" on="1"/>
        <pt x="215" y="0" on="1"/>
        <pt x="150" y="0" on="0"/>
        <pt x="75" y="76" on="0"/>
        <pt x="75" y="142" on="1"/>
        <pt x="75" y="501" on="1"/>
        <pt x="75" y="567" on="0"/>
        <pt x="150" y="643" on="0"/>
        <pt x="215" y="643" on="1"/>
        <pt x="324" y="643" on="1"/>
        <pt x="389" y="643" on="0"/>
        <pt x="465" y="567" on="0"/>
        <pt x="465" y="501" on="1"/>
        <pt x="465" y="456" on="1"/>
        <pt x="465" y="444" on="0"/>
        <pt x="454" y="444" on="1"/>
        <pt x="425" y="444" on="1"/>
        <pt x="414" y="444" on="0"/>
        <pt x="414" y="456" on="1"/>
        <pt x="414" y="499" on="1"/>
        <pt x="414" y="547" on="0"/>
        <pt x="366" y="598" on="0"/>
        <pt x="320" y="598" on="1"/>
        <pt x="219" y="598" on="1"/>
        <pt x="173" y="598" on="0"/>
        <pt x="125" y="546" on="0"/>
        <pt x="125" y="499" on="1"/>
        <pt x="125" y="144" on="1"/>
        <pt x="125" y="97" on="0"/>
        <pt x="173" y="45" on="0"/>
        <pt x="219" y="45" on="1"/>
        <pt x="320" y="45" on="1"/>
        <pt x="366" y="45" on="0"/>
        <pt x="414" y="96" on="0"/>
        <pt x="414" y="144" on="1"/>
        <pt x="414" y="276" on="1"/>
        <pt x="414" y="285" on="0"/>
        <pt x="405" y="285" on="1"/>
        <pt x="290" y="285" on="1"/>
        <pt x="279" y="285" on="0"/>
        <pt x="279" y="296" on="1"/>
        <pt x="279" y="319" on="1"/>
        <pt x="279" y="330" on="0"/>
        <pt x="290" y="330" on="1"/>
        <pt x="446" y="330" on="1"/>
        <pt x="465" y="330" on="0"/>
        <pt x="465" y="310" on="1"/>
        <pt x="465" y="142" on="1"/>
        <pt x="465" y="76" on="0"/>
        <pt x="389" y="0" on="0"/>
      </contour>
    </TTGlyph>
    <TTGlyph name="Gdotaccent" xMin="75" yMin="0" xMax="465" yMax="833">
      <contour>
        <pt x="244" y="723" on="1"/>
        <pt x="244" y="821" on="1"/>
        <pt x="244" y="833" on="0"/>
        <pt x="254" y="833" on="1"/>
        <pt x="284" y="833" on="1"/>
        <pt x="294" y="833" on="0"/>
        <pt x="294" y="822" on="1"/>
        <pt x="294" y="723" on="1"/>
        <pt x="294" y="712" on="0"/>
        <pt x="284" y="712" on="1"/>
        <pt x="254" y="712" on="1"/>
        <pt x="244" y="712" on="0"/>
      </contour>
      <contour>
        <pt x="324" y="0" on="1"/>
        <pt x="215" y="0" on="1"/>
        <pt x="150" y="0" on="0"/>
        <pt x="75" y="76" on="0"/>
        <pt x="75" y="142" on="1"/>
        <pt x="75" y="501" on="1"/>
        <pt x="75" y="567" on="0"/>
        <pt x="150" y="643" on="0"/>
        <pt x="215" y="643" on="1"/>
        <pt x="324" y="643" on="1"/>
        <pt x="389" y="643" on="0"/>
        <pt x="465" y="567" on="0"/>
        <pt x="465" y="501" on="1"/>
        <pt x="465" y="456" on="1"/>
        <pt x="465" y="444" on="0"/>
        <pt x="454" y="444" on="1"/>
        <pt x="425" y="444" on="1"/>
        <pt x="414" y="444" on="0"/>
        <pt x="414" y="456" on="1"/>
        <pt x="414" y="499" on="1"/>
        <pt x="414" y="547" on="0"/>
        <pt x="366" y="598" on="0"/>
        <pt x="320" y="598" on="1"/>
        <pt x="219" y="598" on="1"/>
        <pt x="173" y="598" on="0"/>
        <pt x="125" y="546" on="0"/>
        <pt x="125" y="499" on="1"/>
        <pt x="125" y="144" on="1"/>
        <pt x="125" y="97" on="0"/>
        <pt x="173" y="45" on="0"/>
        <pt x="219" y="45" on="1"/>
        <pt x="320" y="45" on="1"/>
        <pt x="366" y="45" on="0"/>
        <pt x="414" y="96" on="0"/>
        <pt x="414" y="144" on="1"/>
        <pt x="414" y="276" on="1"/>
        <pt x="414" y="285" on="0"/>
        <pt x="405" y="285" on="1"/>
        <pt x="290" y="285" on="1"/>
        <pt x="279" y="285" on="0"/>
        <pt x="279" y="296" on="1"/>
        <pt x="279" y="319" on="1"/>
        <pt x="279" y="330" on="0"/>
        <pt x="290" y="330" on="1"/>
        <pt x="446" y="330" on="1"/>
        <pt x="465" y="330" on="0"/>
        <pt x="465" y="310" on="1"/>
        <pt x="465" y="142" on="1"/>
        <pt x="465" y="76" on="0"/>
        <pt x="389" y="0" on="0"/>
      </contour>
    </TTGlyph>
    <TTGlyph name="H" xMin="85" yMin="0" xMax="485" yMax="643">
      <contour>
        <pt x="124" y="0" on="1"/>
        <pt x="95" y="0" on="1"/>
        <pt x="85" y="0" on="0"/>
        <pt x="85" y="12" on="1"/>
        <pt x="85" y="631" on="1"/>
        <pt x="85" y="643" on="0"/>
        <pt x="95" y="643" on="1"/>
        <pt x="124" y="643" on="1"/>
        <pt x="135" y="643" on="0"/>
        <pt x="135" y="631" on="1"/>
        <pt x="135" y="358" on="1"/>
        <pt x="135" y="349" on="0"/>
        <pt x="145" y="349" on="1"/>
        <pt x="425" y="349" on="1"/>
        <pt x="435" y="349" on="0"/>
        <pt x="435" y="358" on="1"/>
        <pt x="435" y="631" on="1"/>
        <pt x="435" y="643" on="0"/>
        <pt x="445" y="643" on="1"/>
        <pt x="474" y="643" on="1"/>
        <pt x="485" y="643" on="0"/>
        <pt x="485" y="631" on="1"/>
        <pt x="485" y="12" on="1"/>
        <pt x="485" y="0" on="0"/>
        <pt x="474" y="0" on="1"/>
        <pt x="445" y="0" on="1"/>
        <pt x="435" y="0" on="0"/>
        <pt x="435" y="12" on="1"/>
        <pt x="435" y="295" on="1"/>
        <pt x="435" y="304" on="0"/>
        <pt x="425" y="304" on="1"/>
        <pt x="145" y="304" on="1"/>
        <pt x="135" y="304" on="0"/>
        <pt x="135" y="295" on="1"/>
        <pt x="135" y="12" on="1"/>
        <pt x="135" y="0" on="0"/>
      </contour>
    </TTGlyph>
    <TTGlyph name="Hbar" xMin="25" yMin="0" xMax="554" yMax="643">
      <contour>
        <pt x="129" y="0" on="1"/>
        <pt x="100" y="0" on="1"/>
        <pt x="89" y="0" on="0"/>
        <pt x="89" y="12" on="1"/>
        <pt x="89" y="456" on="1"/>
        <pt x="89" y="465" on="0"/>
        <pt x="80" y="465" on="1"/>
        <pt x="36" y="465" on="1"/>
        <pt x="25" y="465" on="0"/>
        <pt x="25" y="476" on="1"/>
        <pt x="25" y="496" on="1"/>
        <pt x="25" y="507" on="0"/>
        <pt x="36" y="507" on="1"/>
        <pt x="80" y="507" on="1"/>
        <pt x="89" y="507" on="0"/>
        <pt x="89" y="516" on="1"/>
        <pt x="89" y="631" on="1"/>
        <pt x="89" y="643" on="0"/>
        <pt x="100" y="643" on="1"/>
        <pt x="129" y="643" on="1"/>
        <pt x="140" y="643" on="0"/>
        <pt x="140" y="631" on="1"/>
        <pt x="140" y="516" on="1"/>
        <pt x="140" y="507" on="0"/>
        <pt x="149" y="507" on="1"/>
        <pt x="430" y="507" on="1"/>
        <pt x="439" y="507" on="0"/>
        <pt x="439" y="515" on="1"/>
        <pt x="439" y="631" on="1"/>
        <pt x="439" y="643" on="0"/>
        <pt x="450" y="643" on="1"/>
        <pt x="479" y="643" on="1"/>
        <pt x="490" y="643" on="0"/>
        <pt x="490" y="631" on="1"/>
        <pt x="490" y="516" on="1"/>
        <pt x="490" y="507" on="0"/>
        <pt x="499" y="507" on="1"/>
        <pt x="543" y="507" on="1"/>
        <pt x="554" y="507" on="0"/>
        <pt x="554" y="496" on="1"/>
        <pt x="554" y="476" on="1"/>
        <pt x="554" y="465" on="0"/>
        <pt x="543" y="465" on="1"/>
        <pt x="499" y="465" on="1"/>
        <pt x="490" y="465" on="0"/>
        <pt x="490" y="456" on="1"/>
        <pt x="490" y="12" on="1"/>
        <pt x="490" y="0" on="0"/>
        <pt x="479" y="0" on="1"/>
        <pt x="450" y="0" on="1"/>
        <pt x="439" y="0" on="0"/>
        <pt x="439" y="12" on="1"/>
        <pt x="439" y="292" on="1"/>
        <pt x="439" y="300" on="0"/>
        <pt x="430" y="300" on="1"/>
        <pt x="149" y="300" on="1"/>
        <pt x="140" y="300" on="0"/>
        <pt x="140" y="292" on="1"/>
        <pt x="140" y="12" on="1"/>
        <pt x="140" y="0" on="0"/>
      </contour>
      <contour>
        <pt x="149" y="346" on="1"/>
        <pt x="430" y="346" on="1"/>
        <pt x="439" y="346" on="0"/>
        <pt x="439" y="354" on="1"/>
        <pt x="439" y="456" on="1"/>
        <pt x="439" y="465" on="0"/>
        <pt x="430" y="465" on="1"/>
        <pt x="149" y="465" on="1"/>
        <pt x="140" y="465" on="0"/>
        <pt x="140" y="456" on="1"/>
        <pt x="140" y="354" on="1"/>
        <pt x="140" y="346" on="0"/>
      </contour>
    </TTGlyph>
    <TTGlyph name="I" xMin="90" yMin="0" xMax="140" yMax="643">
      <contour>
        <pt x="140" y="631" on="1"/>
        <pt x="140" y="12" on="1"/>
        <pt x="140" y="0" on="0"/>
        <pt x="129" y="0" on="1"/>
        <pt x="100" y="0" on="1"/>
        <pt x="90" y="0" on="0"/>
        <pt x="90" y="12" on="1"/>
        <pt x="90" y="631" on="1"/>
        <pt x="90" y="643" on="0"/>
        <pt x="100" y="643" on="1"/>
        <pt x="129" y="643" on="1"/>
        <pt x="140" y="643" on="0"/>
      </contour>
    </TTGlyph>
    <TTGlyph name="IJ" xMin="91" yMin="0" xMax="644" yMax="643">
      <contour>
        <pt x="605" y="643" on="1"/>
        <pt x="633" y="643" on="1"/>
        <pt x="644" y="643" on="0"/>
        <pt x="644" y="632" on="1"/>
        <pt x="644" y="142" on="1"/>
        <pt x="644" y="76" on="0"/>
        <pt x="569" y="0" on="0"/>
        <pt x="504" y="0" on="1"/>
        <pt x="404" y="0" on="1"/>
        <pt x="339" y="0" on="0"/>
        <pt x="263" y="76" on="0"/>
        <pt x="263" y="142" on="1"/>
        <pt x="263" y="225" on="1"/>
        <pt x="263" y="236" on="0"/>
        <pt x="274" y="236" on="1"/>
        <pt x="303" y="236" on="1"/>
        <pt x="314" y="236" on="0"/>
        <pt x="314" y="225" on="1"/>
        <pt x="314" y="144" on="1"/>
        <pt x="314" y="96" on="0"/>
        <pt x="362" y="45" on="0"/>
        <pt x="408" y="45" on="1"/>
        <pt x="499" y="45" on="1"/>
        <pt x="545" y="45" on="0"/>
        <pt x="594" y="96" on="0"/>
        <pt x="594" y="144" on="1"/>
        <pt x="594" y="631" on="1"/>
        <pt x="594" y="643" on="0"/>
      </contour>
      <contour>
        <pt x="141" y="631" on="1"/>
        <pt x="141" y="12" on="1"/>
        <pt x="141" y="0" on="0"/>
        <pt x="130" y="0" on="1"/>
        <pt x="101" y="0" on="1"/>
        <pt x="91" y="0" on="0"/>
        <pt x="91" y="12" on="1"/>
        <pt x="91" y="631" on="1"/>
        <pt x="91" y="643" on="0"/>
        <pt x="101" y="643" on="1"/>
        <pt x="130" y="643" on="1"/>
        <pt x="141" y="643" on="0"/>
      </contour>
    </TTGlyph>
    <TTGlyph name="Iacute" xMin="90" yMin="0" xMax="233" yMax="836">
      <contour>
        <pt x="181" y="836" on="1"/>
        <pt x="226" y="836" on="1"/>
        <pt x="231" y="836" on="0"/>
        <pt x="235" y="830" on="0"/>
        <pt x="231" y="825" on="1"/>
        <pt x="141" y="716" on="1"/>
        <pt x="135" y="707" on="0"/>
        <pt x="125" y="707" on="1"/>
        <pt x="105" y="707" on="1"/>
        <pt x="94" y="707" on="0"/>
        <pt x="100" y="719" on="1"/>
        <pt x="163" y="825" on="1"/>
        <pt x="168" y="836" on="0"/>
      </contour>
      <contour>
        <pt x="140" y="631" on="1"/>
        <pt x="140" y="12" on="1"/>
        <pt x="140" y="0" on="0"/>
        <pt x="129" y="0" on="1"/>
        <pt x="100" y="0" on="1"/>
        <pt x="90" y="0" on="0"/>
        <pt x="90" y="12" on="1"/>
        <pt x="90" y="631" on="1"/>
        <pt x="90" y="643" on="0"/>
        <pt x="100" y="643" on="1"/>
        <pt x="129" y="643" on="1"/>
        <pt x="140" y="643" on="0"/>
      </contour>
    </TTGlyph>
    <TTGlyph name="Ibreve" xMin="16" yMin="0" xMax="215" yMax="836">
      <contour>
        <pt x="16" y="826" on="1"/>
        <pt x="16" y="836" on="0"/>
        <pt x="25" y="836" on="1"/>
        <pt x="43" y="836" on="1"/>
        <pt x="53" y="836" on="0"/>
        <pt x="53" y="826" on="1"/>
        <pt x="53" y="815" on="1"/>
        <pt x="53" y="772" on="0"/>
        <pt x="80" y="738" on="0"/>
        <pt x="113" y="738" on="1"/>
        <pt x="117" y="738" on="1"/>
        <pt x="152" y="738" on="0"/>
        <pt x="180" y="773" on="0"/>
        <pt x="180" y="815" on="1"/>
        <pt x="180" y="825" on="1"/>
        <pt x="180" y="835" on="0"/>
        <pt x="189" y="835" on="1"/>
        <pt x="206" y="835" on="1"/>
        <pt x="215" y="835" on="0"/>
        <pt x="215" y="825" on="1"/>
        <pt x="215" y="814" on="1"/>
        <pt x="215" y="707" on="0"/>
        <pt x="120" y="707" on="1"/>
        <pt x="110" y="707" on="1"/>
        <pt x="16" y="707" on="0"/>
        <pt x="16" y="814" on="1"/>
      </contour>
      <contour>
        <pt x="140" y="631" on="1"/>
        <pt x="140" y="12" on="1"/>
        <pt x="140" y="0" on="0"/>
        <pt x="129" y="0" on="1"/>
        <pt x="100" y="0" on="1"/>
        <pt x="90" y="0" on="0"/>
        <pt x="90" y="12" on="1"/>
        <pt x="90" y="631" on="1"/>
        <pt x="90" y="643" on="0"/>
        <pt x="100" y="643" on="1"/>
        <pt x="129" y="643" on="1"/>
        <pt x="140" y="643" on="0"/>
      </contour>
    </TTGlyph>
    <TTGlyph name="Icircumflex" xMin="21" yMin="0" xMax="209" yMax="836">
      <contour>
        <pt x="204" y="707" on="1"/>
        <pt x="180" y="707" on="1"/>
        <pt x="172" y="707" on="0"/>
        <pt x="168" y="713" on="1"/>
        <pt x="115" y="810" on="1"/>
        <pt x="61" y="713" on="1"/>
        <pt x="59" y="707" on="0"/>
        <pt x="49" y="707" on="1"/>
        <pt x="26" y="707" on="1"/>
        <pt x="14" y="707" on="0"/>
        <pt x="21" y="718" on="1"/>
        <pt x="84" y="827" on="1"/>
        <pt x="90" y="836" on="0"/>
        <pt x="104" y="836" on="1"/>
        <pt x="126" y="836" on="1"/>
        <pt x="139" y="836" on="0"/>
        <pt x="145" y="827" on="1"/>
        <pt x="209" y="718" on="1"/>
        <pt x="216" y="707" on="0"/>
      </contour>
      <contour>
        <pt x="140" y="631" on="1"/>
        <pt x="140" y="12" on="1"/>
        <pt x="140" y="0" on="0"/>
        <pt x="129" y="0" on="1"/>
        <pt x="100" y="0" on="1"/>
        <pt x="90" y="0" on="0"/>
        <pt x="90" y="12" on="1"/>
        <pt x="90" y="631" on="1"/>
        <pt x="90" y="643" on="0"/>
        <pt x="100" y="643" on="1"/>
        <pt x="129" y="643" on="1"/>
        <pt x="140" y="643" on="0"/>
      </contour>
    </TTGlyph>
    <TTGlyph name="Idieresis" xMin="9" yMin="0" xMax="221" yMax="836">
      <contour>
        <pt x="9" y="719" on="1"/>
        <pt x="9" y="825" on="1"/>
        <pt x="9" y="836" on="0"/>
        <pt x="19" y="836" on="1"/>
        <pt x="47" y="836" on="1"/>
        <pt x="58" y="836" on="0"/>
        <pt x="58" y="825" on="1"/>
        <pt x="58" y="719" on="1"/>
        <pt x="58" y="707" on="0"/>
        <pt x="47" y="707" on="1"/>
        <pt x="19" y="707" on="1"/>
        <pt x="9" y="707" on="0"/>
      </contour>
      <contour>
        <pt x="172" y="719" on="1"/>
        <pt x="172" y="825" on="1"/>
        <pt x="172" y="836" on="0"/>
        <pt x="182" y="836" on="1"/>
        <pt x="210" y="836" on="1"/>
        <pt x="221" y="836" on="0"/>
        <pt x="221" y="825" on="1"/>
        <pt x="221" y="719" on="1"/>
        <pt x="221" y="707" on="0"/>
        <pt x="210" y="707" on="1"/>
        <pt x="182" y="707" on="1"/>
        <pt x="172" y="707" on="0"/>
      </contour>
      <contour>
        <pt x="140" y="631" on="1"/>
        <pt x="140" y="12" on="1"/>
        <pt x="140" y="0" on="0"/>
        <pt x="129" y="0" on="1"/>
        <pt x="100" y="0" on="1"/>
        <pt x="90" y="0" on="0"/>
        <pt x="90" y="12" on="1"/>
        <pt x="90" y="631" on="1"/>
        <pt x="90" y="643" on="0"/>
        <pt x="100" y="643" on="1"/>
        <pt x="129" y="643" on="1"/>
        <pt x="140" y="643" on="0"/>
      </contour>
    </TTGlyph>
    <TTGlyph name="Idotaccent" xMin="90" yMin="0" xMax="140" yMax="806">
      <contour>
        <pt x="140" y="631" on="1"/>
        <pt x="140" y="12" on="1"/>
        <pt x="140" y="0" on="0"/>
        <pt x="129" y="0" on="1"/>
        <pt x="100" y="0" on="1"/>
        <pt x="90" y="0" on="0"/>
        <pt x="90" y="12" on="1"/>
        <pt x="90" y="631" on="1"/>
        <pt x="90" y="643" on="0"/>
        <pt x="100" y="643" on="1"/>
        <pt x="129" y="643" on="1"/>
        <pt x="140" y="643" on="0"/>
      </contour>
      <contour>
        <pt x="90" y="699" on="1"/>
        <pt x="90" y="795" on="1"/>
        <pt x="90" y="806" on="0"/>
        <pt x="100" y="806" on="1"/>
        <pt x="130" y="806" on="1"/>
        <pt x="140" y="806" on="0"/>
        <pt x="140" y="795" on="1"/>
        <pt x="140" y="699" on="1"/>
        <pt x="140" y="687" on="0"/>
        <pt x="130" y="687" on="1"/>
        <pt x="100" y="687" on="1"/>
        <pt x="90" y="687" on="0"/>
      </contour>
    </TTGlyph>
    <TTGlyph name="Igrave" xMin="0" yMin="0" xMax="140" yMax="836">
      <contour>
        <pt x="126" y="707" on="1"/>
        <pt x="106" y="707" on="1"/>
        <pt x="96" y="707" on="0"/>
        <pt x="89" y="716" on="1"/>
        <pt x="0" y="825" on="1"/>
        <pt x="-9" y="836" on="0"/>
        <pt x="5" y="836" on="1"/>
        <pt x="49" y="836" on="1"/>
        <pt x="62" y="836" on="0"/>
        <pt x="67" y="825" on="1"/>
        <pt x="130" y="719" on="1"/>
        <pt x="136" y="707" on="0"/>
      </contour>
      <contour>
        <pt x="140" y="631" on="1"/>
        <pt x="140" y="12" on="1"/>
        <pt x="140" y="0" on="0"/>
        <pt x="129" y="0" on="1"/>
        <pt x="100" y="0" on="1"/>
        <pt x="90" y="0" on="0"/>
        <pt x="90" y="12" on="1"/>
        <pt x="90" y="631" on="1"/>
        <pt x="90" y="643" on="0"/>
        <pt x="100" y="643" on="1"/>
        <pt x="129" y="643" on="1"/>
        <pt x="140" y="643" on="0"/>
      </contour>
    </TTGlyph>
    <TTGlyph name="Imacron" xMin="2" yMin="0" xMax="228" yMax="792">
      <contour>
        <pt x="216" y="752" on="1"/>
        <pt x="14" y="752" on="1"/>
        <pt x="2" y="752" on="0"/>
        <pt x="2" y="762" on="1"/>
        <pt x="2" y="781" on="1"/>
        <pt x="2" y="792" on="0"/>
        <pt x="14" y="792" on="1"/>
        <pt x="216" y="792" on="1"/>
        <pt x="228" y="792" on="0"/>
        <pt x="228" y="781" on="1"/>
        <pt x="228" y="762" on="1"/>
        <pt x="228" y="752" on="0"/>
      </contour>
      <contour>
        <pt x="140" y="631" on="1"/>
        <pt x="140" y="12" on="1"/>
        <pt x="140" y="0" on="0"/>
        <pt x="129" y="0" on="1"/>
        <pt x="100" y="0" on="1"/>
        <pt x="90" y="0" on="0"/>
        <pt x="90" y="12" on="1"/>
        <pt x="90" y="631" on="1"/>
        <pt x="90" y="643" on="0"/>
        <pt x="100" y="643" on="1"/>
        <pt x="129" y="643" on="1"/>
        <pt x="140" y="643" on="0"/>
      </contour>
    </TTGlyph>
    <TTGlyph name="Iogonek" xMin="31" yMin="-106" xMax="140" yMax="643">
      <contour>
        <pt x="100" y="643" on="1"/>
        <pt x="129" y="643" on="1"/>
        <pt x="140" y="643" on="0"/>
        <pt x="140" y="631" on="1"/>
        <pt x="140" y="12" on="1"/>
        <pt x="140" y="0" on="0"/>
        <pt x="129" y="0" on="1"/>
        <pt x="122" y="0" on="1"/>
        <pt x="70" y="-70" on="1"/>
        <pt x="108" y="-70" on="1"/>
        <pt x="125" y="-70" on="0"/>
        <pt x="136" y="-75" on="0"/>
        <pt x="136" y="-93" on="0"/>
        <pt x="92" y="-106" on="0"/>
        <pt x="38" y="-106" on="0"/>
        <pt x="25" y="-81" on="0"/>
        <pt x="37" y="-66" on="1"/>
        <pt x="91" y="5" on="1"/>
        <pt x="90" y="7" on="0"/>
        <pt x="90" y="12" on="1"/>
        <pt x="90" y="631" on="1"/>
        <pt x="90" y="643" on="0"/>
      </contour>
    </TTGlyph>
    <TTGlyph name="Itilde" xMin="8" yMin="0" xMax="222" yMax="831">
      <contour>
        <pt x="116" y="724" on="0"/>
        <pt x="90" y="702" on="0"/>
        <pt x="34" y="702" on="0"/>
        <pt x="8" y="739" on="0"/>
        <pt x="8" y="780" on="1"/>
        <pt x="8" y="819" on="1"/>
        <pt x="8" y="828" on="0"/>
        <pt x="17" y="828" on="1"/>
        <pt x="31" y="828" on="1"/>
        <pt x="39" y="828" on="0"/>
        <pt x="39" y="819" on="1"/>
        <pt x="39" y="786" on="1"/>
        <pt x="39" y="756" on="0"/>
        <pt x="51" y="733" on="0"/>
        <pt x="81" y="733" on="0"/>
        <pt x="93" y="751" on="0"/>
        <pt x="117" y="812" on="0"/>
        <pt x="140" y="831" on="0"/>
        <pt x="196" y="831" on="0"/>
        <pt x="222" y="794" on="0"/>
        <pt x="222" y="754" on="1"/>
        <pt x="222" y="713" on="1"/>
        <pt x="222" y="703" on="0"/>
        <pt x="213" y="703" on="1"/>
        <pt x="199" y="703" on="1"/>
        <pt x="191" y="703" on="0"/>
        <pt x="191" y="713" on="1"/>
        <pt x="191" y="747" on="1"/>
        <pt x="191" y="778" on="0"/>
        <pt x="179" y="801" on="0"/>
        <pt x="145" y="801" on="0"/>
        <pt x="138" y="784" on="1"/>
        <pt x="136" y="781" on="0"/>
      </contour>
      <contour>
        <pt x="140" y="631" on="1"/>
        <pt x="140" y="12" on="1"/>
        <pt x="140" y="0" on="0"/>
        <pt x="129" y="0" on="1"/>
        <pt x="100" y="0" on="1"/>
        <pt x="90" y="0" on="0"/>
        <pt x="90" y="12" on="1"/>
        <pt x="90" y="631" on="1"/>
        <pt x="90" y="643" on="0"/>
        <pt x="100" y="643" on="1"/>
        <pt x="129" y="643" on="1"/>
        <pt x="140" y="643" on="0"/>
      </contour>
    </TTGlyph>
    <TTGlyph name="J" xMin="38" yMin="0" xMax="419" yMax="643">
      <contour>
        <pt x="380" y="643" on="1"/>
        <pt x="408" y="643" on="1"/>
        <pt x="419" y="643" on="0"/>
        <pt x="419" y="632" on="1"/>
        <pt x="419" y="142" on="1"/>
        <pt x="419" y="76" on="0"/>
        <pt x="344" y="0" on="0"/>
        <pt x="279" y="0" on="1"/>
        <pt x="179" y="0" on="1"/>
        <pt x="114" y="0" on="0"/>
        <pt x="38" y="76" on="0"/>
        <pt x="38" y="142" on="1"/>
        <pt x="38" y="225" on="1"/>
        <pt x="38" y="236" on="0"/>
        <pt x="49" y="236" on="1"/>
        <pt x="78" y="236" on="1"/>
        <pt x="89" y="236" on="0"/>
        <pt x="89" y="225" on="1"/>
        <pt x="89" y="144" on="1"/>
        <pt x="89" y="96" on="0"/>
        <pt x="137" y="45" on="0"/>
        <pt x="183" y="45" on="1"/>
        <pt x="274" y="45" on="1"/>
        <pt x="320" y="45" on="0"/>
        <pt x="369" y="96" on="0"/>
        <pt x="369" y="144" on="1"/>
        <pt x="369" y="631" on="1"/>
        <pt x="369" y="643" on="0"/>
      </contour>
    </TTGlyph>
    <TTGlyph name="Jcircumflex" xMin="38" yMin="0" xMax="485" yMax="836">
      <contour>
        <pt x="380" y="643" on="1"/>
        <pt x="408" y="643" on="1"/>
        <pt x="419" y="643" on="0"/>
        <pt x="419" y="632" on="1"/>
        <pt x="419" y="142" on="1"/>
        <pt x="419" y="76" on="0"/>
        <pt x="344" y="0" on="0"/>
        <pt x="279" y="0" on="1"/>
        <pt x="179" y="0" on="1"/>
        <pt x="114" y="0" on="0"/>
        <pt x="38" y="76" on="0"/>
        <pt x="38" y="142" on="1"/>
        <pt x="38" y="225" on="1"/>
        <pt x="38" y="236" on="0"/>
        <pt x="49" y="236" on="1"/>
        <pt x="78" y="236" on="1"/>
        <pt x="89" y="236" on="0"/>
        <pt x="89" y="225" on="1"/>
        <pt x="89" y="144" on="1"/>
        <pt x="89" y="96" on="0"/>
        <pt x="137" y="45" on="0"/>
        <pt x="183" y="45" on="1"/>
        <pt x="274" y="45" on="1"/>
        <pt x="320" y="45" on="0"/>
        <pt x="369" y="96" on="0"/>
        <pt x="369" y="144" on="1"/>
        <pt x="369" y="631" on="1"/>
        <pt x="369" y="643" on="0"/>
      </contour>
      <contour>
        <pt x="480" y="707" on="1"/>
        <pt x="456" y="707" on="1"/>
        <pt x="446" y="707" on="0"/>
        <pt x="444" y="713" on="1"/>
        <pt x="391" y="810" on="1"/>
        <pt x="337" y="713" on="1"/>
        <pt x="335" y="707" on="0"/>
        <pt x="325" y="707" on="1"/>
        <pt x="301" y="707" on="1"/>
        <pt x="290" y="707" on="0"/>
        <pt x="297" y="718" on="1"/>
        <pt x="360" y="827" on="1"/>
        <pt x="366" y="836" on="0"/>
        <pt x="380" y="836" on="1"/>
        <pt x="402" y="836" on="1"/>
        <pt x="415" y="836" on="0"/>
        <pt x="421" y="827" on="1"/>
        <pt x="485" y="718" on="1"/>
        <pt x="492" y="707" on="0"/>
      </contour>
    </TTGlyph>
    <TTGlyph name="K" xMin="85" yMin="0" xMax="502" yMax="643">
      <contour>
        <pt x="124" y="0" on="1"/>
        <pt x="95" y="0" on="1"/>
        <pt x="85" y="0" on="0"/>
        <pt x="85" y="12" on="1"/>
        <pt x="85" y="631" on="1"/>
        <pt x="85" y="643" on="0"/>
        <pt x="95" y="643" on="1"/>
        <pt x="124" y="643" on="1"/>
        <pt x="135" y="643" on="0"/>
        <pt x="135" y="631" on="1"/>
        <pt x="135" y="262" on="1"/>
        <pt x="139" y="262" on="1"/>
        <pt x="145" y="278" on="0"/>
        <pt x="157" y="295" on="1"/>
        <pt x="411" y="631" on="1"/>
        <pt x="420" y="643" on="0"/>
        <pt x="432" y="643" on="1"/>
        <pt x="467" y="643" on="1"/>
        <pt x="480" y="643" on="0"/>
        <pt x="471" y="631" on="1"/>
        <pt x="270" y="362" on="1"/>
        <pt x="502" y="12" on="1"/>
        <pt x="510" y="0" on="0"/>
        <pt x="496" y="0" on="1"/>
        <pt x="468" y="0" on="1"/>
        <pt x="453" y="0" on="0"/>
        <pt x="446" y="12" on="1"/>
        <pt x="238" y="324" on="1"/>
        <pt x="135" y="200" on="1"/>
        <pt x="135" y="12" on="1"/>
        <pt x="135" y="0" on="0"/>
      </contour>
    </TTGlyph>
    <TTGlyph name="L" xMin="85" yMin="0" xMax="425" yMax="643">
      <contour>
        <pt x="413" y="0" on="1"/>
        <pt x="95" y="0" on="1"/>
        <pt x="85" y="0" on="0"/>
        <pt x="85" y="12" on="1"/>
        <pt x="85" y="631" on="1"/>
        <pt x="85" y="643" on="0"/>
        <pt x="95" y="643" on="1"/>
        <pt x="124" y="643" on="1"/>
        <pt x="135" y="643" on="0"/>
        <pt x="135" y="631" on="1"/>
        <pt x="135" y="56" on="1"/>
        <pt x="135" y="47" on="0"/>
        <pt x="145" y="47" on="1"/>
        <pt x="413" y="47" on="1"/>
        <pt x="425" y="47" on="0"/>
        <pt x="425" y="36" on="1"/>
        <pt x="425" y="11" on="1"/>
        <pt x="425" y="0" on="0"/>
      </contour>
    </TTGlyph>
    <TTGlyph name="Lacute" xMin="85" yMin="0" xMax="425" yMax="836">
      <contour>
        <pt x="176" y="836" on="1"/>
        <pt x="221" y="836" on="1"/>
        <pt x="233" y="836" on="0"/>
        <pt x="226" y="825" on="1"/>
        <pt x="136" y="716" on="1"/>
        <pt x="129" y="707" on="0"/>
        <pt x="119" y="707" on="1"/>
        <pt x="99" y="707" on="1"/>
        <pt x="89" y="707" on="0"/>
        <pt x="95" y="719" on="1"/>
        <pt x="158" y="825" on="1"/>
        <pt x="164" y="836" on="0"/>
      </contour>
      <contour>
        <pt x="413" y="0" on="1"/>
        <pt x="95" y="0" on="1"/>
        <pt x="85" y="0" on="0"/>
        <pt x="85" y="12" on="1"/>
        <pt x="85" y="631" on="1"/>
        <pt x="85" y="643" on="0"/>
        <pt x="95" y="643" on="1"/>
        <pt x="124" y="643" on="1"/>
        <pt x="135" y="643" on="0"/>
        <pt x="135" y="631" on="1"/>
        <pt x="135" y="56" on="1"/>
        <pt x="135" y="47" on="0"/>
        <pt x="145" y="47" on="1"/>
        <pt x="413" y="47" on="1"/>
        <pt x="425" y="47" on="0"/>
        <pt x="425" y="36" on="1"/>
        <pt x="425" y="11" on="1"/>
        <pt x="425" y="0" on="0"/>
      </contour>
    </TTGlyph>
    <TTGlyph name="Lcaron" xMin="85" yMin="0" xMax="425" yMax="643">
      <contour>
        <pt x="362" y="632" on="1"/>
        <pt x="362" y="563" on="1"/>
        <pt x="362" y="547" on="0"/>
        <pt x="351" y="503" on="1"/>
        <pt x="325" y="412" on="1"/>
        <pt x="322" y="405" on="0"/>
        <pt x="317" y="405" on="1"/>
        <pt x="309" y="405" on="0"/>
        <pt x="309" y="414" on="1"/>
        <pt x="309" y="632" on="1"/>
        <pt x="309" y="643" on="0"/>
        <pt x="319" y="643" on="1"/>
        <pt x="351" y="643" on="1"/>
        <pt x="362" y="643" on="0"/>
      </contour>
      <contour>
        <pt x="413" y="0" on="1"/>
        <pt x="95" y="0" on="1"/>
        <pt x="85" y="0" on="0"/>
        <pt x="85" y="12" on="1"/>
        <pt x="85" y="631" on="1"/>
        <pt x="85" y="643" on="0"/>
        <pt x="95" y="643" on="1"/>
        <pt x="124" y="643" on="1"/>
        <pt x="135" y="643" on="0"/>
        <pt x="135" y="631" on="1"/>
        <pt x="135" y="56" on="1"/>
        <pt x="135" y="47" on="0"/>
        <pt x="145" y="47" on="1"/>
        <pt x="413" y="47" on="1"/>
        <pt x="425" y="47" on="0"/>
        <pt x="425" y="36" on="1"/>
        <pt x="425" y="11" on="1"/>
        <pt x="425" y="0" on="0"/>
      </contour>
    </TTGlyph>
    <TTGlyph name="Ldot" xMin="86" yMin="0" xMax="426" yMax="643">
      <contour>
        <pt x="415" y="0" on="1"/>
        <pt x="97" y="0" on="1"/>
        <pt x="86" y="0" on="0"/>
        <pt x="86" y="12" on="1"/>
        <pt x="86" y="631" on="1"/>
        <pt x="86" y="643" on="0"/>
        <pt x="97" y="643" on="1"/>
        <pt x="126" y="643" on="1"/>
        <pt x="137" y="643" on="0"/>
        <pt x="137" y="631" on="1"/>
        <pt x="137" y="56" on="1"/>
        <pt x="137" y="47" on="0"/>
        <pt x="146" y="47" on="1"/>
        <pt x="415" y="47" on="1"/>
        <pt x="426" y="47" on="0"/>
        <pt x="426" y="36" on="1"/>
        <pt x="426" y="11" on="1"/>
        <pt x="426" y="0" on="0"/>
      </contour>
      <contour>
        <pt x="333" y="376" on="1"/>
        <pt x="333" y="262" on="1"/>
        <pt x="333" y="250" on="0"/>
        <pt x="323" y="250" on="1"/>
        <pt x="287" y="250" on="1"/>
        <pt x="277" y="250" on="0"/>
        <pt x="277" y="262" on="1"/>
        <pt x="277" y="376" on="1"/>
        <pt x="277" y="387" on="0"/>
        <pt x="287" y="387" on="1"/>
        <pt x="323" y="387" on="1"/>
        <pt x="333" y="387" on="0"/>
      </contour>
    </TTGlyph>
    <TTGlyph name="Lslash" xMin="9" yMin="0" xMax="432" yMax="643">
      <contour>
        <pt x="421" y="0" on="1"/>
        <pt x="103" y="0" on="1"/>
        <pt x="92" y="0" on="0"/>
        <pt x="92" y="12" on="1"/>
        <pt x="92" y="376" on="1"/>
        <pt x="20" y="335" on="1"/>
        <pt x="9" y="330" on="0"/>
        <pt x="9" y="341" on="1"/>
        <pt x="9" y="367" on="1"/>
        <pt x="9" y="377" on="0"/>
        <pt x="20" y="383" on="1"/>
        <pt x="92" y="424" on="1"/>
        <pt x="92" y="631" on="1"/>
        <pt x="92" y="643" on="0"/>
        <pt x="103" y="643" on="1"/>
        <pt x="132" y="643" on="1"/>
        <pt x="143" y="643" on="0"/>
        <pt x="143" y="631" on="1"/>
        <pt x="143" y="453" on="1"/>
        <pt x="244" y="510" on="1"/>
        <pt x="255" y="516" on="0"/>
        <pt x="255" y="504" on="1"/>
        <pt x="255" y="478" on="1"/>
        <pt x="255" y="468" on="0"/>
        <pt x="244" y="462" on="1"/>
        <pt x="143" y="405" on="1"/>
        <pt x="143" y="56" on="1"/>
        <pt x="143" y="47" on="0"/>
        <pt x="152" y="47" on="1"/>
        <pt x="421" y="47" on="1"/>
        <pt x="432" y="47" on="0"/>
        <pt x="432" y="36" on="1"/>
        <pt x="432" y="11" on="1"/>
        <pt x="432" y="0" on="0"/>
      </contour>
    </TTGlyph>
    <TTGlyph name="M" xMin="85" yMin="0" xMax="611" yMax="643">
      <contour>
        <pt x="547" y="643" on="1"/>
        <pt x="601" y="643" on="1"/>
        <pt x="611" y="643" on="0"/>
        <pt x="611" y="631" on="1"/>
        <pt x="611" y="12" on="1"/>
        <pt x="611" y="0" on="0"/>
        <pt x="601" y="0" on="1"/>
        <pt x="572" y="0" on="1"/>
        <pt x="561" y="0" on="0"/>
        <pt x="561" y="12" on="1"/>
        <pt x="561" y="566" on="1"/>
        <pt x="557" y="566" on="1"/>
        <pt x="380" y="151" on="1"/>
        <pt x="374" y="140" on="0"/>
        <pt x="365" y="140" on="1"/>
        <pt x="332" y="140" on="1"/>
        <pt x="322" y="140" on="0"/>
        <pt x="318" y="151" on="1"/>
        <pt x="138" y="567" on="1"/>
        <pt x="134" y="567" on="1"/>
        <pt x="134" y="12" on="1"/>
        <pt x="134" y="0" on="0"/>
        <pt x="124" y="0" on="1"/>
        <pt x="95" y="0" on="1"/>
        <pt x="85" y="0" on="0"/>
        <pt x="85" y="12" on="1"/>
        <pt x="85" y="631" on="1"/>
        <pt x="85" y="643" on="0"/>
        <pt x="95" y="643" on="1"/>
        <pt x="149" y="643" on="1"/>
        <pt x="156" y="643" on="0"/>
        <pt x="158" y="637" on="1"/>
        <pt x="346" y="198" on="1"/>
        <pt x="350" y="198" on="1"/>
        <pt x="538" y="637" on="1"/>
        <pt x="540" y="643" on="0"/>
      </contour>
    </TTGlyph>
    <TTGlyph name="Mu" xMin="82" yMin="-133" xMax="445" yMax="510">
      <contour>
        <pt x="133" y="-121" on="1"/>
        <pt x="133" y="-133" on="0"/>
        <pt x="122" y="-133" on="1"/>
        <pt x="93" y="-133" on="1"/>
        <pt x="82" y="-133" on="0"/>
        <pt x="82" y="-121" on="1"/>
        <pt x="82" y="498" on="1"/>
        <pt x="82" y="510" on="0"/>
        <pt x="93" y="510" on="1"/>
        <pt x="122" y="510" on="1"/>
        <pt x="133" y="510" on="0"/>
        <pt x="133" y="498" on="1"/>
        <pt x="133" y="144" on="1"/>
        <pt x="133" y="96" on="0"/>
        <pt x="181" y="45" on="0"/>
        <pt x="227" y="45" on="1"/>
        <pt x="292" y="45" on="1"/>
        <pt x="340" y="45" on="0"/>
        <pt x="395" y="96" on="0"/>
        <pt x="395" y="143" on="1"/>
        <pt x="395" y="498" on="1"/>
        <pt x="395" y="510" on="0"/>
        <pt x="406" y="510" on="1"/>
        <pt x="434" y="510" on="1"/>
        <pt x="445" y="510" on="0"/>
        <pt x="445" y="498" on="1"/>
        <pt x="445" y="12" on="1"/>
        <pt x="445" y="0" on="0"/>
        <pt x="434" y="0" on="1"/>
        <pt x="406" y="0" on="1"/>
        <pt x="395" y="0" on="0"/>
        <pt x="395" y="12" on="1"/>
        <pt x="395" y="52" on="1"/>
        <pt x="391" y="52" on="1"/>
        <pt x="363" y="0" on="0"/>
        <pt x="286" y="0" on="1"/>
        <pt x="280" y="0" on="0"/>
        <pt x="237" y="-1" on="0"/>
        <pt x="220" y="0" on="0"/>
        <pt x="185" y="3" on="0"/>
        <pt x="176" y="7" on="1"/>
        <pt x="147" y="19" on="0"/>
        <pt x="133" y="36" on="1"/>
      </contour>
    </TTGlyph>
    <TTGlyph name="N" xMin="85" yMin="0" xMax="495" yMax="643">
      <contour>
        <pt x="124" y="0" on="1"/>
        <pt x="95" y="0" on="1"/>
        <pt x="85" y="0" on="0"/>
        <pt x="85" y="12" on="1"/>
        <pt x="85" y="631" on="1"/>
        <pt x="85" y="643" on="0"/>
        <pt x="95" y="643" on="1"/>
        <pt x="122" y="643" on="1"/>
        <pt x="131" y="643" on="0"/>
        <pt x="134" y="637" on="1"/>
        <pt x="441" y="109" on="1"/>
        <pt x="445" y="109" on="1"/>
        <pt x="445" y="631" on="1"/>
        <pt x="445" y="643" on="0"/>
        <pt x="456" y="643" on="1"/>
        <pt x="484" y="643" on="1"/>
        <pt x="495" y="643" on="0"/>
        <pt x="495" y="631" on="1"/>
        <pt x="495" y="12" on="1"/>
        <pt x="495" y="0" on="0"/>
        <pt x="484" y="0" on="1"/>
        <pt x="461" y="0" on="1"/>
        <pt x="452" y="0" on="0"/>
        <pt x="445" y="11" on="1"/>
        <pt x="139" y="535" on="1"/>
        <pt x="135" y="535" on="1"/>
        <pt x="135" y="12" on="1"/>
        <pt x="135" y="0" on="0"/>
      </contour>
    </TTGlyph>
    <TTGlyph name="Nacute" xMin="85" yMin="0" xMax="495" yMax="836">
      <contour>
        <pt x="363" y="836" on="1"/>
        <pt x="408" y="836" on="1"/>
        <pt x="420" y="836" on="0"/>
        <pt x="413" y="825" on="1"/>
        <pt x="323" y="716" on="1"/>
        <pt x="317" y="707" on="0"/>
        <pt x="307" y="707" on="1"/>
        <pt x="286" y="707" on="1"/>
        <pt x="276" y="707" on="0"/>
        <pt x="282" y="719" on="1"/>
        <pt x="345" y="825" on="1"/>
        <pt x="350" y="836" on="0"/>
      </contour>
      <contour>
        <pt x="124" y="0" on="1"/>
        <pt x="95" y="0" on="1"/>
        <pt x="85" y="0" on="0"/>
        <pt x="85" y="12" on="1"/>
        <pt x="85" y="631" on="1"/>
        <pt x="85" y="643" on="0"/>
        <pt x="95" y="643" on="1"/>
        <pt x="122" y="643" on="1"/>
        <pt x="131" y="643" on="0"/>
        <pt x="134" y="637" on="1"/>
        <pt x="441" y="109" on="1"/>
        <pt x="445" y="109" on="1"/>
        <pt x="445" y="631" on="1"/>
        <pt x="445" y="643" on="0"/>
        <pt x="456" y="643" on="1"/>
        <pt x="484" y="643" on="1"/>
        <pt x="495" y="643" on="0"/>
        <pt x="495" y="631" on="1"/>
        <pt x="495" y="12" on="1"/>
        <pt x="495" y="0" on="0"/>
        <pt x="484" y="0" on="1"/>
        <pt x="461" y="0" on="1"/>
        <pt x="452" y="0" on="0"/>
        <pt x="445" y="11" on="1"/>
        <pt x="139" y="535" on="1"/>
        <pt x="135" y="535" on="1"/>
        <pt x="135" y="12" on="1"/>
        <pt x="135" y="0" on="0"/>
      </contour>
    </TTGlyph>
    <TTGlyph name="Ncaron" xMin="85" yMin="0" xMax="495" yMax="836">
      <contour>
        <pt x="124" y="0" on="1"/>
        <pt x="95" y="0" on="1"/>
        <pt x="85" y="0" on="0"/>
        <pt x="85" y="12" on="1"/>
        <pt x="85" y="631" on="1"/>
        <pt x="85" y="643" on="0"/>
        <pt x="95" y="643" on="1"/>
        <pt x="122" y="643" on="1"/>
        <pt x="131" y="643" on="0"/>
        <pt x="134" y="637" on="1"/>
        <pt x="441" y="109" on="1"/>
        <pt x="445" y="109" on="1"/>
        <pt x="445" y="631" on="1"/>
        <pt x="445" y="643" on="0"/>
        <pt x="456" y="643" on="1"/>
        <pt x="484" y="643" on="1"/>
        <pt x="495" y="643" on="0"/>
        <pt x="495" y="631" on="1"/>
        <pt x="495" y="12" on="1"/>
        <pt x="495" y="0" on="0"/>
        <pt x="484" y="0" on="1"/>
        <pt x="461" y="0" on="1"/>
        <pt x="452" y="0" on="0"/>
        <pt x="445" y="11" on="1"/>
        <pt x="139" y="535" on="1"/>
        <pt x="135" y="535" on="1"/>
        <pt x="135" y="12" on="1"/>
        <pt x="135" y="0" on="0"/>
      </contour>
      <contour>
        <pt x="281" y="707" on="1"/>
        <pt x="267" y="707" on="0"/>
        <pt x="261" y="716" on="1"/>
        <pt x="197" y="825" on="1"/>
        <pt x="190" y="836" on="0"/>
        <pt x="202" y="836" on="1"/>
        <pt x="226" y="836" on="1"/>
        <pt x="236" y="836" on="0"/>
        <pt x="238" y="830" on="1"/>
        <pt x="292" y="733" on="1"/>
        <pt x="345" y="830" on="1"/>
        <pt x="347" y="836" on="0"/>
        <pt x="357" y="836" on="1"/>
        <pt x="381" y="836" on="1"/>
        <pt x="393" y="836" on="0"/>
        <pt x="386" y="825" on="1"/>
        <pt x="322" y="716" on="1"/>
        <pt x="316" y="707" on="0"/>
        <pt x="302" y="707" on="1"/>
      </contour>
    </TTGlyph>
    <TTGlyph name="Ntilde" xMin="85" yMin="0" xMax="495" yMax="831">
      <contour>
        <pt x="291" y="724" on="0"/>
        <pt x="265" y="702" on="0"/>
        <pt x="209" y="702" on="0"/>
        <pt x="183" y="739" on="0"/>
        <pt x="183" y="780" on="1"/>
        <pt x="183" y="819" on="1"/>
        <pt x="183" y="828" on="0"/>
        <pt x="192" y="828" on="1"/>
        <pt x="206" y="828" on="1"/>
        <pt x="214" y="828" on="0"/>
        <pt x="214" y="819" on="1"/>
        <pt x="214" y="786" on="1"/>
        <pt x="214" y="756" on="0"/>
        <pt x="226" y="733" on="0"/>
        <pt x="255" y="733" on="0"/>
        <pt x="268" y="751" on="0"/>
        <pt x="291" y="811" on="0"/>
        <pt x="315" y="831" on="0"/>
        <pt x="371" y="831" on="0"/>
        <pt x="397" y="794" on="0"/>
        <pt x="397" y="754" on="1"/>
        <pt x="397" y="713" on="1"/>
        <pt x="397" y="703" on="0"/>
        <pt x="388" y="703" on="1"/>
        <pt x="374" y="703" on="1"/>
        <pt x="366" y="703" on="0"/>
        <pt x="366" y="713" on="1"/>
        <pt x="366" y="747" on="1"/>
        <pt x="366" y="778" on="0"/>
        <pt x="354" y="801" on="0"/>
        <pt x="324" y="801" on="0"/>
        <pt x="313" y="787" on="0"/>
        <pt x="305" y="766" on="0"/>
        <pt x="304" y="764" on="0"/>
        <pt x="303" y="760" on="0"/>
        <pt x="302" y="759" on="1"/>
      </contour>
      <contour>
        <pt x="124" y="0" on="1"/>
        <pt x="95" y="0" on="1"/>
        <pt x="85" y="0" on="0"/>
        <pt x="85" y="12" on="1"/>
        <pt x="85" y="631" on="1"/>
        <pt x="85" y="643" on="0"/>
        <pt x="95" y="643" on="1"/>
        <pt x="122" y="643" on="1"/>
        <pt x="131" y="643" on="0"/>
        <pt x="134" y="637" on="1"/>
        <pt x="441" y="109" on="1"/>
        <pt x="445" y="109" on="1"/>
        <pt x="445" y="631" on="1"/>
        <pt x="445" y="643" on="0"/>
        <pt x="456" y="643" on="1"/>
        <pt x="484" y="643" on="1"/>
        <pt x="495" y="643" on="0"/>
        <pt x="495" y="631" on="1"/>
        <pt x="495" y="12" on="1"/>
        <pt x="495" y="0" on="0"/>
        <pt x="484" y="0" on="1"/>
        <pt x="461" y="0" on="1"/>
        <pt x="452" y="0" on="0"/>
        <pt x="445" y="11" on="1"/>
        <pt x="139" y="535" on="1"/>
        <pt x="135" y="535" on="1"/>
        <pt x="135" y="12" on="1"/>
        <pt x="135" y="0" on="0"/>
      </contour>
    </TTGlyph>
    <TTGlyph name="O" xMin="75" yMin="0" xMax="478" yMax="643">
      <contour>
        <pt x="219" y="45" on="1"/>
        <pt x="333" y="45" on="1"/>
        <pt x="379" y="45" on="0"/>
        <pt x="428" y="96" on="0"/>
        <pt x="428" y="144" on="1"/>
        <pt x="428" y="499" on="1"/>
        <pt x="428" y="547" on="0"/>
        <pt x="379" y="598" on="0"/>
        <pt x="333" y="598" on="1"/>
        <pt x="219" y="598" on="1"/>
        <pt x="173" y="598" on="0"/>
        <pt x="125" y="546" on="0"/>
        <pt x="125" y="499" on="1"/>
        <pt x="125" y="144" on="1"/>
        <pt x="125" y="97" on="0"/>
        <pt x="173" y="45" on="0"/>
      </contour>
      <contour>
        <pt x="338" y="0" on="1"/>
        <pt x="215" y="0" on="1"/>
        <pt x="150" y="0" on="0"/>
        <pt x="75" y="76" on="0"/>
        <pt x="75" y="142" on="1"/>
        <pt x="75" y="501" on="1"/>
        <pt x="75" y="567" on="0"/>
        <pt x="150" y="643" on="0"/>
        <pt x="215" y="643" on="1"/>
        <pt x="338" y="643" on="1"/>
        <pt x="403" y="643" on="0"/>
        <pt x="478" y="567" on="0"/>
        <pt x="478" y="501" on="1"/>
        <pt x="478" y="142" on="1"/>
        <pt x="478" y="76" on="0"/>
        <pt x="403" y="0" on="0"/>
      </contour>
    </TTGlyph>
    <TTGlyph name="OE" xMin="76" yMin="0" xMax="700" yMax="643">
      <contour>
        <pt x="76" y="142" on="1"/>
        <pt x="76" y="501" on="1"/>
        <pt x="76" y="567" on="0"/>
        <pt x="152" y="643" on="0"/>
        <pt x="217" y="643" on="1"/>
        <pt x="688" y="643" on="1"/>
        <pt x="700" y="643" on="0"/>
        <pt x="700" y="632" on="1"/>
        <pt x="700" y="609" on="1"/>
        <pt x="700" y="598" on="0"/>
        <pt x="688" y="598" on="1"/>
        <pt x="431" y="598" on="1"/>
        <pt x="421" y="598" on="0"/>
        <pt x="421" y="589" on="1"/>
        <pt x="421" y="359" on="1"/>
        <pt x="421" y="350" on="0"/>
        <pt x="431" y="350" on="1"/>
        <pt x="660" y="350" on="1"/>
        <pt x="671" y="350" on="0"/>
        <pt x="671" y="339" on="1"/>
        <pt x="671" y="316" on="1"/>
        <pt x="671" y="305" on="0"/>
        <pt x="660" y="305" on="1"/>
        <pt x="431" y="305" on="1"/>
        <pt x="421" y="305" on="0"/>
        <pt x="421" y="296" on="1"/>
        <pt x="421" y="54" on="1"/>
        <pt x="421" y="45" on="0"/>
        <pt x="431" y="45" on="1"/>
        <pt x="688" y="45" on="1"/>
        <pt x="700" y="45" on="0"/>
        <pt x="700" y="34" on="1"/>
        <pt x="700" y="11" on="1"/>
        <pt x="700" y="0" on="0"/>
        <pt x="688" y="0" on="1"/>
        <pt x="217" y="0" on="1"/>
        <pt x="152" y="0" on="0"/>
        <pt x="76" y="76" on="0"/>
      </contour>
      <contour>
        <pt x="221" y="45" on="1"/>
        <pt x="361" y="45" on="1"/>
        <pt x="371" y="45" on="0"/>
        <pt x="371" y="54" on="1"/>
        <pt x="371" y="589" on="1"/>
        <pt x="371" y="598" on="0"/>
        <pt x="361" y="598" on="1"/>
        <pt x="221" y="598" on="1"/>
        <pt x="175" y="598" on="0"/>
        <pt x="127" y="547" on="0"/>
        <pt x="127" y="499" on="1"/>
        <pt x="127" y="144" on="1"/>
        <pt x="127" y="96" on="0"/>
        <pt x="175" y="45" on="0"/>
      </contour>
    </TTGlyph>
    <TTGlyph name="Oacute" xMin="75" yMin="0" xMax="478" yMax="836">
      <contour>
        <pt x="335" y="836" on="1"/>
        <pt x="380" y="836" on="1"/>
        <pt x="392" y="836" on="0"/>
        <pt x="385" y="825" on="1"/>
        <pt x="295" y="716" on="1"/>
        <pt x="289" y="707" on="0"/>
        <pt x="278" y="707" on="1"/>
        <pt x="258" y="707" on="1"/>
        <pt x="248" y="707" on="0"/>
        <pt x="254" y="719" on="1"/>
        <pt x="317" y="825" on="1"/>
        <pt x="322" y="836" on="0"/>
      </contour>
      <contour>
        <pt x="219" y="45" on="1"/>
        <pt x="333" y="45" on="1"/>
        <pt x="379" y="45" on="0"/>
        <pt x="428" y="96" on="0"/>
        <pt x="428" y="144" on="1"/>
        <pt x="428" y="499" on="1"/>
        <pt x="428" y="547" on="0"/>
        <pt x="379" y="598" on="0"/>
        <pt x="333" y="598" on="1"/>
        <pt x="219" y="598" on="1"/>
        <pt x="173" y="598" on="0"/>
        <pt x="125" y="546" on="0"/>
        <pt x="125" y="499" on="1"/>
        <pt x="125" y="144" on="1"/>
        <pt x="125" y="97" on="0"/>
        <pt x="173" y="45" on="0"/>
      </contour>
      <contour>
        <pt x="338" y="0" on="1"/>
        <pt x="215" y="0" on="1"/>
        <pt x="150" y="0" on="0"/>
        <pt x="75" y="76" on="0"/>
        <pt x="75" y="142" on="1"/>
        <pt x="75" y="501" on="1"/>
        <pt x="75" y="567" on="0"/>
        <pt x="150" y="643" on="0"/>
        <pt x="215" y="643" on="1"/>
        <pt x="338" y="643" on="1"/>
        <pt x="403" y="643" on="0"/>
        <pt x="478" y="567" on="0"/>
        <pt x="478" y="501" on="1"/>
        <pt x="478" y="142" on="1"/>
        <pt x="478" y="76" on="0"/>
        <pt x="403" y="0" on="0"/>
      </contour>
    </TTGlyph>
    <TTGlyph name="Obreve" xMin="75" yMin="0" xMax="478" yMax="836">
      <contour>
        <pt x="177" y="826" on="1"/>
        <pt x="177" y="836" on="0"/>
        <pt x="186" y="836" on="1"/>
        <pt x="204" y="836" on="1"/>
        <pt x="214" y="836" on="0"/>
        <pt x="214" y="826" on="1"/>
        <pt x="214" y="815" on="1"/>
        <pt x="214" y="772" on="0"/>
        <pt x="241" y="738" on="0"/>
        <pt x="274" y="738" on="1"/>
        <pt x="278" y="738" on="1"/>
        <pt x="313" y="738" on="0"/>
        <pt x="341" y="773" on="0"/>
        <pt x="341" y="815" on="1"/>
        <pt x="341" y="825" on="1"/>
        <pt x="341" y="835" on="0"/>
        <pt x="350" y="835" on="1"/>
        <pt x="367" y="835" on="1"/>
        <pt x="376" y="835" on="0"/>
        <pt x="376" y="825" on="1"/>
        <pt x="376" y="814" on="1"/>
        <pt x="376" y="707" on="0"/>
        <pt x="281" y="707" on="1"/>
        <pt x="271" y="707" on="1"/>
        <pt x="177" y="707" on="0"/>
        <pt x="177" y="814" on="1"/>
      </contour>
      <contour>
        <pt x="219" y="45" on="1"/>
        <pt x="333" y="45" on="1"/>
        <pt x="379" y="45" on="0"/>
        <pt x="428" y="96" on="0"/>
        <pt x="428" y="144" on="1"/>
        <pt x="428" y="499" on="1"/>
        <pt x="428" y="547" on="0"/>
        <pt x="379" y="598" on="0"/>
        <pt x="333" y="598" on="1"/>
        <pt x="219" y="598" on="1"/>
        <pt x="173" y="598" on="0"/>
        <pt x="125" y="546" on="0"/>
        <pt x="125" y="499" on="1"/>
        <pt x="125" y="144" on="1"/>
        <pt x="125" y="97" on="0"/>
        <pt x="173" y="45" on="0"/>
      </contour>
      <contour>
        <pt x="338" y="0" on="1"/>
        <pt x="215" y="0" on="1"/>
        <pt x="150" y="0" on="0"/>
        <pt x="75" y="76" on="0"/>
        <pt x="75" y="142" on="1"/>
        <pt x="75" y="501" on="1"/>
        <pt x="75" y="567" on="0"/>
        <pt x="150" y="643" on="0"/>
        <pt x="215" y="643" on="1"/>
        <pt x="338" y="643" on="1"/>
        <pt x="403" y="643" on="0"/>
        <pt x="478" y="567" on="0"/>
        <pt x="478" y="501" on="1"/>
        <pt x="478" y="142" on="1"/>
        <pt x="478" y="76" on="0"/>
        <pt x="403" y="0" on="0"/>
      </contour>
    </TTGlyph>
    <TTGlyph name="Ocircumflex" xMin="75" yMin="0" xMax="478" yMax="836">
      <contour>
        <pt x="366" y="707" on="1"/>
        <pt x="342" y="707" on="1"/>
        <pt x="332" y="707" on="0"/>
        <pt x="330" y="713" on="1"/>
        <pt x="277" y="810" on="1"/>
        <pt x="223" y="713" on="1"/>
        <pt x="221" y="707" on="0"/>
        <pt x="211" y="707" on="1"/>
        <pt x="187" y="707" on="1"/>
        <pt x="176" y="707" on="0"/>
        <pt x="183" y="718" on="1"/>
        <pt x="246" y="827" on="1"/>
        <pt x="252" y="836" on="0"/>
        <pt x="266" y="836" on="1"/>
        <pt x="288" y="836" on="1"/>
        <pt x="301" y="836" on="0"/>
        <pt x="307" y="827" on="1"/>
        <pt x="371" y="718" on="1"/>
        <pt x="378" y="707" on="0"/>
      </contour>
      <contour>
        <pt x="219" y="45" on="1"/>
        <pt x="333" y="45" on="1"/>
        <pt x="379" y="45" on="0"/>
        <pt x="428" y="96" on="0"/>
        <pt x="428" y="144" on="1"/>
        <pt x="428" y="499" on="1"/>
        <pt x="428" y="547" on="0"/>
        <pt x="379" y="598" on="0"/>
        <pt x="333" y="598" on="1"/>
        <pt x="219" y="598" on="1"/>
        <pt x="173" y="598" on="0"/>
        <pt x="125" y="546" on="0"/>
        <pt x="125" y="499" on="1"/>
        <pt x="125" y="144" on="1"/>
        <pt x="125" y="97" on="0"/>
        <pt x="173" y="45" on="0"/>
      </contour>
      <contour>
        <pt x="338" y="0" on="1"/>
        <pt x="215" y="0" on="1"/>
        <pt x="150" y="0" on="0"/>
        <pt x="75" y="76" on="0"/>
        <pt x="75" y="142" on="1"/>
        <pt x="75" y="501" on="1"/>
        <pt x="75" y="567" on="0"/>
        <pt x="150" y="643" on="0"/>
        <pt x="215" y="643" on="1"/>
        <pt x="338" y="643" on="1"/>
        <pt x="403" y="643" on="0"/>
        <pt x="478" y="567" on="0"/>
        <pt x="478" y="501" on="1"/>
        <pt x="478" y="142" on="1"/>
        <pt x="478" y="76" on="0"/>
        <pt x="403" y="0" on="0"/>
      </contour>
    </TTGlyph>
    <TTGlyph name="Odieresis" xMin="75" yMin="0" xMax="478" yMax="836">
      <contour>
        <pt x="170" y="719" on="1"/>
        <pt x="170" y="825" on="1"/>
        <pt x="170" y="836" on="0"/>
        <pt x="181" y="836" on="1"/>
        <pt x="208" y="836" on="1"/>
        <pt x="219" y="836" on="0"/>
        <pt x="219" y="825" on="1"/>
        <pt x="219" y="719" on="1"/>
        <pt x="219" y="707" on="0"/>
        <pt x="208" y="707" on="1"/>
        <pt x="181" y="707" on="1"/>
        <pt x="170" y="707" on="0"/>
      </contour>
      <contour>
        <pt x="333" y="719" on="1"/>
        <pt x="333" y="825" on="1"/>
        <pt x="333" y="836" on="0"/>
        <pt x="344" y="836" on="1"/>
        <pt x="372" y="836" on="1"/>
        <pt x="382" y="836" on="0"/>
        <pt x="382" y="825" on="1"/>
        <pt x="382" y="719" on="1"/>
        <pt x="382" y="707" on="0"/>
        <pt x="372" y="707" on="1"/>
        <pt x="344" y="707" on="1"/>
        <pt x="333" y="707" on="0"/>
      </contour>
      <contour>
        <pt x="219" y="45" on="1"/>
        <pt x="333" y="45" on="1"/>
        <pt x="379" y="45" on="0"/>
        <pt x="428" y="96" on="0"/>
        <pt x="428" y="144" on="1"/>
        <pt x="428" y="499" on="1"/>
        <pt x="428" y="547" on="0"/>
        <pt x="379" y="598" on="0"/>
        <pt x="333" y="598" on="1"/>
        <pt x="219" y="598" on="1"/>
        <pt x="173" y="598" on="0"/>
        <pt x="125" y="546" on="0"/>
        <pt x="125" y="499" on="1"/>
        <pt x="125" y="144" on="1"/>
        <pt x="125" y="97" on="0"/>
        <pt x="173" y="45" on="0"/>
      </contour>
      <contour>
        <pt x="338" y="0" on="1"/>
        <pt x="215" y="0" on="1"/>
        <pt x="150" y="0" on="0"/>
        <pt x="75" y="76" on="0"/>
        <pt x="75" y="142" on="1"/>
        <pt x="75" y="501" on="1"/>
        <pt x="75" y="567" on="0"/>
        <pt x="150" y="643" on="0"/>
        <pt x="215" y="643" on="1"/>
        <pt x="338" y="643" on="1"/>
        <pt x="403" y="643" on="0"/>
        <pt x="478" y="567" on="0"/>
        <pt x="478" y="501" on="1"/>
        <pt x="478" y="142" on="1"/>
        <pt x="478" y="76" on="0"/>
        <pt x="403" y="0" on="0"/>
      </contour>
    </TTGlyph>
    <TTGlyph name="Ograve" xMin="75" yMin="0" xMax="478" yMax="836">
      <contour>
        <pt x="291" y="707" on="1"/>
        <pt x="270" y="707" on="1"/>
        <pt x="260" y="707" on="0"/>
        <pt x="254" y="716" on="1"/>
        <pt x="164" y="825" on="1"/>
        <pt x="157" y="836" on="0"/>
        <pt x="169" y="836" on="1"/>
        <pt x="214" y="836" on="1"/>
        <pt x="226" y="836" on="0"/>
        <pt x="232" y="825" on="1"/>
        <pt x="295" y="719" on="1"/>
        <pt x="301" y="707" on="0"/>
      </contour>
      <contour>
        <pt x="219" y="45" on="1"/>
        <pt x="333" y="45" on="1"/>
        <pt x="379" y="45" on="0"/>
        <pt x="428" y="96" on="0"/>
        <pt x="428" y="144" on="1"/>
        <pt x="428" y="499" on="1"/>
        <pt x="428" y="547" on="0"/>
        <pt x="379" y="598" on="0"/>
        <pt x="333" y="598" on="1"/>
        <pt x="219" y="598" on="1"/>
        <pt x="173" y="598" on="0"/>
        <pt x="125" y="546" on="0"/>
        <pt x="125" y="499" on="1"/>
        <pt x="125" y="144" on="1"/>
        <pt x="125" y="97" on="0"/>
        <pt x="173" y="45" on="0"/>
      </contour>
      <contour>
        <pt x="338" y="0" on="1"/>
        <pt x="215" y="0" on="1"/>
        <pt x="150" y="0" on="0"/>
        <pt x="75" y="76" on="0"/>
        <pt x="75" y="142" on="1"/>
        <pt x="75" y="501" on="1"/>
        <pt x="75" y="567" on="0"/>
        <pt x="150" y="643" on="0"/>
        <pt x="215" y="643" on="1"/>
        <pt x="338" y="643" on="1"/>
        <pt x="403" y="643" on="0"/>
        <pt x="478" y="567" on="0"/>
        <pt x="478" y="501" on="1"/>
        <pt x="478" y="142" on="1"/>
        <pt x="478" y="76" on="0"/>
        <pt x="403" y="0" on="0"/>
      </contour>
    </TTGlyph>
    <TTGlyph name="Ohungarumlaut" xMin="75" yMin="0" xMax="478" yMax="836">
      <contour>
        <pt x="276" y="836" on="1"/>
        <pt x="307" y="836" on="1"/>
        <pt x="321" y="836" on="0"/>
        <pt x="313" y="825" on="1"/>
        <pt x="233" y="716" on="1"/>
        <pt x="225" y="707" on="0"/>
        <pt x="217" y="707" on="1"/>
        <pt x="201" y="707" on="1"/>
        <pt x="191" y="707" on="0"/>
        <pt x="197" y="719" on="1"/>
        <pt x="258" y="825" on="1"/>
        <pt x="264" y="836" on="0"/>
      </contour>
      <contour>
        <pt x="400" y="836" on="1"/>
        <pt x="431" y="836" on="1"/>
        <pt x="444" y="836" on="0"/>
        <pt x="436" y="825" on="1"/>
        <pt x="356" y="716" on="1"/>
        <pt x="350" y="707" on="0"/>
        <pt x="341" y="707" on="1"/>
        <pt x="325" y="707" on="1"/>
        <pt x="314" y="707" on="0"/>
        <pt x="321" y="719" on="1"/>
        <pt x="382" y="825" on="1"/>
        <pt x="388" y="836" on="0"/>
      </contour>
      <contour>
        <pt x="219" y="45" on="1"/>
        <pt x="333" y="45" on="1"/>
        <pt x="379" y="45" on="0"/>
        <pt x="428" y="96" on="0"/>
        <pt x="428" y="144" on="1"/>
        <pt x="428" y="499" on="1"/>
        <pt x="428" y="547" on="0"/>
        <pt x="379" y="598" on="0"/>
        <pt x="333" y="598" on="1"/>
        <pt x="219" y="598" on="1"/>
        <pt x="173" y="598" on="0"/>
        <pt x="125" y="546" on="0"/>
        <pt x="125" y="499" on="1"/>
        <pt x="125" y="144" on="1"/>
        <pt x="125" y="97" on="0"/>
        <pt x="173" y="45" on="0"/>
      </contour>
      <contour>
        <pt x="338" y="0" on="1"/>
        <pt x="215" y="0" on="1"/>
        <pt x="150" y="0" on="0"/>
        <pt x="75" y="76" on="0"/>
        <pt x="75" y="142" on="1"/>
        <pt x="75" y="501" on="1"/>
        <pt x="75" y="567" on="0"/>
        <pt x="150" y="643" on="0"/>
        <pt x="215" y="643" on="1"/>
        <pt x="338" y="643" on="1"/>
        <pt x="403" y="643" on="0"/>
        <pt x="478" y="567" on="0"/>
        <pt x="478" y="501" on="1"/>
        <pt x="478" y="142" on="1"/>
        <pt x="478" y="76" on="0"/>
        <pt x="403" y="0" on="0"/>
      </contour>
    </TTGlyph>
    <TTGlyph name="Omacron" xMin="75" yMin="0" xMax="478" yMax="792">
      <contour>
        <pt x="377" y="752" on="1"/>
        <pt x="175" y="752" on="1"/>
        <pt x="163" y="752" on="0"/>
        <pt x="163" y="762" on="1"/>
        <pt x="163" y="781" on="1"/>
        <pt x="163" y="792" on="0"/>
        <pt x="175" y="792" on="1"/>
        <pt x="377" y="792" on="1"/>
        <pt x="389" y="792" on="0"/>
        <pt x="389" y="781" on="1"/>
        <pt x="389" y="762" on="1"/>
        <pt x="389" y="752" on="0"/>
      </contour>
      <contour>
        <pt x="219" y="45" on="1"/>
        <pt x="333" y="45" on="1"/>
        <pt x="379" y="45" on="0"/>
        <pt x="428" y="96" on="0"/>
        <pt x="428" y="144" on="1"/>
        <pt x="428" y="499" on="1"/>
        <pt x="428" y="547" on="0"/>
        <pt x="379" y="598" on="0"/>
        <pt x="333" y="598" on="1"/>
        <pt x="219" y="598" on="1"/>
        <pt x="173" y="598" on="0"/>
        <pt x="125" y="546" on="0"/>
        <pt x="125" y="499" on="1"/>
        <pt x="125" y="144" on="1"/>
        <pt x="125" y="97" on="0"/>
        <pt x="173" y="45" on="0"/>
      </contour>
      <contour>
        <pt x="338" y="0" on="1"/>
        <pt x="215" y="0" on="1"/>
        <pt x="150" y="0" on="0"/>
        <pt x="75" y="76" on="0"/>
        <pt x="75" y="142" on="1"/>
        <pt x="75" y="501" on="1"/>
        <pt x="75" y="567" on="0"/>
        <pt x="150" y="643" on="0"/>
        <pt x="215" y="643" on="1"/>
        <pt x="338" y="643" on="1"/>
        <pt x="403" y="643" on="0"/>
        <pt x="478" y="567" on="0"/>
        <pt x="478" y="501" on="1"/>
        <pt x="478" y="142" on="1"/>
        <pt x="478" y="76" on="0"/>
        <pt x="403" y="0" on="0"/>
      </contour>
    </TTGlyph>
    <TTGlyph name="Oslash" xMin="49" yMin="0" xMax="509" yMax="643">
      <contour>
        <pt x="482" y="501" on="1"/>
        <pt x="482" y="142" on="1"/>
        <pt x="482" y="76" on="0"/>
        <pt x="406" y="0" on="0"/>
        <pt x="342" y="0" on="1"/>
        <pt x="217" y="0" on="1"/>
        <pt x="143" y="0" on="0"/>
        <pt x="106" y="48" on="1"/>
        <pt x="79" y="11" on="1"/>
        <pt x="71" y="2" on="0"/>
        <pt x="62" y="8" on="1"/>
        <pt x="50" y="16" on="1"/>
        <pt x="42" y="23" on="0"/>
        <pt x="49" y="33" on="1"/>
        <pt x="86" y="85" on="1"/>
        <pt x="77" y="110" on="0"/>
        <pt x="77" y="142" on="1"/>
        <pt x="77" y="501" on="1"/>
        <pt x="77" y="567" on="0"/>
        <pt x="152" y="643" on="0"/>
        <pt x="217" y="643" on="1"/>
        <pt x="342" y="643" on="1"/>
        <pt x="416" y="643" on="0"/>
        <pt x="453" y="595" on="1"/>
        <pt x="479" y="631" on="1"/>
        <pt x="486" y="641" on="0"/>
        <pt x="496" y="635" on="1"/>
        <pt x="508" y="627" on="1"/>
        <pt x="516" y="620" on="0"/>
        <pt x="509" y="610" on="1"/>
        <pt x="473" y="559" on="1"/>
        <pt x="482" y="533" on="0"/>
      </contour>
      <contour>
        <pt x="127" y="499" on="1"/>
        <pt x="127" y="141" on="1"/>
        <pt x="421" y="551" on="1"/>
        <pt x="401" y="598" on="0"/>
        <pt x="337" y="598" on="1"/>
        <pt x="222" y="598" on="1"/>
        <pt x="176" y="598" on="0"/>
        <pt x="127" y="547" on="0"/>
      </contour>
      <contour>
        <pt x="431" y="144" on="1"/>
        <pt x="431" y="501" on="1"/>
        <pt x="137" y="92" on="1"/>
        <pt x="159" y="45" on="0"/>
        <pt x="222" y="45" on="1"/>
        <pt x="337" y="45" on="1"/>
        <pt x="383" y="45" on="0"/>
        <pt x="431" y="96" on="0"/>
      </contour>
    </TTGlyph>
    <TTGlyph name="Oslashacute" xMin="49" yMin="0" xMax="509" yMax="836">
      <contour>
        <pt x="482" y="501" on="1"/>
        <pt x="482" y="142" on="1"/>
        <pt x="482" y="76" on="0"/>
        <pt x="406" y="0" on="0"/>
        <pt x="342" y="0" on="1"/>
        <pt x="217" y="0" on="1"/>
        <pt x="143" y="0" on="0"/>
        <pt x="106" y="48" on="1"/>
        <pt x="79" y="11" on="1"/>
        <pt x="71" y="2" on="0"/>
        <pt x="62" y="8" on="1"/>
        <pt x="50" y="16" on="1"/>
        <pt x="42" y="23" on="0"/>
        <pt x="49" y="33" on="1"/>
        <pt x="86" y="85" on="1"/>
        <pt x="77" y="110" on="0"/>
        <pt x="77" y="142" on="1"/>
        <pt x="77" y="501" on="1"/>
        <pt x="77" y="567" on="0"/>
        <pt x="152" y="643" on="0"/>
        <pt x="217" y="643" on="1"/>
        <pt x="342" y="643" on="1"/>
        <pt x="416" y="643" on="0"/>
        <pt x="453" y="595" on="1"/>
        <pt x="479" y="631" on="1"/>
        <pt x="486" y="641" on="0"/>
        <pt x="496" y="635" on="1"/>
        <pt x="508" y="627" on="1"/>
        <pt x="516" y="620" on="0"/>
        <pt x="509" y="610" on="1"/>
        <pt x="473" y="559" on="1"/>
        <pt x="482" y="533" on="0"/>
      </contour>
      <contour>
        <pt x="127" y="499" on="1"/>
        <pt x="127" y="141" on="1"/>
        <pt x="421" y="551" on="1"/>
        <pt x="401" y="598" on="0"/>
        <pt x="337" y="598" on="1"/>
        <pt x="222" y="598" on="1"/>
        <pt x="176" y="598" on="0"/>
        <pt x="127" y="547" on="0"/>
      </contour>
      <contour>
        <pt x="431" y="144" on="1"/>
        <pt x="431" y="501" on="1"/>
        <pt x="137" y="92" on="1"/>
        <pt x="159" y="45" on="0"/>
        <pt x="222" y="45" on="1"/>
        <pt x="337" y="45" on="1"/>
        <pt x="383" y="45" on="0"/>
        <pt x="431" y="96" on="0"/>
      </contour>
      <contour>
        <pt x="280" y="707" on="1"/>
        <pt x="260" y="707" on="1"/>
        <pt x="249" y="707" on="0"/>
        <pt x="255" y="719" on="1"/>
        <pt x="318" y="825" on="1"/>
        <pt x="324" y="836" on="0"/>
        <pt x="336" y="836" on="1"/>
        <pt x="381" y="836" on="1"/>
        <pt x="386" y="836" on="0"/>
        <pt x="390" y="830" on="0"/>
        <pt x="386" y="825" on="1"/>
        <pt x="297" y="716" on="1"/>
        <pt x="290" y="707" on="0"/>
      </contour>
    </TTGlyph>
    <TTGlyph name="Otilde" xMin="75" yMin="0" xMax="478" yMax="831">
      <contour>
        <pt x="277" y="724" on="0"/>
        <pt x="251" y="702" on="0"/>
        <pt x="194" y="702" on="0"/>
        <pt x="169" y="739" on="0"/>
        <pt x="169" y="780" on="1"/>
        <pt x="169" y="819" on="1"/>
        <pt x="169" y="828" on="0"/>
        <pt x="178" y="828" on="1"/>
        <pt x="192" y="828" on="1"/>
        <pt x="200" y="828" on="0"/>
        <pt x="200" y="819" on="1"/>
        <pt x="200" y="786" on="1"/>
        <pt x="200" y="756" on="0"/>
        <pt x="212" y="733" on="0"/>
        <pt x="242" y="733" on="0"/>
        <pt x="255" y="751" on="0"/>
        <pt x="278" y="812" on="0"/>
        <pt x="301" y="831" on="0"/>
        <pt x="357" y="831" on="0"/>
        <pt x="383" y="794" on="0"/>
        <pt x="383" y="754" on="1"/>
        <pt x="383" y="713" on="1"/>
        <pt x="383" y="703" on="0"/>
        <pt x="374" y="703" on="1"/>
        <pt x="360" y="703" on="1"/>
        <pt x="352" y="703" on="0"/>
        <pt x="352" y="713" on="1"/>
        <pt x="352" y="747" on="1"/>
        <pt x="352" y="778" on="0"/>
        <pt x="340" y="801" on="0"/>
        <pt x="310" y="801" on="0"/>
        <pt x="299" y="786" on="0"/>
      </contour>
      <contour>
        <pt x="219" y="45" on="1"/>
        <pt x="333" y="45" on="1"/>
        <pt x="379" y="45" on="0"/>
        <pt x="428" y="96" on="0"/>
        <pt x="428" y="144" on="1"/>
        <pt x="428" y="499" on="1"/>
        <pt x="428" y="547" on="0"/>
        <pt x="379" y="598" on="0"/>
        <pt x="333" y="598" on="1"/>
        <pt x="219" y="598" on="1"/>
        <pt x="173" y="598" on="0"/>
        <pt x="125" y="546" on="0"/>
        <pt x="125" y="499" on="1"/>
        <pt x="125" y="144" on="1"/>
        <pt x="125" y="97" on="0"/>
        <pt x="173" y="45" on="0"/>
      </contour>
      <contour>
        <pt x="338" y="0" on="1"/>
        <pt x="215" y="0" on="1"/>
        <pt x="150" y="0" on="0"/>
        <pt x="75" y="76" on="0"/>
        <pt x="75" y="142" on="1"/>
        <pt x="75" y="501" on="1"/>
        <pt x="75" y="567" on="0"/>
        <pt x="150" y="643" on="0"/>
        <pt x="215" y="643" on="1"/>
        <pt x="338" y="643" on="1"/>
        <pt x="403" y="643" on="0"/>
        <pt x="478" y="567" on="0"/>
        <pt x="478" y="501" on="1"/>
        <pt x="478" y="142" on="1"/>
        <pt x="478" y="76" on="0"/>
        <pt x="403" y="0" on="0"/>
      </contour>
    </TTGlyph>
    <TTGlyph name="P" xMin="85" yMin="0" xMax="466" yMax="643">
      <contour>
        <pt x="124" y="0" on="1"/>
        <pt x="95" y="0" on="1"/>
        <pt x="85" y="0" on="0"/>
        <pt x="85" y="12" on="1"/>
        <pt x="85" y="631" on="1"/>
        <pt x="85" y="643" on="0"/>
        <pt x="95" y="643" on="1"/>
        <pt x="325" y="643" on="1"/>
        <pt x="390" y="643" on="0"/>
        <pt x="466" y="567" on="0"/>
        <pt x="466" y="501" on="1"/>
        <pt x="466" y="384" on="1"/>
        <pt x="466" y="318" on="0"/>
        <pt x="390" y="242" on="0"/>
        <pt x="325" y="242" on="1"/>
        <pt x="145" y="242" on="1"/>
        <pt x="135" y="242" on="0"/>
        <pt x="135" y="234" on="1"/>
        <pt x="135" y="12" on="1"/>
        <pt x="135" y="0" on="0"/>
      </contour>
      <contour>
        <pt x="145" y="288" on="1"/>
        <pt x="321" y="288" on="1"/>
        <pt x="367" y="288" on="0"/>
        <pt x="415" y="339" on="0"/>
        <pt x="415" y="386" on="1"/>
        <pt x="415" y="499" on="1"/>
        <pt x="415" y="547" on="0"/>
        <pt x="367" y="598" on="0"/>
        <pt x="321" y="598" on="1"/>
        <pt x="145" y="598" on="1"/>
        <pt x="135" y="598" on="0"/>
        <pt x="135" y="589" on="1"/>
        <pt x="135" y="296" on="1"/>
        <pt x="135" y="288" on="0"/>
      </contour>
    </TTGlyph>
    <TTGlyph name="Pi" xMin="38" yMin="0" xMax="567" yMax="643">
      <contour>
        <pt x="186" y="0" on="1"/>
        <pt x="157" y="0" on="1"/>
        <pt x="147" y="0" on="0"/>
        <pt x="147" y="12" on="1"/>
        <pt x="147" y="588" on="1"/>
        <pt x="147" y="596" on="0"/>
        <pt x="137" y="596" on="1"/>
        <pt x="50" y="596" on="1"/>
        <pt x="38" y="596" on="0"/>
        <pt x="38" y="607" on="1"/>
        <pt x="38" y="632" on="1"/>
        <pt x="38" y="643" on="0"/>
        <pt x="50" y="643" on="1"/>
        <pt x="556" y="643" on="1"/>
        <pt x="567" y="643" on="0"/>
        <pt x="567" y="632" on="1"/>
        <pt x="567" y="607" on="1"/>
        <pt x="567" y="596" on="0"/>
        <pt x="556" y="596" on="1"/>
        <pt x="468" y="596" on="1"/>
        <pt x="459" y="596" on="0"/>
        <pt x="459" y="587" on="1"/>
        <pt x="459" y="12" on="1"/>
        <pt x="459" y="0" on="0"/>
        <pt x="448" y="0" on="1"/>
        <pt x="419" y="0" on="1"/>
        <pt x="408" y="0" on="0"/>
        <pt x="408" y="12" on="1"/>
        <pt x="408" y="587" on="1"/>
        <pt x="408" y="596" on="0"/>
        <pt x="399" y="596" on="1"/>
        <pt x="207" y="596" on="1"/>
        <pt x="197" y="596" on="0"/>
        <pt x="197" y="587" on="1"/>
        <pt x="197" y="12" on="1"/>
        <pt x="197" y="0" on="0"/>
      </contour>
    </TTGlyph>
    <TTGlyph name="Q" xMin="76" yMin="-133" xMax="480" yMax="643">
      <contour>
        <pt x="221" y="45" on="1"/>
        <pt x="335" y="45" on="1"/>
        <pt x="381" y="45" on="0"/>
        <pt x="430" y="96" on="0"/>
        <pt x="430" y="144" on="1"/>
        <pt x="430" y="499" on="1"/>
        <pt x="430" y="547" on="0"/>
        <pt x="381" y="598" on="0"/>
        <pt x="335" y="598" on="1"/>
        <pt x="221" y="598" on="1"/>
        <pt x="175" y="598" on="0"/>
        <pt x="127" y="547" on="0"/>
        <pt x="127" y="499" on="1"/>
        <pt x="127" y="144" on="1"/>
        <pt x="127" y="96" on="0"/>
        <pt x="175" y="45" on="0"/>
      </contour>
      <contour>
        <pt x="416" y="-133" on="1"/>
        <pt x="388" y="-133" on="1"/>
        <pt x="375" y="-133" on="0"/>
        <pt x="368" y="-121" on="1"/>
        <pt x="294" y="0" on="1"/>
        <pt x="217" y="0" on="1"/>
        <pt x="152" y="0" on="0"/>
        <pt x="76" y="76" on="0"/>
        <pt x="76" y="142" on="1"/>
        <pt x="76" y="501" on="1"/>
        <pt x="76" y="567" on="0"/>
        <pt x="152" y="643" on="0"/>
        <pt x="217" y="643" on="1"/>
        <pt x="339" y="643" on="1"/>
        <pt x="404" y="643" on="0"/>
        <pt x="480" y="567" on="0"/>
        <pt x="480" y="501" on="1"/>
        <pt x="480" y="142" on="1"/>
        <pt x="480" y="79" on="0"/>
        <pt x="409" y="3" on="0"/>
        <pt x="348" y="1" on="1"/>
        <pt x="423" y="-120" on="1"/>
        <pt x="430" y="-133" on="0"/>
      </contour>
    </TTGlyph>
    <TTGlyph name="R" xMin="85" yMin="0" xMax="477" yMax="643">
      <contour>
        <pt x="124" y="0" on="1"/>
        <pt x="95" y="0" on="1"/>
        <pt x="85" y="0" on="0"/>
        <pt x="85" y="12" on="1"/>
        <pt x="85" y="631" on="1"/>
        <pt x="85" y="643" on="0"/>
        <pt x="95" y="643" on="1"/>
        <pt x="323" y="643" on="1"/>
        <pt x="388" y="643" on="0"/>
        <pt x="464" y="567" on="0"/>
        <pt x="464" y="501" on="1"/>
        <pt x="464" y="406" on="1"/>
        <pt x="464" y="350" on="0"/>
        <pt x="407" y="278" on="0"/>
        <pt x="358" y="268" on="1"/>
        <pt x="358" y="264" on="1"/>
        <pt x="477" y="12" on="1"/>
        <pt x="483" y="0" on="0"/>
        <pt x="470" y="0" on="1"/>
        <pt x="439" y="0" on="1"/>
        <pt x="426" y="0" on="0"/>
        <pt x="421" y="12" on="1"/>
        <pt x="303" y="264" on="1"/>
        <pt x="145" y="264" on="1"/>
        <pt x="135" y="264" on="0"/>
        <pt x="135" y="255" on="1"/>
        <pt x="135" y="12" on="1"/>
        <pt x="135" y="0" on="0"/>
      </contour>
      <contour>
        <pt x="145" y="307" on="1"/>
        <pt x="318" y="307" on="1"/>
        <pt x="364" y="307" on="0"/>
        <pt x="414" y="358" on="0"/>
        <pt x="414" y="405" on="1"/>
        <pt x="414" y="499" on="1"/>
        <pt x="414" y="546" on="0"/>
        <pt x="364" y="598" on="0"/>
        <pt x="318" y="598" on="1"/>
        <pt x="145" y="598" on="1"/>
        <pt x="135" y="598" on="0"/>
        <pt x="135" y="589" on="1"/>
        <pt x="135" y="316" on="1"/>
        <pt x="135" y="307" on="0"/>
      </contour>
    </TTGlyph>
    <TTGlyph name="Racute" xMin="85" yMin="0" xMax="477" yMax="836">
      <contour>
        <pt x="309" y="836" on="1"/>
        <pt x="353" y="836" on="1"/>
        <pt x="358" y="836" on="0"/>
        <pt x="363" y="830" on="0"/>
        <pt x="359" y="825" on="1"/>
        <pt x="269" y="716" on="1"/>
        <pt x="262" y="707" on="0"/>
        <pt x="252" y="707" on="1"/>
        <pt x="232" y="707" on="1"/>
        <pt x="222" y="707" on="0"/>
        <pt x="228" y="719" on="1"/>
        <pt x="291" y="825" on="1"/>
        <pt x="296" y="836" on="0"/>
      </contour>
      <contour>
        <pt x="124" y="0" on="1"/>
        <pt x="95" y="0" on="1"/>
        <pt x="85" y="0" on="0"/>
        <pt x="85" y="12" on="1"/>
        <pt x="85" y="631" on="1"/>
        <pt x="85" y="643" on="0"/>
        <pt x="95" y="643" on="1"/>
        <pt x="323" y="643" on="1"/>
        <pt x="388" y="643" on="0"/>
        <pt x="464" y="567" on="0"/>
        <pt x="464" y="501" on="1"/>
        <pt x="464" y="406" on="1"/>
        <pt x="464" y="350" on="0"/>
        <pt x="407" y="278" on="0"/>
        <pt x="358" y="268" on="1"/>
        <pt x="358" y="264" on="1"/>
        <pt x="477" y="12" on="1"/>
        <pt x="483" y="0" on="0"/>
        <pt x="470" y="0" on="1"/>
        <pt x="439" y="0" on="1"/>
        <pt x="426" y="0" on="0"/>
        <pt x="421" y="12" on="1"/>
        <pt x="303" y="264" on="1"/>
        <pt x="145" y="264" on="1"/>
        <pt x="135" y="264" on="0"/>
        <pt x="135" y="255" on="1"/>
        <pt x="135" y="12" on="1"/>
        <pt x="135" y="0" on="0"/>
      </contour>
      <contour>
        <pt x="145" y="307" on="1"/>
        <pt x="318" y="307" on="1"/>
        <pt x="364" y="307" on="0"/>
        <pt x="414" y="358" on="0"/>
        <pt x="414" y="405" on="1"/>
        <pt x="414" y="499" on="1"/>
        <pt x="414" y="546" on="0"/>
        <pt x="364" y="598" on="0"/>
        <pt x="318" y="598" on="1"/>
        <pt x="145" y="598" on="1"/>
        <pt x="135" y="598" on="0"/>
        <pt x="135" y="589" on="1"/>
        <pt x="135" y="316" on="1"/>
        <pt x="135" y="307" on="0"/>
      </contour>
    </TTGlyph>
    <TTGlyph name="Rcaron" xMin="85" yMin="0" xMax="477" yMax="836">
      <contour>
        <pt x="242" y="707" on="1"/>
        <pt x="228" y="707" on="0"/>
        <pt x="222" y="716" on="1"/>
        <pt x="159" y="825" on="1"/>
        <pt x="152" y="836" on="0"/>
        <pt x="164" y="836" on="1"/>
        <pt x="187" y="836" on="1"/>
        <pt x="197" y="836" on="0"/>
        <pt x="199" y="830" on="1"/>
        <pt x="253" y="733" on="1"/>
        <pt x="306" y="830" on="1"/>
        <pt x="310" y="836" on="0"/>
        <pt x="319" y="836" on="1"/>
        <pt x="342" y="836" on="1"/>
        <pt x="354" y="836" on="0"/>
        <pt x="347" y="825" on="1"/>
        <pt x="283" y="716" on="1"/>
        <pt x="277" y="707" on="0"/>
        <pt x="264" y="707" on="1"/>
      </contour>
      <contour>
        <pt x="124" y="0" on="1"/>
        <pt x="95" y="0" on="1"/>
        <pt x="85" y="0" on="0"/>
        <pt x="85" y="12" on="1"/>
        <pt x="85" y="631" on="1"/>
        <pt x="85" y="643" on="0"/>
        <pt x="95" y="643" on="1"/>
        <pt x="323" y="643" on="1"/>
        <pt x="388" y="643" on="0"/>
        <pt x="464" y="567" on="0"/>
        <pt x="464" y="501" on="1"/>
        <pt x="464" y="406" on="1"/>
        <pt x="464" y="350" on="0"/>
        <pt x="407" y="278" on="0"/>
        <pt x="358" y="268" on="1"/>
        <pt x="358" y="264" on="1"/>
        <pt x="477" y="12" on="1"/>
        <pt x="483" y="0" on="0"/>
        <pt x="470" y="0" on="1"/>
        <pt x="439" y="0" on="1"/>
        <pt x="426" y="0" on="0"/>
        <pt x="421" y="12" on="1"/>
        <pt x="303" y="264" on="1"/>
        <pt x="145" y="264" on="1"/>
        <pt x="135" y="264" on="0"/>
        <pt x="135" y="255" on="1"/>
        <pt x="135" y="12" on="1"/>
        <pt x="135" y="0" on="0"/>
      </contour>
      <contour>
        <pt x="145" y="307" on="1"/>
        <pt x="318" y="307" on="1"/>
        <pt x="364" y="307" on="0"/>
        <pt x="414" y="358" on="0"/>
        <pt x="414" y="405" on="1"/>
        <pt x="414" y="499" on="1"/>
        <pt x="414" y="546" on="0"/>
        <pt x="364" y="598" on="0"/>
        <pt x="318" y="598" on="1"/>
        <pt x="145" y="598" on="1"/>
        <pt x="135" y="598" on="0"/>
        <pt x="135" y="589" on="1"/>
        <pt x="135" y="316" on="1"/>
        <pt x="135" y="307" on="0"/>
      </contour>
    </TTGlyph>
    <TTGlyph name="S" xMin="81" yMin="0" xMax="481" yMax="643">
      <contour>
        <pt x="81" y="142" on="1"/>
        <pt x="81" y="178" on="1"/>
        <pt x="81" y="189" on="0"/>
        <pt x="92" y="189" on="1"/>
        <pt x="121" y="189" on="1"/>
        <pt x="132" y="189" on="0"/>
        <pt x="132" y="178" on="1"/>
        <pt x="132" y="145" on="1"/>
        <pt x="132" y="45" on="0"/>
        <pt x="229" y="45" on="1"/>
        <pt x="333" y="45" on="1"/>
        <pt x="430" y="45" on="0"/>
        <pt x="430" y="146" on="1"/>
        <pt x="430" y="188" on="1"/>
        <pt x="430" y="232" on="0"/>
        <pt x="358" y="282" on="0"/>
        <pt x="256" y="304" on="0"/>
        <pt x="153" y="328" on="0"/>
        <pt x="81" y="392" on="0"/>
        <pt x="81" y="446" on="1"/>
        <pt x="81" y="501" on="1"/>
        <pt x="81" y="567" on="0"/>
        <pt x="157" y="643" on="0"/>
        <pt x="222" y="643" on="1"/>
        <pt x="338" y="643" on="1"/>
        <pt x="403" y="643" on="0"/>
        <pt x="479" y="567" on="0"/>
        <pt x="479" y="501" on="1"/>
        <pt x="479" y="473" on="1"/>
        <pt x="479" y="462" on="0"/>
        <pt x="468" y="462" on="1"/>
        <pt x="439" y="462" on="1"/>
        <pt x="428" y="462" on="0"/>
        <pt x="428" y="473" on="1"/>
        <pt x="428" y="498" on="1"/>
        <pt x="428" y="598" on="0"/>
        <pt x="331" y="598" on="1"/>
        <pt x="228" y="598" on="1"/>
        <pt x="132" y="598" on="0"/>
        <pt x="132" y="496" on="1"/>
        <pt x="132" y="446" on="1"/>
        <pt x="132" y="377" on="0"/>
        <pt x="255" y="353" on="1"/>
        <pt x="306" y="343" on="0"/>
        <pt x="409" y="317" on="0"/>
        <pt x="481" y="249" on="0"/>
        <pt x="481" y="191" on="1"/>
        <pt x="481" y="142" on="1"/>
        <pt x="481" y="76" on="0"/>
        <pt x="405" y="0" on="0"/>
        <pt x="340" y="0" on="1"/>
        <pt x="222" y="0" on="1"/>
        <pt x="157" y="0" on="0"/>
        <pt x="81" y="76" on="0"/>
      </contour>
    </TTGlyph>
    <TTGlyph name="Sacute" xMin="81" yMin="0" xMax="481" yMax="836">
      <contour>
        <pt x="81" y="142" on="1"/>
        <pt x="81" y="178" on="1"/>
        <pt x="81" y="189" on="0"/>
        <pt x="92" y="189" on="1"/>
        <pt x="121" y="189" on="1"/>
        <pt x="132" y="189" on="0"/>
        <pt x="132" y="178" on="1"/>
        <pt x="132" y="145" on="1"/>
        <pt x="132" y="45" on="0"/>
        <pt x="229" y="45" on="1"/>
        <pt x="333" y="45" on="1"/>
        <pt x="430" y="45" on="0"/>
        <pt x="430" y="146" on="1"/>
        <pt x="430" y="188" on="1"/>
        <pt x="430" y="232" on="0"/>
        <pt x="358" y="282" on="0"/>
        <pt x="256" y="304" on="0"/>
        <pt x="153" y="328" on="0"/>
        <pt x="81" y="392" on="0"/>
        <pt x="81" y="446" on="1"/>
        <pt x="81" y="501" on="1"/>
        <pt x="81" y="567" on="0"/>
        <pt x="157" y="643" on="0"/>
        <pt x="222" y="643" on="1"/>
        <pt x="338" y="643" on="1"/>
        <pt x="403" y="643" on="0"/>
        <pt x="479" y="567" on="0"/>
        <pt x="479" y="501" on="1"/>
        <pt x="479" y="473" on="1"/>
        <pt x="479" y="462" on="0"/>
        <pt x="468" y="462" on="1"/>
        <pt x="439" y="462" on="1"/>
        <pt x="428" y="462" on="0"/>
        <pt x="428" y="473" on="1"/>
        <pt x="428" y="498" on="1"/>
        <pt x="428" y="598" on="0"/>
        <pt x="331" y="598" on="1"/>
        <pt x="228" y="598" on="1"/>
        <pt x="132" y="598" on="0"/>
        <pt x="132" y="496" on="1"/>
        <pt x="132" y="446" on="1"/>
        <pt x="132" y="377" on="0"/>
        <pt x="255" y="353" on="1"/>
        <pt x="306" y="343" on="0"/>
        <pt x="409" y="317" on="0"/>
        <pt x="481" y="249" on="0"/>
        <pt x="481" y="191" on="1"/>
        <pt x="481" y="142" on="1"/>
        <pt x="481" y="76" on="0"/>
        <pt x="405" y="0" on="0"/>
        <pt x="340" y="0" on="1"/>
        <pt x="222" y="0" on="1"/>
        <pt x="157" y="0" on="0"/>
        <pt x="81" y="76" on="0"/>
      </contour>
      <contour>
        <pt x="337" y="836" on="1"/>
        <pt x="381" y="836" on="1"/>
        <pt x="386" y="836" on="0"/>
        <pt x="390" y="830" on="0"/>
        <pt x="386" y="825" on="1"/>
        <pt x="297" y="716" on="1"/>
        <pt x="290" y="707" on="0"/>
        <pt x="280" y="707" on="1"/>
        <pt x="260" y="707" on="1"/>
        <pt x="249" y="707" on="0"/>
        <pt x="255" y="719" on="1"/>
        <pt x="318" y="825" on="1"/>
        <pt x="324" y="836" on="0"/>
      </contour>
    </TTGlyph>
    <TTGlyph name="Scaron" xMin="81" yMin="0" xMax="481" yMax="836">
      <contour>
        <pt x="81" y="142" on="1"/>
        <pt x="81" y="178" on="1"/>
        <pt x="81" y="189" on="0"/>
        <pt x="92" y="189" on="1"/>
        <pt x="121" y="189" on="1"/>
        <pt x="132" y="189" on="0"/>
        <pt x="132" y="178" on="1"/>
        <pt x="132" y="145" on="1"/>
        <pt x="132" y="45" on="0"/>
        <pt x="229" y="45" on="1"/>
        <pt x="333" y="45" on="1"/>
        <pt x="430" y="45" on="0"/>
        <pt x="430" y="146" on="1"/>
        <pt x="430" y="188" on="1"/>
        <pt x="430" y="232" on="0"/>
        <pt x="358" y="282" on="0"/>
        <pt x="256" y="304" on="0"/>
        <pt x="153" y="328" on="0"/>
        <pt x="81" y="392" on="0"/>
        <pt x="81" y="446" on="1"/>
        <pt x="81" y="501" on="1"/>
        <pt x="81" y="567" on="0"/>
        <pt x="157" y="643" on="0"/>
        <pt x="222" y="643" on="1"/>
        <pt x="338" y="643" on="1"/>
        <pt x="403" y="643" on="0"/>
        <pt x="479" y="567" on="0"/>
        <pt x="479" y="501" on="1"/>
        <pt x="479" y="473" on="1"/>
        <pt x="479" y="462" on="0"/>
        <pt x="468" y="462" on="1"/>
        <pt x="439" y="462" on="1"/>
        <pt x="428" y="462" on="0"/>
        <pt x="428" y="473" on="1"/>
        <pt x="428" y="498" on="1"/>
        <pt x="428" y="598" on="0"/>
        <pt x="331" y="598" on="1"/>
        <pt x="228" y="598" on="1"/>
        <pt x="132" y="598" on="0"/>
        <pt x="132" y="496" on="1"/>
        <pt x="132" y="446" on="1"/>
        <pt x="132" y="377" on="0"/>
        <pt x="255" y="353" on="1"/>
        <pt x="306" y="343" on="0"/>
        <pt x="409" y="317" on="0"/>
        <pt x="481" y="249" on="0"/>
        <pt x="481" y="191" on="1"/>
        <pt x="481" y="142" on="1"/>
        <pt x="481" y="76" on="0"/>
        <pt x="405" y="0" on="0"/>
        <pt x="340" y="0" on="1"/>
        <pt x="222" y="0" on="1"/>
        <pt x="157" y="0" on="0"/>
        <pt x="81" y="76" on="0"/>
      </contour>
      <contour>
        <pt x="290" y="707" on="1"/>
        <pt x="269" y="707" on="1"/>
        <pt x="255" y="707" on="0"/>
        <pt x="249" y="716" on="1"/>
        <pt x="185" y="825" on="1"/>
        <pt x="178" y="836" on="0"/>
        <pt x="190" y="836" on="1"/>
        <pt x="214" y="836" on="1"/>
        <pt x="224" y="836" on="0"/>
        <pt x="226" y="830" on="1"/>
        <pt x="279" y="733" on="1"/>
        <pt x="333" y="830" on="1"/>
        <pt x="335" y="836" on="0"/>
        <pt x="345" y="836" on="1"/>
        <pt x="369" y="836" on="1"/>
        <pt x="380" y="836" on="0"/>
        <pt x="373" y="825" on="1"/>
        <pt x="310" y="716" on="1"/>
        <pt x="304" y="707" on="0"/>
      </contour>
    </TTGlyph>
    <TTGlyph name="Scircumflex" xMin="81" yMin="0" xMax="481" yMax="836">
      <contour>
        <pt x="81" y="142" on="1"/>
        <pt x="81" y="178" on="1"/>
        <pt x="81" y="189" on="0"/>
        <pt x="92" y="189" on="1"/>
        <pt x="121" y="189" on="1"/>
        <pt x="132" y="189" on="0"/>
        <pt x="132" y="178" on="1"/>
        <pt x="132" y="145" on="1"/>
        <pt x="132" y="45" on="0"/>
        <pt x="229" y="45" on="1"/>
        <pt x="333" y="45" on="1"/>
        <pt x="430" y="45" on="0"/>
        <pt x="430" y="146" on="1"/>
        <pt x="430" y="188" on="1"/>
        <pt x="430" y="232" on="0"/>
        <pt x="358" y="282" on="0"/>
        <pt x="256" y="304" on="0"/>
        <pt x="153" y="328" on="0"/>
        <pt x="81" y="392" on="0"/>
        <pt x="81" y="446" on="1"/>
        <pt x="81" y="501" on="1"/>
        <pt x="81" y="567" on="0"/>
        <pt x="157" y="643" on="0"/>
        <pt x="222" y="643" on="1"/>
        <pt x="338" y="643" on="1"/>
        <pt x="403" y="643" on="0"/>
        <pt x="479" y="567" on="0"/>
        <pt x="479" y="501" on="1"/>
        <pt x="479" y="473" on="1"/>
        <pt x="479" y="462" on="0"/>
        <pt x="468" y="462" on="1"/>
        <pt x="439" y="462" on="1"/>
        <pt x="428" y="462" on="0"/>
        <pt x="428" y="473" on="1"/>
        <pt x="428" y="498" on="1"/>
        <pt x="428" y="598" on="0"/>
        <pt x="331" y="598" on="1"/>
        <pt x="228" y="598" on="1"/>
        <pt x="132" y="598" on="0"/>
        <pt x="132" y="496" on="1"/>
        <pt x="132" y="446" on="1"/>
        <pt x="132" y="377" on="0"/>
        <pt x="255" y="353" on="1"/>
        <pt x="306" y="343" on="0"/>
        <pt x="409" y="317" on="0"/>
        <pt x="481" y="249" on="0"/>
        <pt x="481" y="191" on="1"/>
        <pt x="481" y="142" on="1"/>
        <pt x="481" y="76" on="0"/>
        <pt x="405" y="0" on="0"/>
        <pt x="340" y="0" on="1"/>
        <pt x="222" y="0" on="1"/>
        <pt x="157" y="0" on="0"/>
        <pt x="81" y="76" on="0"/>
      </contour>
      <contour>
        <pt x="371" y="707" on="1"/>
        <pt x="347" y="707" on="1"/>
        <pt x="338" y="707" on="0"/>
        <pt x="334" y="713" on="1"/>
        <pt x="281" y="810" on="1"/>
        <pt x="228" y="713" on="1"/>
        <pt x="224" y="707" on="0"/>
        <pt x="215" y="707" on="1"/>
        <pt x="192" y="707" on="1"/>
        <pt x="180" y="707" on="0"/>
        <pt x="187" y="718" on="1"/>
        <pt x="251" y="827" on="1"/>
        <pt x="257" y="836" on="0"/>
        <pt x="270" y="836" on="1"/>
        <pt x="292" y="836" on="1"/>
        <pt x="306" y="836" on="0"/>
        <pt x="312" y="827" on="1"/>
        <pt x="375" y="718" on="1"/>
        <pt x="382" y="707" on="0"/>
      </contour>
    </TTGlyph>
    <TTGlyph name="Sigma" xMin="61" yMin="0" xMax="423" yMax="643">
      <contour>
        <pt x="61" y="610" on="1"/>
        <pt x="61" y="632" on="1"/>
        <pt x="61" y="643" on="0"/>
        <pt x="72" y="643" on="1"/>
        <pt x="411" y="643" on="1"/>
        <pt x="423" y="643" on="0"/>
        <pt x="423" y="632" on="1"/>
        <pt x="423" y="606" on="1"/>
        <pt x="423" y="595" on="0"/>
        <pt x="411" y="595" on="1"/>
        <pt x="121" y="595" on="1"/>
        <pt x="121" y="591" on="1"/>
        <pt x="283" y="337" on="1"/>
        <pt x="293" y="320" on="0"/>
        <pt x="283" y="303" on="1"/>
        <pt x="120" y="51" on="1"/>
        <pt x="120" y="47" on="1"/>
        <pt x="412" y="47" on="1"/>
        <pt x="423" y="47" on="0"/>
        <pt x="423" y="35" on="1"/>
        <pt x="423" y="9" on="1"/>
        <pt x="423" y="0" on="0"/>
        <pt x="412" y="0" on="1"/>
        <pt x="72" y="0" on="1"/>
        <pt x="61" y="0" on="0"/>
        <pt x="61" y="11" on="1"/>
        <pt x="61" y="32" on="1"/>
        <pt x="61" y="43" on="0"/>
        <pt x="66" y="51" on="1"/>
        <pt x="234" y="319" on="1"/>
        <pt x="234" y="323" on="1"/>
        <pt x="66" y="591" on="1"/>
        <pt x="61" y="597" on="0"/>
      </contour>
    </TTGlyph>
    <TTGlyph name="T" xMin="18" yMin="0" xMax="402" yMax="643">
      <contour>
        <pt x="225" y="0" on="1"/>
        <pt x="196" y="0" on="1"/>
        <pt x="185" y="0" on="0"/>
        <pt x="185" y="12" on="1"/>
        <pt x="185" y="589" on="1"/>
        <pt x="185" y="598" on="0"/>
        <pt x="175" y="598" on="1"/>
        <pt x="30" y="598" on="1"/>
        <pt x="18" y="598" on="0"/>
        <pt x="18" y="609" on="1"/>
        <pt x="18" y="632" on="1"/>
        <pt x="18" y="643" on="0"/>
        <pt x="30" y="643" on="1"/>
        <pt x="390" y="643" on="1"/>
        <pt x="402" y="643" on="0"/>
        <pt x="402" y="632" on="1"/>
        <pt x="402" y="609" on="1"/>
        <pt x="402" y="598" on="0"/>
        <pt x="390" y="598" on="1"/>
        <pt x="245" y="598" on="1"/>
        <pt x="235" y="598" on="0"/>
        <pt x="235" y="589" on="1"/>
        <pt x="235" y="12" on="1"/>
        <pt x="235" y="0" on="0"/>
      </contour>
    </TTGlyph>
    <TTGlyph name="Tbar" xMin="22" yMin="0" xMax="409" yMax="643">
      <contour>
        <pt x="230" y="0" on="1"/>
        <pt x="201" y="0" on="1"/>
        <pt x="190" y="0" on="0"/>
        <pt x="190" y="12" on="1"/>
        <pt x="190" y="314" on="1"/>
        <pt x="190" y="323" on="0"/>
        <pt x="180" y="323" on="1"/>
        <pt x="86" y="323" on="1"/>
        <pt x="74" y="323" on="0"/>
        <pt x="74" y="333" on="1"/>
        <pt x="74" y="353" on="1"/>
        <pt x="74" y="364" on="0"/>
        <pt x="86" y="364" on="1"/>
        <pt x="180" y="364" on="1"/>
        <pt x="190" y="364" on="0"/>
        <pt x="190" y="373" on="1"/>
        <pt x="190" y="589" on="1"/>
        <pt x="190" y="598" on="0"/>
        <pt x="180" y="598" on="1"/>
        <pt x="33" y="598" on="1"/>
        <pt x="22" y="598" on="0"/>
        <pt x="22" y="609" on="1"/>
        <pt x="22" y="632" on="1"/>
        <pt x="22" y="643" on="0"/>
        <pt x="33" y="643" on="1"/>
        <pt x="397" y="643" on="1"/>
        <pt x="409" y="643" on="0"/>
        <pt x="409" y="632" on="1"/>
        <pt x="409" y="609" on="1"/>
        <pt x="409" y="598" on="0"/>
        <pt x="397" y="598" on="1"/>
        <pt x="250" y="598" on="1"/>
        <pt x="240" y="598" on="0"/>
        <pt x="240" y="589" on="1"/>
        <pt x="240" y="373" on="1"/>
        <pt x="240" y="364" on="0"/>
        <pt x="250" y="364" on="1"/>
        <pt x="353" y="364" on="1"/>
        <pt x="365" y="364" on="0"/>
        <pt x="365" y="353" on="1"/>
        <pt x="365" y="333" on="1"/>
        <pt x="365" y="323" on="0"/>
        <pt x="353" y="323" on="1"/>
        <pt x="250" y="323" on="1"/>
        <pt x="240" y="323" on="0"/>
        <pt x="240" y="314" on="1"/>
        <pt x="240" y="12" on="1"/>
        <pt x="240" y="0" on="0"/>
      </contour>
    </TTGlyph>
    <TTGlyph name="Tcaron" xMin="18" yMin="0" xMax="402" yMax="836">
      <contour>
        <pt x="200" y="707" on="1"/>
        <pt x="187" y="707" on="0"/>
        <pt x="181" y="716" on="1"/>
        <pt x="117" y="825" on="1"/>
        <pt x="110" y="836" on="0"/>
        <pt x="122" y="836" on="1"/>
        <pt x="145" y="836" on="1"/>
        <pt x="154" y="836" on="0"/>
        <pt x="158" y="830" on="1"/>
        <pt x="211" y="733" on="1"/>
        <pt x="265" y="830" on="1"/>
        <pt x="267" y="836" on="0"/>
        <pt x="277" y="836" on="1"/>
        <pt x="301" y="836" on="1"/>
        <pt x="312" y="836" on="0"/>
        <pt x="305" y="825" on="1"/>
        <pt x="242" y="716" on="1"/>
        <pt x="236" y="707" on="0"/>
        <pt x="222" y="707" on="1"/>
      </contour>
      <contour>
        <pt x="225" y="0" on="1"/>
        <pt x="196" y="0" on="1"/>
        <pt x="185" y="0" on="0"/>
        <pt x="185" y="12" on="1"/>
        <pt x="185" y="589" on="1"/>
        <pt x="185" y="598" on="0"/>
        <pt x="175" y="598" on="1"/>
        <pt x="30" y="598" on="1"/>
        <pt x="18" y="598" on="0"/>
        <pt x="18" y="609" on="1"/>
        <pt x="18" y="632" on="1"/>
        <pt x="18" y="643" on="0"/>
        <pt x="30" y="643" on="1"/>
        <pt x="390" y="643" on="1"/>
        <pt x="402" y="643" on="0"/>
        <pt x="402" y="632" on="1"/>
        <pt x="402" y="609" on="1"/>
        <pt x="402" y="598" on="0"/>
        <pt x="390" y="598" on="1"/>
        <pt x="245" y="598" on="1"/>
        <pt x="235" y="598" on="0"/>
        <pt x="235" y="589" on="1"/>
        <pt x="235" y="12" on="1"/>
        <pt x="235" y="0" on="0"/>
      </contour>
    </TTGlyph>
    <TTGlyph name="Thorn" xMin="115" yMin="0" xMax="431" yMax="643">
      <contour>
        <pt x="175" y="178" on="1"/>
        <pt x="286" y="178" on="1"/>
        <pt x="332" y="178" on="0"/>
        <pt x="381" y="229" on="0"/>
        <pt x="381" y="276" on="1"/>
        <pt x="381" y="366" on="1"/>
        <pt x="381" y="414" on="0"/>
        <pt x="332" y="465" on="0"/>
        <pt x="286" y="465" on="1"/>
        <pt x="175" y="465" on="1"/>
        <pt x="166" y="465" on="0"/>
        <pt x="166" y="456" on="1"/>
        <pt x="166" y="187" on="1"/>
        <pt x="166" y="178" on="0"/>
      </contour>
      <contour>
        <pt x="155" y="0" on="1"/>
        <pt x="126" y="0" on="1"/>
        <pt x="115" y="0" on="0"/>
        <pt x="115" y="12" on="1"/>
        <pt x="115" y="631" on="1"/>
        <pt x="115" y="643" on="0"/>
        <pt x="126" y="643" on="1"/>
        <pt x="155" y="643" on="1"/>
        <pt x="166" y="643" on="0"/>
        <pt x="166" y="631" on="1"/>
        <pt x="166" y="519" on="1"/>
        <pt x="166" y="510" on="0"/>
        <pt x="175" y="510" on="1"/>
        <pt x="291" y="510" on="1"/>
        <pt x="356" y="510" on="0"/>
        <pt x="431" y="434" on="0"/>
        <pt x="431" y="368" on="1"/>
        <pt x="431" y="274" on="1"/>
        <pt x="431" y="209" on="0"/>
        <pt x="356" y="133" on="0"/>
        <pt x="291" y="133" on="1"/>
        <pt x="175" y="133" on="1"/>
        <pt x="166" y="133" on="0"/>
        <pt x="166" y="124" on="1"/>
        <pt x="166" y="12" on="1"/>
        <pt x="166" y="0" on="0"/>
      </contour>
    </TTGlyph>
    <TTGlyph name="U" xMin="80" yMin="0" xMax="472" yMax="643">
      <contour>
        <pt x="433" y="643" on="1"/>
        <pt x="461" y="643" on="1"/>
        <pt x="472" y="643" on="0"/>
        <pt x="472" y="632" on="1"/>
        <pt x="472" y="142" on="1"/>
        <pt x="472" y="76" on="0"/>
        <pt x="397" y="0" on="0"/>
        <pt x="332" y="0" on="1"/>
        <pt x="220" y="0" on="1"/>
        <pt x="155" y="0" on="0"/>
        <pt x="80" y="76" on="0"/>
        <pt x="80" y="142" on="1"/>
        <pt x="80" y="631" on="1"/>
        <pt x="80" y="643" on="0"/>
        <pt x="90" y="643" on="1"/>
        <pt x="119" y="643" on="1"/>
        <pt x="130" y="643" on="0"/>
        <pt x="130" y="631" on="1"/>
        <pt x="130" y="144" on="1"/>
        <pt x="130" y="97" on="0"/>
        <pt x="178" y="45" on="0"/>
        <pt x="224" y="45" on="1"/>
        <pt x="327" y="45" on="1"/>
        <pt x="373" y="45" on="0"/>
        <pt x="422" y="96" on="0"/>
        <pt x="422" y="144" on="1"/>
        <pt x="422" y="631" on="1"/>
        <pt x="422" y="643" on="0"/>
      </contour>
    </TTGlyph>
    <TTGlyph name="Uacute" xMin="80" yMin="0" xMax="472" yMax="836">
      <contour>
        <pt x="336" y="836" on="1"/>
        <pt x="380" y="836" on="1"/>
        <pt x="385" y="836" on="0"/>
        <pt x="390" y="830" on="0"/>
        <pt x="386" y="825" on="1"/>
        <pt x="296" y="716" on="1"/>
        <pt x="288" y="707" on="0"/>
        <pt x="279" y="707" on="1"/>
        <pt x="259" y="707" on="1"/>
        <pt x="249" y="707" on="0"/>
        <pt x="255" y="719" on="1"/>
        <pt x="318" y="825" on="1"/>
        <pt x="324" y="836" on="0"/>
      </contour>
      <contour>
        <pt x="433" y="643" on="1"/>
        <pt x="461" y="643" on="1"/>
        <pt x="472" y="643" on="0"/>
        <pt x="472" y="632" on="1"/>
        <pt x="472" y="142" on="1"/>
        <pt x="472" y="76" on="0"/>
        <pt x="397" y="0" on="0"/>
        <pt x="332" y="0" on="1"/>
        <pt x="220" y="0" on="1"/>
        <pt x="155" y="0" on="0"/>
        <pt x="80" y="76" on="0"/>
        <pt x="80" y="142" on="1"/>
        <pt x="80" y="631" on="1"/>
        <pt x="80" y="643" on="0"/>
        <pt x="90" y="643" on="1"/>
        <pt x="119" y="643" on="1"/>
        <pt x="130" y="643" on="0"/>
        <pt x="130" y="631" on="1"/>
        <pt x="130" y="144" on="1"/>
        <pt x="130" y="97" on="0"/>
        <pt x="178" y="45" on="0"/>
        <pt x="224" y="45" on="1"/>
        <pt x="327" y="45" on="1"/>
        <pt x="373" y="45" on="0"/>
        <pt x="422" y="96" on="0"/>
        <pt x="422" y="144" on="1"/>
        <pt x="422" y="631" on="1"/>
        <pt x="422" y="643" on="0"/>
      </contour>
    </TTGlyph>
    <TTGlyph name="Ubreve" xMin="80" yMin="0" xMax="472" yMax="836">
      <contour>
        <pt x="177" y="826" on="1"/>
        <pt x="177" y="836" on="0"/>
        <pt x="186" y="836" on="1"/>
        <pt x="205" y="836" on="1"/>
        <pt x="214" y="836" on="0"/>
        <pt x="214" y="826" on="1"/>
        <pt x="214" y="815" on="1"/>
        <pt x="214" y="772" on="0"/>
        <pt x="241" y="738" on="0"/>
        <pt x="274" y="738" on="1"/>
        <pt x="278" y="738" on="1"/>
        <pt x="313" y="738" on="0"/>
        <pt x="341" y="773" on="0"/>
        <pt x="341" y="815" on="1"/>
        <pt x="341" y="825" on="1"/>
        <pt x="341" y="835" on="0"/>
        <pt x="350" y="835" on="1"/>
        <pt x="367" y="835" on="1"/>
        <pt x="376" y="835" on="0"/>
        <pt x="376" y="825" on="1"/>
        <pt x="376" y="814" on="1"/>
        <pt x="376" y="707" on="0"/>
        <pt x="281" y="707" on="1"/>
        <pt x="271" y="707" on="1"/>
        <pt x="177" y="707" on="0"/>
        <pt x="177" y="814" on="1"/>
      </contour>
      <contour>
        <pt x="433" y="643" on="1"/>
        <pt x="461" y="643" on="1"/>
        <pt x="472" y="643" on="0"/>
        <pt x="472" y="632" on="1"/>
        <pt x="472" y="142" on="1"/>
        <pt x="472" y="76" on="0"/>
        <pt x="397" y="0" on="0"/>
        <pt x="332" y="0" on="1"/>
        <pt x="220" y="0" on="1"/>
        <pt x="155" y="0" on="0"/>
        <pt x="80" y="76" on="0"/>
        <pt x="80" y="142" on="1"/>
        <pt x="80" y="631" on="1"/>
        <pt x="80" y="643" on="0"/>
        <pt x="90" y="643" on="1"/>
        <pt x="119" y="643" on="1"/>
        <pt x="130" y="643" on="0"/>
        <pt x="130" y="631" on="1"/>
        <pt x="130" y="144" on="1"/>
        <pt x="130" y="97" on="0"/>
        <pt x="178" y="45" on="0"/>
        <pt x="224" y="45" on="1"/>
        <pt x="327" y="45" on="1"/>
        <pt x="373" y="45" on="0"/>
        <pt x="422" y="96" on="0"/>
        <pt x="422" y="144" on="1"/>
        <pt x="422" y="631" on="1"/>
        <pt x="422" y="643" on="0"/>
      </contour>
    </TTGlyph>
    <TTGlyph name="Ucircumflex" xMin="80" yMin="0" xMax="472" yMax="836">
      <contour>
        <pt x="366" y="707" on="1"/>
        <pt x="342" y="707" on="1"/>
        <pt x="332" y="707" on="0"/>
        <pt x="330" y="713" on="1"/>
        <pt x="276" y="810" on="1"/>
        <pt x="223" y="713" on="1"/>
        <pt x="221" y="707" on="0"/>
        <pt x="211" y="707" on="1"/>
        <pt x="187" y="707" on="1"/>
        <pt x="175" y="707" on="0"/>
        <pt x="182" y="718" on="1"/>
        <pt x="246" y="827" on="1"/>
        <pt x="252" y="836" on="0"/>
        <pt x="266" y="836" on="1"/>
        <pt x="287" y="836" on="1"/>
        <pt x="301" y="836" on="0"/>
        <pt x="307" y="827" on="1"/>
        <pt x="371" y="718" on="1"/>
        <pt x="378" y="707" on="0"/>
      </contour>
      <contour>
        <pt x="433" y="643" on="1"/>
        <pt x="461" y="643" on="1"/>
        <pt x="472" y="643" on="0"/>
        <pt x="472" y="632" on="1"/>
        <pt x="472" y="142" on="1"/>
        <pt x="472" y="76" on="0"/>
        <pt x="397" y="0" on="0"/>
        <pt x="332" y="0" on="1"/>
        <pt x="220" y="0" on="1"/>
        <pt x="155" y="0" on="0"/>
        <pt x="80" y="76" on="0"/>
        <pt x="80" y="142" on="1"/>
        <pt x="80" y="631" on="1"/>
        <pt x="80" y="643" on="0"/>
        <pt x="90" y="643" on="1"/>
        <pt x="119" y="643" on="1"/>
        <pt x="130" y="643" on="0"/>
        <pt x="130" y="631" on="1"/>
        <pt x="130" y="144" on="1"/>
        <pt x="130" y="97" on="0"/>
        <pt x="178" y="45" on="0"/>
        <pt x="224" y="45" on="1"/>
        <pt x="327" y="45" on="1"/>
        <pt x="373" y="45" on="0"/>
        <pt x="422" y="96" on="0"/>
        <pt x="422" y="144" on="1"/>
        <pt x="422" y="631" on="1"/>
        <pt x="422" y="643" on="0"/>
      </contour>
    </TTGlyph>
    <TTGlyph name="Udieresis" xMin="80" yMin="0" xMax="472" yMax="836">
      <contour>
        <pt x="170" y="719" on="1"/>
        <pt x="170" y="825" on="1"/>
        <pt x="170" y="836" on="0"/>
        <pt x="181" y="836" on="1"/>
        <pt x="208" y="836" on="1"/>
        <pt x="219" y="836" on="0"/>
        <pt x="219" y="825" on="1"/>
        <pt x="219" y="719" on="1"/>
        <pt x="219" y="707" on="0"/>
        <pt x="208" y="707" on="1"/>
        <pt x="181" y="707" on="1"/>
        <pt x="170" y="707" on="0"/>
      </contour>
      <contour>
        <pt x="333" y="719" on="1"/>
        <pt x="333" y="825" on="1"/>
        <pt x="333" y="836" on="0"/>
        <pt x="344" y="836" on="1"/>
        <pt x="372" y="836" on="1"/>
        <pt x="382" y="836" on="0"/>
        <pt x="382" y="825" on="1"/>
        <pt x="382" y="719" on="1"/>
        <pt x="382" y="707" on="0"/>
        <pt x="372" y="707" on="1"/>
        <pt x="344" y="707" on="1"/>
        <pt x="333" y="707" on="0"/>
      </contour>
      <contour>
        <pt x="433" y="643" on="1"/>
        <pt x="461" y="643" on="1"/>
        <pt x="472" y="643" on="0"/>
        <pt x="472" y="632" on="1"/>
        <pt x="472" y="142" on="1"/>
        <pt x="472" y="76" on="0"/>
        <pt x="397" y="0" on="0"/>
        <pt x="332" y="0" on="1"/>
        <pt x="220" y="0" on="1"/>
        <pt x="155" y="0" on="0"/>
        <pt x="80" y="76" on="0"/>
        <pt x="80" y="142" on="1"/>
        <pt x="80" y="631" on="1"/>
        <pt x="80" y="643" on="0"/>
        <pt x="90" y="643" on="1"/>
        <pt x="119" y="643" on="1"/>
        <pt x="130" y="643" on="0"/>
        <pt x="130" y="631" on="1"/>
        <pt x="130" y="144" on="1"/>
        <pt x="130" y="97" on="0"/>
        <pt x="178" y="45" on="0"/>
        <pt x="224" y="45" on="1"/>
        <pt x="327" y="45" on="1"/>
        <pt x="373" y="45" on="0"/>
        <pt x="422" y="96" on="0"/>
        <pt x="422" y="144" on="1"/>
        <pt x="422" y="631" on="1"/>
        <pt x="422" y="643" on="0"/>
      </contour>
    </TTGlyph>
    <TTGlyph name="Ugrave" xMin="80" yMin="0" xMax="472" yMax="836">
      <contour>
        <pt x="296" y="707" on="1"/>
        <pt x="276" y="707" on="1"/>
        <pt x="266" y="707" on="0"/>
        <pt x="260" y="716" on="1"/>
        <pt x="170" y="825" on="1"/>
        <pt x="166" y="830" on="0"/>
        <pt x="170" y="836" on="0"/>
        <pt x="175" y="836" on="1"/>
        <pt x="220" y="836" on="1"/>
        <pt x="232" y="836" on="0"/>
        <pt x="238" y="825" on="1"/>
        <pt x="301" y="719" on="1"/>
        <pt x="307" y="707" on="0"/>
      </contour>
      <contour>
        <pt x="433" y="643" on="1"/>
        <pt x="461" y="643" on="1"/>
        <pt x="472" y="643" on="0"/>
        <pt x="472" y="632" on="1"/>
        <pt x="472" y="142" on="1"/>
        <pt x="472" y="76" on="0"/>
        <pt x="397" y="0" on="0"/>
        <pt x="332" y="0" on="1"/>
        <pt x="220" y="0" on="1"/>
        <pt x="155" y="0" on="0"/>
        <pt x="80" y="76" on="0"/>
        <pt x="80" y="142" on="1"/>
        <pt x="80" y="631" on="1"/>
        <pt x="80" y="643" on="0"/>
        <pt x="90" y="643" on="1"/>
        <pt x="119" y="643" on="1"/>
        <pt x="130" y="643" on="0"/>
        <pt x="130" y="631" on="1"/>
        <pt x="130" y="144" on="1"/>
        <pt x="130" y="97" on="0"/>
        <pt x="178" y="45" on="0"/>
        <pt x="224" y="45" on="1"/>
        <pt x="327" y="45" on="1"/>
        <pt x="373" y="45" on="0"/>
        <pt x="422" y="96" on="0"/>
        <pt x="422" y="144" on="1"/>
        <pt x="422" y="631" on="1"/>
        <pt x="422" y="643" on="0"/>
      </contour>
    </TTGlyph>
    <TTGlyph name="Uhungarumlaut" xMin="80" yMin="0" xMax="472" yMax="836">
      <contour>
        <pt x="273" y="836" on="1"/>
        <pt x="304" y="836" on="1"/>
        <pt x="317" y="836" on="0"/>
        <pt x="309" y="825" on="1"/>
        <pt x="229" y="716" on="1"/>
        <pt x="223" y="707" on="0"/>
        <pt x="213" y="707" on="1"/>
        <pt x="197" y="707" on="1"/>
        <pt x="187" y="707" on="0"/>
        <pt x="193" y="719" on="1"/>
        <pt x="254" y="825" on="1"/>
        <pt x="260" y="836" on="0"/>
      </contour>
      <contour>
        <pt x="396" y="836" on="1"/>
        <pt x="427" y="836" on="1"/>
        <pt x="441" y="836" on="0"/>
        <pt x="432" y="825" on="1"/>
        <pt x="353" y="716" on="1"/>
        <pt x="346" y="707" on="0"/>
        <pt x="337" y="707" on="1"/>
        <pt x="321" y="707" on="1"/>
        <pt x="311" y="707" on="0"/>
        <pt x="317" y="719" on="1"/>
        <pt x="378" y="825" on="1"/>
        <pt x="384" y="836" on="0"/>
      </contour>
      <contour>
        <pt x="433" y="643" on="1"/>
        <pt x="461" y="643" on="1"/>
        <pt x="472" y="643" on="0"/>
        <pt x="472" y="632" on="1"/>
        <pt x="472" y="142" on="1"/>
        <pt x="472" y="76" on="0"/>
        <pt x="397" y="0" on="0"/>
        <pt x="332" y="0" on="1"/>
        <pt x="220" y="0" on="1"/>
        <pt x="155" y="0" on="0"/>
        <pt x="80" y="76" on="0"/>
        <pt x="80" y="142" on="1"/>
        <pt x="80" y="631" on="1"/>
        <pt x="80" y="643" on="0"/>
        <pt x="90" y="643" on="1"/>
        <pt x="119" y="643" on="1"/>
        <pt x="130" y="643" on="0"/>
        <pt x="130" y="631" on="1"/>
        <pt x="130" y="144" on="1"/>
        <pt x="130" y="97" on="0"/>
        <pt x="178" y="45" on="0"/>
        <pt x="224" y="45" on="1"/>
        <pt x="327" y="45" on="1"/>
        <pt x="373" y="45" on="0"/>
        <pt x="422" y="96" on="0"/>
        <pt x="422" y="144" on="1"/>
        <pt x="422" y="631" on="1"/>
        <pt x="422" y="643" on="0"/>
      </contour>
    </TTGlyph>
    <TTGlyph name="Umacron" xMin="80" yMin="0" xMax="472" yMax="792">
      <contour>
        <pt x="377" y="752" on="1"/>
        <pt x="175" y="752" on="1"/>
        <pt x="163" y="752" on="0"/>
        <pt x="163" y="762" on="1"/>
        <pt x="163" y="781" on="1"/>
        <pt x="163" y="792" on="0"/>
        <pt x="175" y="792" on="1"/>
        <pt x="377" y="792" on="1"/>
        <pt x="389" y="792" on="0"/>
        <pt x="389" y="781" on="1"/>
        <pt x="389" y="762" on="1"/>
        <pt x="389" y="752" on="0"/>
      </contour>
      <contour>
        <pt x="433" y="643" on="1"/>
        <pt x="461" y="643" on="1"/>
        <pt x="472" y="643" on="0"/>
        <pt x="472" y="632" on="1"/>
        <pt x="472" y="142" on="1"/>
        <pt x="472" y="76" on="0"/>
        <pt x="397" y="0" on="0"/>
        <pt x="332" y="0" on="1"/>
        <pt x="220" y="0" on="1"/>
        <pt x="155" y="0" on="0"/>
        <pt x="80" y="76" on="0"/>
        <pt x="80" y="142" on="1"/>
        <pt x="80" y="631" on="1"/>
        <pt x="80" y="643" on="0"/>
        <pt x="90" y="643" on="1"/>
        <pt x="119" y="643" on="1"/>
        <pt x="130" y="643" on="0"/>
        <pt x="130" y="631" on="1"/>
        <pt x="130" y="144" on="1"/>
        <pt x="130" y="97" on="0"/>
        <pt x="178" y="45" on="0"/>
        <pt x="224" y="45" on="1"/>
        <pt x="327" y="45" on="1"/>
        <pt x="373" y="45" on="0"/>
        <pt x="422" y="96" on="0"/>
        <pt x="422" y="144" on="1"/>
        <pt x="422" y="631" on="1"/>
        <pt x="422" y="643" on="0"/>
      </contour>
    </TTGlyph>
    <TTGlyph name="Uogonek" xMin="80" yMin="-106" xMax="472" yMax="643">
      <contour>
        <pt x="433" y="643" on="1"/>
        <pt x="461" y="643" on="1"/>
        <pt x="472" y="643" on="0"/>
        <pt x="472" y="632" on="1"/>
        <pt x="472" y="142" on="1"/>
        <pt x="472" y="76" on="0"/>
        <pt x="397" y="0" on="0"/>
        <pt x="332" y="0" on="1"/>
        <pt x="313" y="0" on="1"/>
        <pt x="260" y="-70" on="1"/>
        <pt x="299" y="-70" on="1"/>
        <pt x="316" y="-70" on="0"/>
        <pt x="327" y="-75" on="0"/>
        <pt x="327" y="-93" on="0"/>
        <pt x="283" y="-106" on="0"/>
        <pt x="229" y="-106" on="0"/>
        <pt x="216" y="-81" on="0"/>
        <pt x="228" y="-66" on="1"/>
        <pt x="278" y="0" on="1"/>
        <pt x="220" y="0" on="1"/>
        <pt x="155" y="0" on="0"/>
        <pt x="80" y="76" on="0"/>
        <pt x="80" y="142" on="1"/>
        <pt x="80" y="631" on="1"/>
        <pt x="80" y="643" on="0"/>
        <pt x="90" y="643" on="1"/>
        <pt x="119" y="643" on="1"/>
        <pt x="130" y="643" on="0"/>
        <pt x="130" y="631" on="1"/>
        <pt x="130" y="144" on="1"/>
        <pt x="130" y="97" on="0"/>
        <pt x="178" y="45" on="0"/>
        <pt x="224" y="45" on="1"/>
        <pt x="327" y="45" on="1"/>
        <pt x="373" y="45" on="0"/>
        <pt x="422" y="96" on="0"/>
        <pt x="422" y="144" on="1"/>
        <pt x="422" y="631" on="1"/>
        <pt x="422" y="643" on="0"/>
      </contour>
    </TTGlyph>
    <TTGlyph name="Uring" xMin="80" yMin="0" xMax="472" yMax="872">
      <contour>
        <pt x="285" y="695" on="1"/>
        <pt x="265" y="695" on="1"/>
        <pt x="194" y="695" on="0"/>
        <pt x="194" y="768" on="1"/>
        <pt x="194" y="799" on="1"/>
        <pt x="194" y="872" on="0"/>
        <pt x="265" y="872" on="1"/>
        <pt x="285" y="872" on="1"/>
        <pt x="320" y="872" on="0"/>
        <pt x="358" y="834" on="0"/>
        <pt x="358" y="799" on="1"/>
        <pt x="358" y="768" on="1"/>
        <pt x="358" y="733" on="0"/>
        <pt x="320" y="695" on="0"/>
      </contour>
      <contour>
        <pt x="269" y="722" on="1"/>
        <pt x="281" y="722" on="1"/>
        <pt x="327" y="722" on="0"/>
        <pt x="327" y="773" on="1"/>
        <pt x="327" y="794" on="1"/>
        <pt x="327" y="844" on="0"/>
        <pt x="281" y="844" on="1"/>
        <pt x="270" y="844" on="1"/>
        <pt x="224" y="844" on="0"/>
        <pt x="224" y="794" on="1"/>
        <pt x="224" y="773" on="1"/>
        <pt x="224" y="722" on="0"/>
      </contour>
      <contour>
        <pt x="433" y="643" on="1"/>
        <pt x="461" y="643" on="1"/>
        <pt x="472" y="643" on="0"/>
        <pt x="472" y="632" on="1"/>
        <pt x="472" y="142" on="1"/>
        <pt x="472" y="76" on="0"/>
        <pt x="397" y="0" on="0"/>
        <pt x="332" y="0" on="1"/>
        <pt x="220" y="0" on="1"/>
        <pt x="155" y="0" on="0"/>
        <pt x="80" y="76" on="0"/>
        <pt x="80" y="142" on="1"/>
        <pt x="80" y="631" on="1"/>
        <pt x="80" y="643" on="0"/>
        <pt x="90" y="643" on="1"/>
        <pt x="119" y="643" on="1"/>
        <pt x="130" y="643" on="0"/>
        <pt x="130" y="631" on="1"/>
        <pt x="130" y="144" on="1"/>
        <pt x="130" y="97" on="0"/>
        <pt x="178" y="45" on="0"/>
        <pt x="224" y="45" on="1"/>
        <pt x="327" y="45" on="1"/>
        <pt x="373" y="45" on="0"/>
        <pt x="422" y="96" on="0"/>
        <pt x="422" y="144" on="1"/>
        <pt x="422" y="631" on="1"/>
        <pt x="422" y="643" on="0"/>
      </contour>
    </TTGlyph>
    <TTGlyph name="Utilde" xMin="80" yMin="0" xMax="472" yMax="831">
      <contour>
        <pt x="277" y="724" on="0"/>
        <pt x="251" y="702" on="0"/>
        <pt x="195" y="702" on="0"/>
        <pt x="169" y="739" on="0"/>
        <pt x="169" y="780" on="1"/>
        <pt x="169" y="819" on="1"/>
        <pt x="169" y="828" on="0"/>
        <pt x="178" y="828" on="1"/>
        <pt x="192" y="828" on="1"/>
        <pt x="200" y="828" on="0"/>
        <pt x="200" y="819" on="1"/>
        <pt x="200" y="786" on="1"/>
        <pt x="200" y="756" on="0"/>
        <pt x="212" y="733" on="0"/>
        <pt x="242" y="733" on="0"/>
        <pt x="254" y="751" on="0"/>
        <pt x="278" y="812" on="0"/>
        <pt x="301" y="831" on="0"/>
        <pt x="357" y="831" on="0"/>
        <pt x="383" y="794" on="0"/>
        <pt x="383" y="754" on="1"/>
        <pt x="383" y="713" on="1"/>
        <pt x="383" y="703" on="0"/>
        <pt x="374" y="703" on="1"/>
        <pt x="360" y="703" on="1"/>
        <pt x="352" y="703" on="0"/>
        <pt x="352" y="713" on="1"/>
        <pt x="352" y="747" on="1"/>
        <pt x="352" y="778" on="0"/>
        <pt x="340" y="801" on="0"/>
        <pt x="309" y="801" on="0"/>
        <pt x="299" y="786" on="0"/>
      </contour>
      <contour>
        <pt x="433" y="643" on="1"/>
        <pt x="461" y="643" on="1"/>
        <pt x="472" y="643" on="0"/>
        <pt x="472" y="632" on="1"/>
        <pt x="472" y="142" on="1"/>
        <pt x="472" y="76" on="0"/>
        <pt x="397" y="0" on="0"/>
        <pt x="332" y="0" on="1"/>
        <pt x="220" y="0" on="1"/>
        <pt x="155" y="0" on="0"/>
        <pt x="80" y="76" on="0"/>
        <pt x="80" y="142" on="1"/>
        <pt x="80" y="631" on="1"/>
        <pt x="80" y="643" on="0"/>
        <pt x="90" y="643" on="1"/>
        <pt x="119" y="643" on="1"/>
        <pt x="130" y="643" on="0"/>
        <pt x="130" y="631" on="1"/>
        <pt x="130" y="144" on="1"/>
        <pt x="130" y="97" on="0"/>
        <pt x="178" y="45" on="0"/>
        <pt x="224" y="45" on="1"/>
        <pt x="327" y="45" on="1"/>
        <pt x="373" y="45" on="0"/>
        <pt x="422" y="96" on="0"/>
        <pt x="422" y="144" on="1"/>
        <pt x="422" y="631" on="1"/>
        <pt x="422" y="643" on="0"/>
      </contour>
    </TTGlyph>
    <TTGlyph name="V" xMin="28" yMin="0" xMax="472" yMax="643">
      <contour>
        <pt x="273" y="0" on="1"/>
        <pt x="227" y="0" on="1"/>
        <pt x="217" y="0" on="0"/>
        <pt x="214" y="12" on="1"/>
        <pt x="28" y="631" on="1"/>
        <pt x="24" y="643" on="0"/>
        <pt x="37" y="643" on="1"/>
        <pt x="68" y="643" on="1"/>
        <pt x="78" y="643" on="0"/>
        <pt x="81" y="631" on="1"/>
        <pt x="248" y="62" on="1"/>
        <pt x="252" y="62" on="1"/>
        <pt x="419" y="631" on="1"/>
        <pt x="422" y="643" on="0"/>
        <pt x="432" y="643" on="1"/>
        <pt x="463" y="643" on="1"/>
        <pt x="475" y="643" on="0"/>
        <pt x="472" y="631" on="1"/>
        <pt x="286" y="12" on="1"/>
        <pt x="283" y="0" on="0"/>
      </contour>
    </TTGlyph>
    <TTGlyph name="W" xMin="32" yMin="0" xMax="762" yMax="643">
      <contour>
        <pt x="233" y="0" on="1"/>
        <pt x="183" y="0" on="1"/>
        <pt x="172" y="0" on="0"/>
        <pt x="169" y="12" on="1"/>
        <pt x="32" y="631" on="1"/>
        <pt x="29" y="643" on="0"/>
        <pt x="42" y="643" on="1"/>
        <pt x="75" y="643" on="1"/>
        <pt x="86" y="643" on="0"/>
        <pt x="88" y="631" on="1"/>
        <pt x="207" y="57" on="1"/>
        <pt x="212" y="57" on="1"/>
        <pt x="364" y="632" on="1"/>
        <pt x="366" y="643" on="0"/>
        <pt x="377" y="643" on="1"/>
        <pt x="415" y="643" on="1"/>
        <pt x="427" y="643" on="0"/>
        <pt x="429" y="632" on="1"/>
        <pt x="582" y="57" on="1"/>
        <pt x="587" y="57" on="1"/>
        <pt x="705" y="631" on="1"/>
        <pt x="707" y="643" on="0"/>
        <pt x="719" y="643" on="1"/>
        <pt x="753" y="643" on="1"/>
        <pt x="765" y="643" on="0"/>
        <pt x="762" y="631" on="1"/>
        <pt x="625" y="12" on="1"/>
        <pt x="623" y="0" on="0"/>
        <pt x="612" y="0" on="1"/>
        <pt x="561" y="0" on="1"/>
        <pt x="550" y="0" on="0"/>
        <pt x="547" y="12" on="1"/>
        <pt x="399" y="576" on="1"/>
        <pt x="395" y="576" on="1"/>
        <pt x="246" y="12" on="1"/>
        <pt x="243" y="0" on="0"/>
      </contour>
    </TTGlyph>
    <TTGlyph name="Wacute" xMin="32" yMin="0" xMax="762" yMax="836">
      <contour>
        <pt x="466" y="836" on="1"/>
        <pt x="511" y="836" on="1"/>
        <pt x="523" y="836" on="0"/>
        <pt x="516" y="825" on="1"/>
        <pt x="426" y="716" on="1"/>
        <pt x="420" y="707" on="0"/>
        <pt x="410" y="707" on="1"/>
        <pt x="389" y="707" on="1"/>
        <pt x="379" y="707" on="0"/>
        <pt x="385" y="719" on="1"/>
        <pt x="448" y="825" on="1"/>
        <pt x="454" y="836" on="0"/>
      </contour>
      <contour>
        <pt x="233" y="0" on="1"/>
        <pt x="183" y="0" on="1"/>
        <pt x="172" y="0" on="0"/>
        <pt x="169" y="12" on="1"/>
        <pt x="32" y="631" on="1"/>
        <pt x="29" y="643" on="0"/>
        <pt x="42" y="643" on="1"/>
        <pt x="75" y="643" on="1"/>
        <pt x="86" y="643" on="0"/>
        <pt x="88" y="631" on="1"/>
        <pt x="207" y="57" on="1"/>
        <pt x="212" y="57" on="1"/>
        <pt x="364" y="632" on="1"/>
        <pt x="366" y="643" on="0"/>
        <pt x="377" y="643" on="1"/>
        <pt x="415" y="643" on="1"/>
        <pt x="427" y="643" on="0"/>
        <pt x="429" y="632" on="1"/>
        <pt x="582" y="57" on="1"/>
        <pt x="587" y="57" on="1"/>
        <pt x="705" y="631" on="1"/>
        <pt x="707" y="643" on="0"/>
        <pt x="719" y="643" on="1"/>
        <pt x="753" y="643" on="1"/>
        <pt x="765" y="643" on="0"/>
        <pt x="762" y="631" on="1"/>
        <pt x="625" y="12" on="1"/>
        <pt x="623" y="0" on="0"/>
        <pt x="612" y="0" on="1"/>
        <pt x="561" y="0" on="1"/>
        <pt x="550" y="0" on="0"/>
        <pt x="547" y="12" on="1"/>
        <pt x="399" y="576" on="1"/>
        <pt x="395" y="576" on="1"/>
        <pt x="246" y="12" on="1"/>
        <pt x="243" y="0" on="0"/>
      </contour>
    </TTGlyph>
    <TTGlyph name="Wcircumflex" xMin="32" yMin="0" xMax="762" yMax="836">
      <contour>
        <pt x="487" y="707" on="1"/>
        <pt x="464" y="707" on="1"/>
        <pt x="453" y="707" on="0"/>
        <pt x="451" y="713" on="1"/>
        <pt x="398" y="810" on="1"/>
        <pt x="344" y="713" on="1"/>
        <pt x="342" y="707" on="0"/>
        <pt x="332" y="707" on="1"/>
        <pt x="308" y="707" on="1"/>
        <pt x="297" y="707" on="0"/>
        <pt x="304" y="718" on="1"/>
        <pt x="367" y="827" on="1"/>
        <pt x="373" y="836" on="0"/>
        <pt x="387" y="836" on="1"/>
        <pt x="409" y="836" on="1"/>
        <pt x="422" y="836" on="0"/>
        <pt x="428" y="827" on="1"/>
        <pt x="492" y="718" on="1"/>
        <pt x="499" y="707" on="0"/>
      </contour>
      <contour>
        <pt x="233" y="0" on="1"/>
        <pt x="183" y="0" on="1"/>
        <pt x="172" y="0" on="0"/>
        <pt x="169" y="12" on="1"/>
        <pt x="32" y="631" on="1"/>
        <pt x="29" y="643" on="0"/>
        <pt x="42" y="643" on="1"/>
        <pt x="75" y="643" on="1"/>
        <pt x="86" y="643" on="0"/>
        <pt x="88" y="631" on="1"/>
        <pt x="207" y="57" on="1"/>
        <pt x="212" y="57" on="1"/>
        <pt x="364" y="632" on="1"/>
        <pt x="366" y="643" on="0"/>
        <pt x="377" y="643" on="1"/>
        <pt x="415" y="643" on="1"/>
        <pt x="427" y="643" on="0"/>
        <pt x="429" y="632" on="1"/>
        <pt x="582" y="57" on="1"/>
        <pt x="587" y="57" on="1"/>
        <pt x="705" y="631" on="1"/>
        <pt x="707" y="643" on="0"/>
        <pt x="719" y="643" on="1"/>
        <pt x="753" y="643" on="1"/>
        <pt x="765" y="643" on="0"/>
        <pt x="762" y="631" on="1"/>
        <pt x="625" y="12" on="1"/>
        <pt x="623" y="0" on="0"/>
        <pt x="612" y="0" on="1"/>
        <pt x="561" y="0" on="1"/>
        <pt x="550" y="0" on="0"/>
        <pt x="547" y="12" on="1"/>
        <pt x="399" y="576" on="1"/>
        <pt x="395" y="576" on="1"/>
        <pt x="246" y="12" on="1"/>
        <pt x="243" y="0" on="0"/>
      </contour>
    </TTGlyph>
    <TTGlyph name="Wdieresis" xMin="32" yMin="0" xMax="762" yMax="836">
      <contour>
        <pt x="291" y="719" on="1"/>
        <pt x="291" y="825" on="1"/>
        <pt x="291" y="836" on="0"/>
        <pt x="301" y="836" on="1"/>
        <pt x="329" y="836" on="1"/>
        <pt x="340" y="836" on="0"/>
        <pt x="340" y="825" on="1"/>
        <pt x="340" y="719" on="1"/>
        <pt x="340" y="707" on="0"/>
        <pt x="329" y="707" on="1"/>
        <pt x="301" y="707" on="1"/>
        <pt x="291" y="707" on="0"/>
      </contour>
      <contour>
        <pt x="454" y="719" on="1"/>
        <pt x="454" y="825" on="1"/>
        <pt x="454" y="836" on="0"/>
        <pt x="465" y="836" on="1"/>
        <pt x="492" y="836" on="1"/>
        <pt x="503" y="836" on="0"/>
        <pt x="503" y="825" on="1"/>
        <pt x="503" y="719" on="1"/>
        <pt x="503" y="707" on="0"/>
        <pt x="492" y="707" on="1"/>
        <pt x="465" y="707" on="1"/>
        <pt x="454" y="707" on="0"/>
      </contour>
      <contour>
        <pt x="233" y="0" on="1"/>
        <pt x="183" y="0" on="1"/>
        <pt x="172" y="0" on="0"/>
        <pt x="169" y="12" on="1"/>
        <pt x="32" y="631" on="1"/>
        <pt x="29" y="643" on="0"/>
        <pt x="42" y="643" on="1"/>
        <pt x="75" y="643" on="1"/>
        <pt x="86" y="643" on="0"/>
        <pt x="88" y="631" on="1"/>
        <pt x="207" y="57" on="1"/>
        <pt x="212" y="57" on="1"/>
        <pt x="364" y="632" on="1"/>
        <pt x="366" y="643" on="0"/>
        <pt x="377" y="643" on="1"/>
        <pt x="415" y="643" on="1"/>
        <pt x="427" y="643" on="0"/>
        <pt x="429" y="632" on="1"/>
        <pt x="582" y="57" on="1"/>
        <pt x="587" y="57" on="1"/>
        <pt x="705" y="631" on="1"/>
        <pt x="707" y="643" on="0"/>
        <pt x="719" y="643" on="1"/>
        <pt x="753" y="643" on="1"/>
        <pt x="765" y="643" on="0"/>
        <pt x="762" y="631" on="1"/>
        <pt x="625" y="12" on="1"/>
        <pt x="623" y="0" on="0"/>
        <pt x="612" y="0" on="1"/>
        <pt x="561" y="0" on="1"/>
        <pt x="550" y="0" on="0"/>
        <pt x="547" y="12" on="1"/>
        <pt x="399" y="576" on="1"/>
        <pt x="395" y="576" on="1"/>
        <pt x="246" y="12" on="1"/>
        <pt x="243" y="0" on="0"/>
      </contour>
    </TTGlyph>
    <TTGlyph name="Wgrave" xMin="32" yMin="0" xMax="762" yMax="836">
      <contour>
        <pt x="405" y="707" on="1"/>
        <pt x="385" y="707" on="1"/>
        <pt x="376" y="707" on="0"/>
        <pt x="368" y="716" on="1"/>
        <pt x="279" y="825" on="1"/>
        <pt x="275" y="830" on="0"/>
        <pt x="279" y="836" on="0"/>
        <pt x="284" y="836" on="1"/>
        <pt x="328" y="836" on="1"/>
        <pt x="342" y="836" on="0"/>
        <pt x="346" y="825" on="1"/>
        <pt x="410" y="719" on="1"/>
        <pt x="416" y="707" on="0"/>
      </contour>
      <contour>
        <pt x="233" y="0" on="1"/>
        <pt x="183" y="0" on="1"/>
        <pt x="172" y="0" on="0"/>
        <pt x="169" y="12" on="1"/>
        <pt x="32" y="631" on="1"/>
        <pt x="29" y="643" on="0"/>
        <pt x="42" y="643" on="1"/>
        <pt x="75" y="643" on="1"/>
        <pt x="86" y="643" on="0"/>
        <pt x="88" y="631" on="1"/>
        <pt x="207" y="57" on="1"/>
        <pt x="212" y="57" on="1"/>
        <pt x="364" y="632" on="1"/>
        <pt x="366" y="643" on="0"/>
        <pt x="377" y="643" on="1"/>
        <pt x="415" y="643" on="1"/>
        <pt x="427" y="643" on="0"/>
        <pt x="429" y="632" on="1"/>
        <pt x="582" y="57" on="1"/>
        <pt x="587" y="57" on="1"/>
        <pt x="705" y="631" on="1"/>
        <pt x="707" y="643" on="0"/>
        <pt x="719" y="643" on="1"/>
        <pt x="753" y="643" on="1"/>
        <pt x="765" y="643" on="0"/>
        <pt x="762" y="631" on="1"/>
        <pt x="625" y="12" on="1"/>
        <pt x="623" y="0" on="0"/>
        <pt x="612" y="0" on="1"/>
        <pt x="561" y="0" on="1"/>
        <pt x="550" y="0" on="0"/>
        <pt x="547" y="12" on="1"/>
        <pt x="399" y="576" on="1"/>
        <pt x="395" y="576" on="1"/>
        <pt x="246" y="12" on="1"/>
        <pt x="243" y="0" on="0"/>
      </contour>
    </TTGlyph>
</ttFont>
